0
SECTION
2
HEADER
9
$INSUNITS
70
4
9
$ACADVER
1
AC1014
9
$HANDSEED
5
FFFF
0
ENDSEC
0
SECTION
2
TABLES
0
TABLE
2
VPORT
5
8
100
AcDbSymbolTable
0
ENDTAB
0
TABLE
2
LTYPE
5
5
100
AcDbSymbolTable
0
LTYPE
5
14
100
AcDbSymbolTableRecord
100
AcDbLinetypeTableRecord
2
BYBLOCK
70
0
0
LTYPE
5
15
100
AcDbSymbolTableRecord
100
AcDbLinetypeTableRecord
2
BYLAYER
70
0
0
ENDTAB
0
TABLE
2
LAYER
5
2
100
AcDbSymbolTable
70
2
0
LAYER
5
50
100
AcDbSymbolTableRecord
100
AcDbLayerTableRecord
2
0
70
0
6
CONTINUOUS
0
ENDTAB
0
TABLE
2
STYLE
5
3
100
AcDbSymbolTable
70
1
0
STYLE
5
11
100
AcDbSymbolTableRecord
100
AcDbTextStyleTableRecord
2
STANDARD
70
0
0
ENDTAB
0
TABLE
2
VIEW
5
6
100
AcDbSymbolTable
70
0
0
ENDTAB
0
TABLE
2
UCS
5
7
100
AcDbSymbolTable
70
0
0
ENDTAB
0
TABLE
2
APPID
5
9
100
AcDbSymbolTable
70
2
0
APPID
5
12
100
AcDbSymbolTableRecord
100
AcDbRegAppTableRecord
2
ACAD
70
0
0
ENDTAB
0
TABLE
2
DIMSTYLE
5
A
100
AcDbSymbolTable
70
1
0
ENDTAB
0
TABLE
2
BLOCK_RECORD
5
1
100
AcDbSymbolTable
70
1
0
BLOCK_RECORD
5
1F
100
AcDbSymbolTableRecord
100
AcDbBlockTableRecord
2
*MODEL_SPACE
0
BLOCK_RECORD
5
1B
100
AcDbSymbolTableRecord
100
AcDbBlockTableRecord
2
*PAPER_SPACE
0
ENDTAB
0
ENDSEC
0
SECTION
2
BLOCKS
0
BLOCK
5
20
100
AcDbEntity
100
AcDbBlockBegin
2
*MODEL_SPACE
0
ENDBLK
5
21
100
AcDbEntity
100
AcDbBlockEnd
0
BLOCK
5
1C
100
AcDbEntity
100
AcDbBlockBegin
2
*PAPER_SPACE
0
ENDBLK
5
1D
100
AcDbEntity
100
AcDbBlockEnd
0
ENDSEC
0
SECTION
2
ENTITIES
0
CIRCLE
5
100
100
AcDbEntity
8
0
100
AcDbCircle
10
-1.4999999664723873
20
11.999999731779099
30
0
40
2.0532781806930327
210
0
220
0
230
1
0
ARC
5
101
100
AcDbEntity
8
0
100
AcDbCircle
10
-1.4999999664723873
20
11.999999731779099
30
0
40
4.1298741361359594
210
0
220
0
230
1
100
AcDbArc
50
-31.81633808678302
51
199.44814901375801
0
ARC
5
102
100
AcDbEntity
8
0
100
AcDbCircle
10
-6.5293232952121594
20
10.224143427158207
30
0
40
1.2037699051992563
210
0
220
0
230
1
100
AcDbArc
50
-31.231072832926515
51
19.448149013757927
0
ARC
5
103
100
AcDbEntity
8
0
100
AcDbCircle
10
2.9456302161334458
20
9.2418368992187201
30
0
40
1.1018645740266062
210
0
220
0
230
1
100
AcDbArc
50
148.18366191321667
51
209.21559213859851
0
SPLINE
5
104
100
AcDbEntity
8
0
100
AcDbSpline
70
4
71
5
72
264
73
258
74
0
42
0.000000001
43
0.0000000001
44
0.0000000001
40
0
40
0
40
0
40
0
40
0
40
0
40
0.0039215686274509803
40
0.0078431372549019607
40
0.011764705882352941
40
0.015686274509803921
40
0.019607843137254902
40
0.023529411764705882
40
0.027450980392156862
40
0.031372549019607843
40
0.035294117647058823
40
0.039215686274509803
40
0.043137254901960784
40
0.047058823529411764
40
0.050980392156862744
40
0.054901960784313725
40
0.058823529411764705
40
0.062745098039215685
40
0.066666666666666666
40
0.070588235294117646
40
0.074509803921568626
40
0.078431372549019607
40
0.082352941176470587
40
0.086274509803921567
40
0.090196078431372548
40
0.094117647058823528
40
0.098039215686274508
40
0.10196078431372549
40
0.10588235294117647
40
0.10980392156862745
40
0.11372549019607843
40
0.11764705882352941
40
0.12156862745098039
40
0.12549019607843137
40
0.12941176470588234
40
0.1333333333333333
40
0.13725490196078427
40
0.14117647058823524
40
0.1450980392156862
40
0.14901960784313717
40
0.15294117647058814
40
0.1568627450980391
40
0.16078431372549007
40
0.16470588235294104
40
0.168627450980392
40
0.17254901960784297
40
0.17647058823529393
40
0.1803921568627449
40
0.18431372549019587
40
0.18823529411764683
40
0.1921568627450978
40
0.19607843137254877
40
0.19999999999999973
40
0.2039215686274507
40
0.20784313725490167
40
0.21176470588235263
40
0.2156862745098036
40
0.21960784313725457
40
0.22352941176470553
40
0.2274509803921565
40
0.23137254901960747
40
0.23529411764705843
40
0.2392156862745094
40
0.24313725490196036
40
0.24705882352941133
40
0.2509803921568623
40
0.25490196078431326
40
0.25882352941176423
40
0.2627450980392152
40
0.26666666666666616
40
0.27058823529411713
40
0.2745098039215681
40
0.27843137254901906
40
0.28235294117647003
40
0.286274509803921
40
0.29019607843137196
40
0.29411764705882293
40
0.2980392156862739
40
0.30196078431372486
40
0.30588235294117583
40
0.30980392156862679
40
0.31372549019607776
40
0.31764705882352873
40
0.32156862745097969
40
0.32549019607843066
40
0.32941176470588163
40
0.33333333333333259
40
0.33725490196078356
40
0.34117647058823453
40
0.34509803921568549
40
0.34901960784313646
40
0.35294117647058743
40
0.35686274509803839
40
0.36078431372548936
40
0.36470588235294032
40
0.36862745098039129
40
0.37254901960784226
40
0.37647058823529322
40
0.38039215686274419
40
0.38431372549019516
40
0.38823529411764612
40
0.39215686274509709
40
0.39607843137254806
40
0.39999999999999902
40
0.40392156862744999
40
0.40784313725490096
40
0.41176470588235192
40
0.41568627450980289
40
0.41960784313725386
40
0.42352941176470482
40
0.42745098039215579
40
0.43137254901960675
40
0.43529411764705772
40
0.43921568627450869
40
0.44313725490195965
40
0.44705882352941062
40
0.45098039215686159
40
0.45490196078431255
40
0.45882352941176352
40
0.46274509803921449
40
0.46666666666666545
40
0.47058823529411642
40
0.47450980392156739
40
0.47843137254901835
40
0.48235294117646932
40
0.48627450980392029
40
0.49019607843137125
40
0.49411764705882222
40
0.49803921568627318
40
0.50196078431372415
40
0.50588235294117512
40
0.50980392156862608
40
0.51372549019607705
40
0.51764705882352802
40
0.52156862745097898
40
0.52549019607842995
40
0.52941176470588092
40
0.53333333333333188
40
0.53725490196078285
40
0.54117647058823382
40
0.54509803921568478
40
0.54901960784313575
40
0.55294117647058671
40
0.55686274509803768
40
0.56078431372548865
40
0.56470588235293961
40
0.56862745098039058
40
0.57254901960784155
40
0.57647058823529251
40
0.58039215686274348
40
0.58431372549019445
40
0.58823529411764541
40
0.59215686274509638
40
0.59607843137254735
40
0.59999999999999831
40
0.60392156862744928
40
0.60784313725490025
40
0.61176470588235121
40
0.61568627450980218
40
0.61960784313725314
40
0.62352941176470411
40
0.62745098039215508
40
0.63137254901960604
40
0.63529411764705701
40
0.63921568627450798
40
0.64313725490195894
40
0.64705882352940991
40
0.65098039215686088
40
0.65490196078431184
40
0.65882352941176281
40
0.66274509803921378
40
0.66666666666666474
40
0.67058823529411571
40
0.67450980392156668
40
0.67843137254901764
40
0.68235294117646861
40
0.68627450980391957
40
0.69019607843137054
40
0.69411764705882151
40
0.69803921568627247
40
0.70196078431372344
40
0.70588235294117441
40
0.70980392156862537
40
0.71372549019607634
40
0.71764705882352731
40
0.72156862745097827
40
0.72549019607842924
40
0.72941176470588021
40
0.73333333333333117
40
0.73725490196078214
40
0.74117647058823311
40
0.74509803921568407
40
0.74901960784313504
40
0.752941176470586
40
0.75686274509803697
40
0.76078431372548794
40
0.7647058823529389
40
0.76862745098038987
40
0.77254901960784084
40
0.7764705882352918
40
0.78039215686274277
40
0.78431372549019374
40
0.7882352941176447
40
0.79215686274509567
40
0.79607843137254664
40
0.7999999999999976
40
0.80392156862744857
40
0.80784313725489953
40
0.8117647058823505
40
0.81568627450980147
40
0.81960784313725243
40
0.8235294117647034
40
0.82745098039215437
40
0.83137254901960533
40
0.8352941176470563
40
0.83921568627450727
40
0.84313725490195823
40
0.8470588235294092
40
0.85098039215686017
40
0.85490196078431113
40
0.8588235294117621
40
0.86274509803921307
40
0.86666666666666403
40
0.870588235294115
40
0.87450980392156596
40
0.87843137254901693
40
0.8823529411764679
40
0.88627450980391886
40
0.89019607843136983
40
0.8941176470588208
40
0.89803921568627176
40
0.90196078431372273
40
0.9058823529411737
40
0.90980392156862466
40
0.91372549019607563
40
0.9176470588235266
40
0.92156862745097756
40
0.92549019607842853
40
0.9294117647058795
40
0.93333333333333046
40
0.93725490196078143
40
0.94117647058823239
40
0.94509803921568336
40
0.94901960784313433
40
0.95294117647058529
40
0.95686274509803626
40
0.96078431372548723
40
0.96470588235293819
40
0.96862745098038916
40
0.97254901960784013
40
0.97647058823529109
40
0.98039215686274206
40
0.98431372549019303
40
0.98823529411764399
40
0.98876414923489075
40
0.98876414923489075
40
0.98876414923489075
40
0.98876414923489075
40
0.98876414923489075
40
0.98876414923489075
41
1
41
1
41
1
41
1
41
1
41
1
41
1
41
1
41
1
41
1
41
1
41
1
41
1
41
1
41
1
41
1
41
1
41
1
41
1
41
1
41
1
41
1
41
1
41
1
41
1
41
1
41
1
41
1
41
1
41
1
41
1
41
1
41
1
41
1
41
1
41
1
41
1
41
1
41
1
41
1
41
1
41
1
41
1
41
1
41
1
41
1
41
1
41
1
41
1
41
1
41
1
41
1
41
1
41
1
41
1
41
1
41
1
41
1
41
1
41
1
41
1
41
1
41
1
41
1
41
1
41
1
41
1
41
1
41
1
41
1
41
1
41
1
41
1
41
1
41
1
41
1
41
1
41
1
41
1
41
1
41
1
41
1
41
1
41
1
41
1
41
1
41
1
41
1
41
1
41
1
41
1
41
1
41
1
41
1
41
1
41
1
41
1
41
1
41
1
41
1
41
1
41
1
41
1
41
1
41
1
41
1
41
1
41
1
41
1
41
1
41
1
41
1
41
1
41
1
41
1
41
1
41
1
41
1
41
1
41
1
41
1
41
1
41
1
41
1
41
1
41
1
41
1
41
1
41
1
41
1
41
1
41
1
41
1
41
1
41
1
41
1
41
1
41
1
41
1
41
1
41
1
41
1
41
1
41
1
41
1
41
1
41
1
41
1
41
1
41
1
41
1
41
1
41
1
41
1
41
1
41
1
41
1
41
1
41
1
41
1
41
1
41
1
41
1
41
1
41
1
41
1
41
1
41
1
41
1
41
1
41
1
41
1
41
1
41
1
41
1
41
1
41
1
41
1
41
1
41
1
41
1
41
1
41
1
41
1
41
1
41
1
41
1
41
1
41
1
41
1
41
1
41
1
41
1
41
1
41
1
41
1
41
1
41
1
41
1
41
1
41
1
41
1
41
1
41
1
41
1
41
1
41
1
41
1
41
1
41
1
41
1
41
1
41
1
41
1
41
1
41
1
41
1
41
1
41
1
41
1
41
1
41
1
41
1
41
1
41
1
41
1
41
1
41
1
41
1
41
1
41
1
41
1
41
1
41
1
41
1
41
1
41
1
41
1
41
1
41
1
41
1
41
1
41
1
41
1
41
1
41
1
41
1
41
1
41
1
41
1
41
1
41
1
41
1
41
1
41
1
41
1
41
1
41
1
10
-5.4999998770654202
20
9.5999997854232788
30
0
10
-5.5294701656167558
20
9.5650805230722504
30
0
10
-5.5892538754430543
20
9.4955270734654533
30
0
10
-5.6814712582814897
20
9.3920333874041297
30
0
10
-5.8055085788967906
20
9.2616032564915347
30
0
10
-5.9464914408046319
20
9.1336309877626221
30
0
10
-6.062744604219283
20
9.053903078140582
30
0
10
-6.1659932666309594
20
9.0000332557820748
30
0
10
-6.2856190893254604
20
8.9208833940479337
30
0
10
-6.444369897789465
20
8.7729661439247693
30
0
10
-6.6386350020009255
20
8.5498121460612921
30
0
10
-6.8476285110008375
20
8.2720401943198176
30
0
10
-7.0444720123581686
20
7.9746402866231927
30
0
10
-7.2066495061022682
20
7.6952892820381926
30
0
10
-7.3264326439236243
20
7.4624171472268781
30
0
10
-7.4220862043053053
20
7.2828767837155075
30
0
10
-7.5231561850131179
20
7.1498913695671087
30
0
10
-7.656960312131794
20
7.0507708862777987
30
0
10
-7.8308174443367582
20
6.9762860685913228
30
0
10
-8.0299818042436595
20
6.9235922246733708
30
0
10
-8.2336024601059705
20
6.8915796369313593
30
0
10
-8.427007596336594
20
6.8779243190209858
30
0
10
-8.6127505227197751
20
6.8761717677155376
30
0
10
-8.8020194923204382
20
6.8781905274819843
30
0
10
-9.0089338090535112
20
6.8757778470885933
30
0
10
-9.243002904399205
20
6.862843007621815
30
0
10
-9.5087968000212815
20
6.8350823182649547
30
0
10
-9.8066500452087215
20
6.7892322529646156
30
0
10
-10.133054903114967
20
6.7225399855180115
30
0
10
-10.481103523428716
20
6.6319664631306017
30
0
10
-10.841195545032129
20
6.5141335223066719
30
0
10
-11.202265922642612
20
6.3663441310629532
30
0
10
-11.552871328373218
20
6.1873211355017954
30
0
10
-11.882358082106023
20
5.9781153374872353
30
0
10
-12.18193961995674
20
5.7428133672786537
30
0
10
-12.445946770387341
20
5.4896396252629014
30
0
10
-12.672582318520391
20
5.2309213232797376
30
0
10
-12.863169617572279
20
4.9796370596259836
30
0
10
-13.021665088454338
20
4.7465247051505246
30
0
10
-13.154061409086339
20
4.5370374248599132
30
0
10
-13.26785086640059
20
4.3482027749133509
30
0
10
-13.371420163384215
20
4.1659957383169184
30
0
10
-13.472278586833566
20
3.9720845438332466
30
0
10
-13.575493289092
20
3.7496229280582547
30
0
10
-13.68175228132465
20
3.4902319573946343
30
0
10
-13.786485053290736
20
3.1979388823451762
30
0
10
-13.882225136748787
20
2.8839624550353
30
0
10
-13.960452261505569
20
2.5629934407349748
30
0
10
-14.013567313486913
20
2.2490223524250252
30
0
10
-14.036979512853121
20
1.951043130667462
30
0
10
-14.030649567178346
20
1.6697456095770582
30
0
10
-13.997295581441263
20
1.4006572359653808
30
0
10
-13.940902145734528
20
1.1366023591409233
30
0
10
-13.86529501436646
20
0.87026049731664523
30
0
10
-13.77224644037984
20
0.59708200960075153
30
0
10
-13.661485018276869
20
0.31648456277322429
30
0
10
-13.532639483270664
20
0.031114898154984538
30
0
10
-13.386804321386157
20
-0.25328792778400105
30
0
10
-13.227952169565873
20
-0.52844800252195723
30
0
10
-13.06516353146047
20
-0.7835047525378509
30
0
10
-12.911615991009519
20
-1.0068658587166008
30
0
10
-12.779255792941202
20
-1.1905685539427411
30
0
10
-12.675153219698977
20
-1.3335597234778951
30
0
10
-12.595919532434337
20
-1.4463843132618579
30
0
10
-12.526555266066744
20
-1.5524478620645228
30
0
10
-12.453207423608294
20
-1.6772607222719984
30
0
10
-12.377568600368672
20
-1.8374838253067407
30
0
10
-12.314984033092705
20
-2.0384898050961859
30
0
10
-12.283814954078176
20
-2.2773098964022256
30
0
10
-12.296175498193488
20
-2.5436369559525467
30
0
10
-12.352491186282242
20
-2.8223781181329666
30
0
10
-12.446580005961982
20
-3.0974792415057424
30
0
10
-12.568468167877105
20
-3.3556968007336612
30
0
10
-12.707919409359718
20
-3.5900572055400932
30
0
10
-12.858171303846085
20
-3.8043006839980902
30
0
10
-13.01564391220381
20
-4.0103204724531762
30
0
10
-13.178520239396398
20
-4.2237752626252707
30
0
10
-13.345767701504865
20
-4.4605196859776566
30
0
10
-13.515859867491095
20
-4.7322419613681346
30
0
10
-13.685991293542248
20
-5.0438724575246248
30
0
10
-13.852424072959696
20
-5.3954999787607427
30
0
10
-14.010633257966775
20
-5.7834759450996227
30
0
10
-14.155531951822313
20
-6.2018264784181367
30
0
10
-14.281660951285049
20
-6.6435610752249143
30
0
10
-14.383396886971321
20
-7.1019592040851007
30
0
10
-14.455143691922718
20
-7.572041410895002
30
0
10
-14.491611648077535
20
-8.0503431928542337
30
0
10
-14.488111076062605
20
-8.5343693003583567
30
0
10
-14.440840832704396
20
-9.0221600655918266
30
0
10
-14.347179631280937
20
-9.511809853437784
30
0
10
-14.205974978808404
20
-10.001008032236289
30
0
10
-14.017836289007377
20
-10.486565726313506
30
0
10
-13.785419284903689
20
-10.96395924340422
30
0
10
-13.513733816411658
20
-11.426837036129703
30
0
10
-13.209620710115978
20
-11.867774193784459
30
0
10
-12.881203652118982
20
-12.279064439328637
30
0
10
-12.537350430477519
20
-12.653497878242932
30
0
10
-12.187130190861817
20
-12.985145845358137
30
0
10
-11.839272734413846
20
-13.270140404214432
30
0
10
-11.501626245757212
20
-13.507461952071457
30
0
10
-11.180617221478666
20
-13.699710375340882
30
0
10
-10.880704648090472
20
-13.853919591331003
30
0
10
-10.60429411498783
20
-13.979826102731266
30
0
10
-10.351668236806976
20
-14.088116491131892
30
0
10
-10.120893241638818
20
-14.188644309298384
30
0
10
-9.9077757699049656
20
-14.288748156804097
30
0
10
-9.7056903446736538
20
-14.391290952255023
30
0
10
-9.5068376410714315
20
-14.495825168321794
30
0
10
-9.3036740161791815
20
-14.600132141454598
30
0
10
-9.0902779979211683
20
-14.701625275411237
30
0
10
-8.8637496827573194
20
-14.798817902294068
30
0
10
-8.6234485808928696
20
-14.891154792990607
30
0
10
-8.3702078203766597
20
-14.978850861010676
30
0
10
-8.1055921880338886
20
-15.06271726449101
30
0
10
-7.8310493903826481
20
-15.14401638963696
30
0
10
-7.5476695536526419
20
-15.224160282084426
30
0
10
-7.2561515534825105
20
-15.304365428326211
30
0
10
-6.9566923905026297
20
-15.385307677792541
30
0
10
-6.6489277378871243
20
-15.466809203279023
30
0
10
-6.3318007733418273
20
-15.547427785571822
30
0
10
-6.0038846733861426
20
-15.624805293168237
30
0
10
-5.66378999029435
20
-15.696168819967063
30
0
10
-5.310551397108803
20
-15.758785402475235
30
0
10
-4.9440040639027689
20
-15.810421859750301
30
0
10
-4.5652098622935267
20
-15.849836628684621
30
0
10
-4.1767277576643131
20
-15.877156363203571
30
0
10
-3.7819929964454184
20
-15.893573265518972
30
0
10
-3.3847977348091463
20
-15.901123588110872
30
0
10
-2.9887432402824881
20
-15.902435866334352
30
0
10
-2.5966796855177865
20
-15.900489715848952
30
0
10
-2.2102086456368077
20
-15.898375739625756
30
0
10
-1.8290101474248244
20
-15.899040529127866
30
0
10
-1.4512111447770815
20
-15.905130840379877
30
0
10
-1.0740965592848515
20
-15.918868689416975
30
0
10
-0.69469364882398754
20
-15.941919070983101
30
0
10
-0.31043752183406026
20
-15.975254079680472
30
0
10
0.080263741663060259
20
-16.019033899365457
30
0
10
0.47725941683457479
20
-16.072442594074495
30
0
10
0.87858443883256088
20
-16.133686521213576
30
0
10
1.2811941204184494
20
-16.200182923131784
30
0
10
1.681492414058948
20
-16.268699234258477
30
0
10
2.0759388800459675
20
-16.335512119032391
30
0
10
2.4616339155055407
20
-16.39655857964269
30
0
10
2.8368852025296798
20
-16.447589083331927
30
0
10
3.2018578056620726
20
-16.484323412930209
30
0
10
3.5581727463830806
20
-16.502556692190346
30
0
10
3.908387034159619
20
-16.498259531692621
30
0
10
4.2555159190247576
20
-16.467680235393544
30
0
10
4.6025379664131751
20
-16.407446329903884
30
0
10
4.9519061910969233
20
-16.314666037452774
30
0
10
5.3050602700240432
20
-16.187030795304423
30
0
10
5.6624979055551972
20
-16.022984369835616
30
0
10
6.0238404625691029
20
-15.821894816038604
30
0
10
6.3879018439238937
20
-15.584218917869038
30
0
10
6.7527532659778267
20
-15.311684751769029
30
0
10
7.1157958457798465
20
-15.00743212737687
30
0
10
7.4738149129958735
20
-14.676254720542143
30
0
10
7.8230910730952585
20
-14.324523372921437
30
0
10
8.1596385030558771
20
-13.959393132650417
30
0
10
8.4794167386549937
20
-13.588160210487509
30
0
10
8.7785544499799091
20
-13.217549624710266
30
0
10
9.053564819653996
20
-12.853054396508641
30
0
10
9.3015722008085042
20
-12.498201435558023
30
0
10
9.5205161039108006
20
-12.153968302173872
30
0
10
9.7094100710254434
20
-11.817833378375298
30
0
10
9.8683611269754881
20
-11.484434457187731
30
0
10
9.9984487241032394
20
-11.147193138822495
30
0
10
10.101646391712546
20
-10.799611460650393
30
0
10
10.180726396307989
20
-10.436776502349932
30
0
10
10.23917041834334
20
-10.05660812703708
30
0
10
10.281081055701765
20
-9.6616318809572697
30
0
10
10.311080404774751
20
-9.2588953198124919
30
0
10
10.334196211041872
20
-8.8579891207584858
30
0
10
10.355747479469738
20
-8.4695970722154712
30
0
10
10.381239059475957
20
-8.1037898213776334
30
0
10
10.41623229914074
20
-7.7685215873815041
30
0
10
10.466273994321488
20
-7.4678163635143902
30
0
10
10.536657705690104
20
-7.2007610691931863
30
0
10
10.631569617892209
20
-6.9636895348720307
30
0
10
10.753250847181379
20
-6.7520185531554073
30
0
10
10.901303725162121
20
-6.5619886683510096
30
0
10
11.071556494667931
20
-6.3930275898890878
30
0
10
11.25737298894699
20
-6.246398957583061
30
0
10
11.452042781653741
20
-6.1222055001999411
30
0
10
11.650619791661509
20
-6.017206401839708
30
0
10
11.852487059743025
20
-5.9216051935013914
30
0
10
12.060222156633502
20
-5.8209986801052125
30
0
10
12.277338336951431
20
-5.6999041330018843
30
0
10
12.506521212879784
20
-5.5445640284702948
30
0
10
12.747356517357842
20
-5.3465441694212048
30
0
10
12.996424465184564
20
-5.1024897074806574
30
0
10
13.247991775286547
20
-4.8128946047726648
30
0
10
13.494504849653806
20
-4.4812104472347665
30
0
10
13.72716430953491
20
-4.1127929558730951
30
0
10
13.93646814420546
20
-3.7139668196243889
30
0
10
14.112758765485438
20
-3.2909137362740841
30
0
10
14.246835244635591
20
-2.8495761334573153
30
0
10
14.330580771411645
20
-2.395809296964837
30
0
10
14.357595338376264
20
-1.9354530757304724
30
0
10
14.323802866211416
20
-1.4744293519213179
30
0
10
14.228123965583556
20
-1.0188467564901724
30
0
10
14.072993591861662
20
-0.57505952787192538
30
0
10
13.86526005009393
20
-0.14985175580677068
30
0
10
13.615682262576064
20
0.24984768405172242
30
0
10
13.337031601668933
20
0.61771454904679035
30
0
10
13.042549428387709
20
0.94866687691971574
30
0
10
12.744307046926915
20
1.2395183594395061
30
0
10
12.451497787172844
20
1.4896942978557848
30
0
10
12.169013794907062
20
1.70175954802734
30
0
10
11.895270835429013
20
1.8824245565453881
30
0
10
11.622728814229305
20
2.0418483261029658
30
0
10
11.341634141609054
20
2.1909028007939049
30
0
10
11.042908060834636
20
2.3389851389116942
30
0
10
10.721430788773459
20
2.4915598192373412
30
0
10
10.379043410149613
20
2.6479262126270604
30
0
10
10.027974923100976
20
2.7985955389426573
30
0
10
9.6863194456411001
20
2.9300334677205839
30
0
10
9.3733491443941315
20
3.0294691064495307
30
0
10
9.1045098233193826
20
3.090201458295974
30
0
10
8.8874044160044363
20
3.1155145873135388
30
0
10
8.7152596330948491
20
3.1260827477082125
30
0
10
8.5694149207967918
20
3.1549639464554624
30
0
10
8.4297662745757904
20
3.2320580922492366
30
0
10
8.2852434632376664
20
3.3678030821909499
30
0
10
8.1362162637289224
20
3.5505243075147064
30
0
10
7.9872535525157833
20
3.7596667056688804
30
0
10
7.8429524352907789
20
3.9739413609730363
30
0
10
7.7015803890918653
20
4.1832047792911773
30
0
10
7.5563268362767646
20
4.3869081133308665
30
0
10
7.3984039582994789
20
4.5892721182988341
30
0
10
7.2193356142461571
20
4.7958448072703144
30
0
10
7.0140701842005901
20
5.0087588944550552
30
0
10
6.7819076230130104
20
5.2252796537331836
30
0
10
6.5250870464138808
20
5.4398319183312003
30
0
10
6.2479658224044492
20
5.645144789217909
30
0
10
5.9559816691330481
20
5.8337311121345135
30
0
10
5.654653221952616
20
5.9992787567192272
30
0
10
5.348726263029981
20
6.137917082744778
30
0
10
5.0424472660662101
20
6.2483797817791125
30
0
10
4.7396927733065173
20
6.3322877358003797
30
0
10
4.4441649775454763
20
6.3944250299979997
30
0
10
4.1595355946291708
20
6.4429263535553378
30
0
10
3.8896745306483154
20
6.4897471022057562
30
0
10
3.6382167766976519
20
6.5485978004357817
30
0
10
3.4079722418360108
20
6.6322883772079848
30
0
10
3.200463752063492
20
6.7505159378566688
30
0
10
3.0152359992592537
20
6.906901694835776
30
0
10
2.8499317050515405
20
7.0984836658943884
30
0
10
2.7012914563302055
20
7.318009254945915
30
0
10
2.5658437639723615
20
7.5554816500071933
30
0
10
2.4408772496725719
20
7.8000535441310648
30
0
10
2.324813150404839
20
8.0416334743434668
30
0
10
2.2157750178819939
20
8.2719552414921456
30
0
10
2.1286360176022052
20
8.4487713421275306
30
0
10
2.0614141890552657
20
8.5741279657729681
30
0
10
2.0134556684628935
20
8.6561494598038742
30
0
10
1.9870815369756145
20
8.6989454333177605
30
0
10
1.9839345586320978
20
8.7040198558746873
30
0
0
ENDSEC
0
SECTION
2
OBJECTS
0
DICTIONARY
5
C
100
AcDbDictionary
3
ACAD_GROUP
350
D
3
ACAD_MLINESTYLE
350
17
0
DICTIONARY
5
D
100
AcDbDictionary
0
DICTIONARY
5
1A
330
C
100
AcDbDictionary
0
DICTIONARY
5
17
100
AcDbDictionary
0
ENDSEC
0
EOF
