0
SECTION
2
HEADER
9
$INSUNITS
70
4
9
$ACADVER
1
AC1014
9
$HANDSEED
5
FFFF
0
ENDSEC
0
SECTION
2
TABLES
0
TABLE
2
VPORT
5
8
100
AcDbSymbolTable
0
ENDTAB
0
TABLE
2
LTYPE
5
5
100
AcDbSymbolTable
0
LTYPE
5
14
100
AcDbSymbolTableRecord
100
AcDbLinetypeTableRecord
2
BYBLOCK
70
0
0
LTYPE
5
15
100
AcDbSymbolTableRecord
100
AcDbLinetypeTableRecord
2
BYLAYER
70
0
0
ENDTAB
0
TABLE
2
LAYER
5
2
100
AcDbSymbolTable
70
2
0
LAYER
5
50
100
AcDbSymbolTableRecord
100
AcDbLayerTableRecord
2
0
70
0
6
CONTINUOUS
0
ENDTAB
0
TABLE
2
STYLE
5
3
100
AcDbSymbolTable
70
1
0
STYLE
5
11
100
AcDbSymbolTableRecord
100
AcDbTextStyleTableRecord
2
STANDARD
70
0
0
ENDTAB
0
TABLE
2
VIEW
5
6
100
AcDbSymbolTable
70
0
0
ENDTAB
0
TABLE
2
UCS
5
7
100
AcDbSymbolTable
70
0
0
ENDTAB
0
TABLE
2
APPID
5
9
100
AcDbSymbolTable
70
2
0
APPID
5
12
100
AcDbSymbolTableRecord
100
AcDbRegAppTableRecord
2
ACAD
70
0
0
ENDTAB
0
TABLE
2
DIMSTYLE
5
A
100
AcDbSymbolTable
70
1
0
ENDTAB
0
TABLE
2
BLOCK_RECORD
5
1
100
AcDbSymbolTable
70
1
0
BLOCK_RECORD
5
1F
100
AcDbSymbolTableRecord
100
AcDbBlockTableRecord
2
*MODEL_SPACE
0
BLOCK_RECORD
5
1B
100
AcDbSymbolTableRecord
100
AcDbBlockTableRecord
2
*PAPER_SPACE
0
ENDTAB
0
ENDSEC
0
SECTION
2
BLOCKS
0
BLOCK
5
20
100
AcDbEntity
100
AcDbBlockBegin
2
*MODEL_SPACE
0
ENDBLK
5
21
100
AcDbEntity
100
AcDbBlockEnd
0
BLOCK
5
1C
100
AcDbEntity
100
AcDbBlockBegin
2
*PAPER_SPACE
0
ENDBLK
5
1D
100
AcDbEntity
100
AcDbBlockEnd
0
ENDSEC
0
SECTION
2
ENTITIES
0
SPLINE
5
100
100
AcDbEntity
8
0
100
AcDbSpline
70
6
71
5
72
76
73
70
74
0
42
0.000000001
43
0.0000000001
44
0.0000000001
40
0
40
0
40
0
40
0
40
0
40
0
40
0.015384615384615385
40
0.030769230769230771
40
0.046153846153846156
40
0.061538461538461542
40
0.076923076923076927
40
0.092307692307692313
40
0.1076923076923077
40
0.12307692307692308
40
0.13846153846153847
40
0.15384615384615385
40
0.16923076923076924
40
0.18461538461538463
40
0.20000000000000001
40
0.2153846153846154
40
0.23076923076923078
40
0.24615384615384617
40
0.26153846153846155
40
0.27692307692307694
40
0.29230769230769232
40
0.30769230769230771
40
0.32307692307692309
40
0.33846153846153848
40
0.35384615384615387
40
0.36923076923076925
40
0.38461538461538464
40
0.40000000000000002
40
0.41538461538461541
40
0.43076923076923079
40
0.44615384615384618
40
0.46153846153846156
40
0.47692307692307695
40
0.49230769230769234
40
0.50769230769230766
40
0.52307692307692299
40
0.53846153846153832
40
0.55384615384615365
40
0.56923076923076898
40
0.58461538461538431
40
0.59999999999999964
40
0.61538461538461497
40
0.6307692307692303
40
0.64615384615384563
40
0.66153846153846096
40
0.67692307692307629
40
0.69230769230769162
40
0.70769230769230695
40
0.72307692307692228
40
0.73846153846153761
40
0.75384615384615294
40
0.76923076923076827
40
0.7846153846153836
40
0.79999999999999893
40
0.81538461538461426
40
0.83076923076922959
40
0.84615384615384492
40
0.86153846153846025
40
0.87692307692307558
40
0.89230769230769091
40
0.90769230769230624
40
0.92307692307692157
40
0.9384615384615369
40
0.95384615384615223
40
0.96923076923076756
40
0.98461538461538289
40
1
40
1
40
1
40
1
40
1
40
1
41
1
41
1
41
1
41
1
41
1
41
1
41
1
41
1
41
1
41
1
41
1
41
1
41
1
41
1
41
1
41
1
41
1
41
1
41
1
41
1
41
1
41
1
41
1
41
1
41
1
41
1
41
1
41
1
41
1
41
1
41
1
41
1
41
1
41
1
41
1
41
1
41
1
41
1
41
1
41
1
41
1
41
1
41
1
41
1
41
1
41
1
41
1
41
1
41
1
41
1
41
1
41
1
41
1
41
1
41
1
41
1
41
1
41
1
41
1
41
1
41
1
41
1
41
1
41
1
41
1
41
1
41
1
41
1
41
1
41
1
10
9.248598186968815
20
0.57054619181404809
30
0
10
9.3050772842329863
20
0.55563218411368887
30
0
10
9.4155488583991378
20
0.52373430923398123
30
0
10
9.5734216319398087
20
0.47010581721453082
30
0
10
9.7685177749071119
20
0.38906982984636307
30
0
10
9.9932775205920041
20
0.27745166986227388
30
0
10
10.208494819299123
20
0.16047470092055477
30
0
10
10.42373142339213
20
0.041334509121307914
30
0
10
10.645858396970556
20
-0.079504851841713492
30
0
10
10.875540108104184
20
-0.20580167314653802
30
0
10
11.107608110285906
20
-0.34456606035934956
30
0
10
11.333352435140123
20
-0.50388615508656176
30
0
10
11.542221881364444
20
-0.69110566980528376
30
0
10
11.723727637560826
20
-0.91091880660673474
30
0
10
11.869349629771687
20
-1.1633458238217569
30
0
10
11.974178775727937
20
-1.4421973480043493
30
0
10
12.036332911522152
20
-1.737326369289157
30
0
10
12.056602487044337
20
-2.0364518322949214
30
0
10
12.038028521367664
20
-2.3272090306313409
30
0
10
11.985476964735364
20
-2.598950770868476
30
0
10
11.905306962042584
20
-2.8450246793444425
30
0
10
11.804708676236375
20
-3.0636107401324244
30
0
10
11.690483797756105
20
-3.2558960621353252
30
0
10
11.567846061192316
20
-3.4247858375412328
30
0
10
11.439429522781388
20
-3.5735049354827582
30
0
10
11.30367407368626
20
-3.704000295584446
30
0
10
11.155540683977776
20
-3.8163786990422595
30
0
10
10.989980742681276
20
-3.9095420178871363
30
0
10
10.804418442018854
20
-3.9815053291944795
30
0
10
10.602216110652689
20
-4.029834280372123
30
0
10
10.393929339661073
20
-4.0520574377739624
30
0
10
10.192323865991643
20
-4.0461866697630864
30
0
10
10.008388100196044
20
-4.0112241794215011
30
0
10
9.8471233857769835
20
-3.9476537791563064
30
0
10
9.7029653185062941
20
-3.8580026983916293
30
0
10
9.5635823396483701
20
-3.7462863392116832
30
0
10
9.4145206899064267
20
-3.6173532862824183
30
0
10
9.2432799831127852
20
-3.47628696212267
30
0
10
9.0442812708272982
20
-3.3277363619913092
30
0
10
8.8181868443217226
20
-3.1756696279830776
30
0
10
8.5700181318054263
20
-3.0232216022013771
30
0
10
8.3076689715426362
20
-2.8724993654040794
30
0
10
8.0403110785148488
20
-2.724423479411846
30
0
10
7.7767238049023089
20
-2.5785050611495466
30
0
10
7.5240416847545166
20
-2.4327928364783995
30
0
10
7.2882720276700832
20
-2.2844803835392602
30
0
10
7.0745207309825107
20
-2.1304034875501037
30
0
10
6.8873646655735872
20
-1.9675968088844469
30
0
10
6.7310824028847973
20
-1.7937860056522656
30
0
10
6.6101409012111674
20
-1.6080074589928079
30
0
10
6.5286403504433279
20
-1.4107080771324547
30
0
10
6.4891144236207197
20
-1.2035341449062706
30
0
10
6.4915540286782027
20
-0.98921430790575349
30
0
10
6.5322658365413062
20
-0.77141005722391254
30
0
10
6.6029839608288761
20
-0.55456959263752226
30
0
10
6.6936839299681408
20
-0.34354258484760708
30
0
10
6.795373652106993
20
-0.14319744558524933
30
0
10
6.9026082433418967
20
0.041939059347531546
30
0
10
7.0167980909770282
20
0.20810712807301956
30
0
10
7.1469926495303406
20
0.35253284223626064
30
0
10
7.3049432218362789
20
0.47317680716572635
30
0
10
7.5012302457249458
20
0.56857343170515096
30
0
10
7.7411585615098941
20
0.63764629740822931
30
0
10
8.0202374380794836
20
0.67950579811909606
30
0
10
8.3267575111672212
20
0.69365068867137214
30
0
10
8.6451812731687774
20
0.68021833822580247
30
0
10
8.8964219179951449
20
0.6482181121435161
30
0
10
9.0766742748140761
20
0.61321835543614012
30
0
10
9.1921190897046312
20
0.58546019951440909
30
0
10
9.248598186968815
20
0.57054619181404809
30
0
0
LINE
5
101
100
AcDbEntity
8
0
100
AcDbLine
10
-6.2016506596654075
20
-0.61544015378200578
30
0
11
-6.2016506596654075
21
-1.6412904422216514
31
0
0
ARC
5
102
100
AcDbEntity
8
0
100
AcDbCircle
10
-5.7846839036503113
20
4.6938952197761532
30
0
40
0.19039900438215965
210
0
220
0
230
1
100
AcDbArc
50
271.83162258040539
51
357.99644093018259
0
ARC
5
103
100
AcDbEntity
8
0
100
AcDbCircle
10
0.72626928041255934
20
4.5874490144640854
30
0
40
0.16594080568425842
210
0
220
0
230
1
100
AcDbArc
50
187.37685647635615
51
267.65980568788274
0
SPLINE
5
104
100
AcDbEntity
8
0
100
AcDbSpline
70
4
71
5
72
51
73
45
74
0
42
0.000000001
43
0.0000000001
44
0.0000000001
40
0.022224331234891679
40
0.022224331234891679
40
0.022224331234891679
40
0.022224331234891679
40
0.022224331234891679
40
0.022224331234891679
40
0.025000000000000001
40
0.050000000000000003
40
0.075000000000000011
40
0.10000000000000001
40
0.125
40
0.14999999999999999
40
0.17499999999999999
40
0.19999999999999998
40
0.22499999999999998
40
0.24999999999999997
40
0.27499999999999997
40
0.29999999999999999
40
0.32500000000000001
40
0.35000000000000003
40
0.37500000000000006
40
0.40000000000000008
40
0.4250000000000001
40
0.45000000000000012
40
0.47500000000000014
40
0.50000000000000011
40
0.52500000000000013
40
0.55000000000000016
40
0.57500000000000018
40
0.6000000000000002
40
0.62500000000000022
40
0.65000000000000024
40
0.67500000000000027
40
0.70000000000000029
40
0.72500000000000031
40
0.75000000000000033
40
0.77500000000000036
40
0.80000000000000038
40
0.8250000000000004
40
0.85000000000000042
40
0.87500000000000044
40
0.90000000000000047
40
0.92500000000000049
40
0.95000000000000051
40
0.97500000000000053
40
0.98333029152510898
40
0.98333029152510898
40
0.98333029152510898
40
0.98333029152510898
40
0.98333029152510898
40
0.98333029152510898
41
1
41
1
41
1
41
1
41
1
41
1
41
1
41
1
41
1
41
1
41
1
41
1
41
1
41
1
41
1
41
1
41
1
41
1
41
1
41
1
41
1
41
1
41
1
41
1
41
1
41
1
41
1
41
1
41
1
41
1
41
1
41
1
41
1
41
1
41
1
41
1
41
1
41
1
41
1
41
1
41
1
41
1
41
1
41
1
41
1
10
-5.5944014254360646
20
4.6871343742811327
30
0
10
-5.5943959199339339
20
4.6916425025015709
30
0
10
-5.5943472699088526
20
4.7367250910319534
30
0
10
-5.594376586353194
20
4.8218241231335837
30
0
10
-5.594737285930071
20
4.9456753322137263
30
0
10
-5.5956373101799075
20
5.1063972321252518
30
0
10
-5.5960716598321181
20
5.2979659508475194
30
0
10
-5.5932184027580796
20
5.4870112697483284
30
0
10
-5.5826169584939835
20
5.6759132461223469
30
0
10
-5.5587180204567428
20
5.867460755058163
30
0
10
-5.5157963823118852
20
6.0641468135408774
30
0
10
-5.4487536680422632
20
6.2675394500404114
30
0
10
-5.3540956979658505
20
6.4775304525756985
30
0
10
-5.2297156803221432
20
6.6924030046495435
30
0
10
-5.074452616445714
20
6.9090451095142793
30
0
10
-4.8877443709587078
20
7.1231120603975571
30
0
10
-4.6692214558051548
20
7.3291915398818555
30
0
10
-4.4184012201342284
20
7.5210007757738015
30
0
10
-4.1352222264426759
20
7.6920469746433007
30
0
10
-3.820504951234108
20
7.8362375982772923
30
0
10
-3.4764681423518846
20
7.94853481793856
30
0
10
-3.1071782504989178
20
8.0255449188589782
30
0
10
-2.7191593716907252
20
8.0662684120176067
30
0
10
-2.3215601892197175
20
8.0724008067033441
30
0
10
-1.9249902973584097
20
8.0472835160341099
30
0
10
-1.5405899773129186
20
7.9950915751478568
30
0
10
-1.1790248985427845
20
7.9199524907967591
30
0
10
-0.84948056842896036
20
7.8250565649138126
30
0
10
-0.55872296321719384
20
7.7118654863476355
30
0
10
-0.30992948303612011
20
7.5790231598974707
30
0
10
-0.10313179102653267
20
7.4233917054852014
30
0
10
0.063987928482759276
20
7.2415473011387181
30
0
10
0.1954306443442379
20
7.0311487647327287
30
0
10
0.29618103952436037
20
6.7922919073676482
30
0
10
0.37150195891093951
20
6.5290729871294415
30
0
10
0.42662797007860898
20
6.248500778705921
30
0
10
0.46651500759271958
20
5.9591407934182294
30
0
10
0.49555889404203746
20
5.6698236605574026
30
0
10
0.51735187784312198
20
5.388423112852494
30
0
10
0.53435424405521648
20
5.1203624031920212
30
0
10
0.54620401236644645
20
4.9023280504676983
30
0
10
0.5538817748239907
20
4.7446223084698076
30
0
10
0.55860460543267254
20
4.639234585244191
30
0
10
0.56109393864678492
20
4.5806549168881485
30
0
10
0.56170306214360055
20
4.5661164780100343
30
0
0
SPLINE
5
105
100
AcDbEntity
8
0
100
AcDbSpline
70
4
71
5
72
31
73
25
74
0
42
0.000000001
43
0.0000000001
44
0.0000000001
40
0
40
0
40
0
40
0
40
0
40
0
40
0.050000000000000003
40
0.10000000000000001
40
0.15000000000000002
40
0.20000000000000001
40
0.25
40
0.29999999999999999
40
0.34999999999999998
40
0.39999999999999997
40
0.44999999999999996
40
0.49999999999999994
40
0.54999999999999993
40
0.59999999999999998
40
0.65000000000000002
40
0.70000000000000007
40
0.75000000000000011
40
0.80000000000000016
40
0.8500000000000002
40
0.90000000000000024
40
0.95000000000000029
40
1
40
1
40
1
40
1
40
1
40
1
41
1
41
1
41
1
41
1
41
1
41
1
41
1
41
1
41
1
41
1
41
1
41
1
41
1
41
1
41
1
41
1
41
1
41
1
41
1
41
1
41
1
41
1
41
1
41
1
41
1
10
-5.7172153262693648
20
-6.5402189873547449
30
0
10
-5.7165065513172486
20
-6.5729446358214352
30
0
10
-5.715106685215952
20
-6.6373911690060785
30
0
10
-5.7130599341684416
20
-6.7310467084574741
30
0
10
-5.7104374906836721
20
-6.8498673723442671
30
0
10
-5.7073358182076106
20
-6.9882244251414303
30
0
10
-5.7044028995189811
20
-7.116423254278863
30
0
10
-5.7016189343865147
20
-7.2346935972737274
30
0
10
-5.698949235727893
20
-7.3435977281534068
30
0
10
-5.6963332702140548
20
-7.4442179766279573
30
0
10
-5.6936992426219044
20
-7.5381526430161951
30
0
10
-5.6910169343228532
20
-7.627205624078039
30
0
10
-5.6883458877216881
20
-7.713146755329225
30
0
10
-5.685878676623747
20
-7.7974744902942881
30
0
10
-5.6840080717147501
20
-7.881119114058567
30
0
10
-5.6833123751107886
20
-7.9643895895014749
30
0
10
-5.6844485484484428
20
-8.0472025452082558
30
0
10
-5.6880658519969609
20
-8.1292361939339077
30
0
10
-5.6947185845039749
20
-8.2100989703797858
30
0
10
-5.7047527808222362
20
-8.2895197394183615
30
0
10
-5.7183273518892239
20
-8.3673644171152262
30
0
10
-5.732056172978317
20
-8.4283362644188813
30
0
10
-5.7439596648298448
20
-8.4733304087467918
30
0
10
-5.7526066359826391
20
-8.5030012156684869
30
0
10
-5.7571079464151858
20
-8.5177553005662912
30
0
0
SPLINE
5
106
100
AcDbEntity
8
0
100
AcDbSpline
70
4
71
5
72
46
73
40
74
0
42
0.000000001
43
0.0000000001
44
0.0000000001
40
0
40
0
40
0
40
0
40
0
40
0
40
0.028571428571428571
40
0.057142857142857141
40
0.085714285714285715
40
0.11428571428571428
40
0.14285714285714285
40
0.17142857142857143
40
0.20000000000000001
40
0.22857142857142859
40
0.25714285714285717
40
0.28571428571428575
40
0.31428571428571433
40
0.34285714285714292
40
0.3714285714285715
40
0.40000000000000008
40
0.42857142857142866
40
0.45714285714285724
40
0.48571428571428582
40
0.51428571428571435
40
0.54285714285714293
40
0.57142857142857151
40
0.60000000000000009
40
0.62857142857142867
40
0.65714285714285725
40
0.68571428571428583
40
0.71428571428571441
40
0.74285714285714299
40
0.77142857142857157
40
0.80000000000000016
40
0.82857142857142874
40
0.85714285714285732
40
0.8857142857142859
40
0.91428571428571448
40
0.94285714285714306
40
0.97142857142857164
40
1
40
1
40
1
40
1
40
1
40
1
41
1
41
1
41
1
41
1
41
1
41
1
41
1
41
1
41
1
41
1
41
1
41
1
41
1
41
1
41
1
41
1
41
1
41
1
41
1
41
1
41
1
41
1
41
1
41
1
41
1
41
1
41
1
41
1
41
1
41
1
41
1
41
1
41
1
41
1
41
1
41
1
41
1
41
1
41
1
41
1
10
-5.7571079464151858
20
-8.5177553005662912
30
0
10
-5.7621415402568035
20
-8.528860167690711
30
0
10
-5.7747942335509874
20
-8.5491057235092214
30
0
10
-5.8015299098559616
20
-8.5735814170202236
30
0
10
-5.85271034975014
20
-8.5944156289671447
30
0
10
-5.9423045360992921
20
-8.6009277295408353
30
0
10
-6.0564794901799708
20
-8.5884937030638202
30
0
10
-6.1930308435634975
20
-8.5583754692220353
30
0
10
-6.3480463480694471
20
-8.5128654000930162
30
0
10
-6.5160534282907836
20
-8.455027402299498
30
0
10
-6.6904373825631733
20
-8.3881840440431166
30
0
10
-6.8637700966476682
20
-8.3155039861871352
30
0
10
-7.0281563951906021
20
-8.2395159225828856
30
0
10
-7.1756008723675784
20
-8.161727956698746
30
0
10
-7.2982882569010972
20
-8.08200980661762
30
0
10
-7.3891976429416264
20
-7.9987983557282663
30
0
10
-7.4430105736589525
20
-7.9101042354400999
30
0
10
-7.457028330116926
20
-7.8143523784993993
30
0
10
-7.4319331062636431
20
-7.7111772994829675
30
0
10
-7.3730591323277261
20
-7.6025280886320168
30
0
10
-7.2895832405963654
20
-7.4923750983395507
30
0
10
-7.1923453038867544
20
-7.385479106764592
30
0
10
-7.0920223044510031
20
-7.2864041425758437
30
0
10
-6.9973097903476136
20
-7.198521599574069
30
0
10
-6.9127345256757069
20
-7.1227924373178588
30
0
10
-6.8377854286263551
20
-7.0573552458158755
30
0
10
-6.7689660600741259
20
-6.9988968695033176
30
0
10
-6.7012874540568586
20
-6.9436935850616095
30
0
10
-6.6298463360753939
20
-6.8886782356035798
30
0
10
-6.5516805449488471
20
-6.832749347045139
30
0
10
-6.4658822794411899
20
-6.7766869916981936
30
0
10
-6.3728116414513565
20
-6.7223577724542345
30
0
10
-6.2735997399594714
20
-6.6721466750987348
30
0
10
-6.1695456392955803
20
-6.628308346195535
30
0
10
-6.0615394178325479
20
-6.5923258100537847
30
0
10
-5.9501186106824182
20
-6.5650498368238139
30
0
10
-5.8584739750904742
20
-6.5505131099239104
30
0
10
-5.7883749548021788
20
-6.5437560281961424
30
0
10
-5.7410362141467886
20
-6.5410913318650499
30
0
10
-5.7172153262693648
20
-6.5402189873547449
30
0
0
SPLINE
5
107
100
AcDbEntity
8
0
100
AcDbSpline
70
4
71
5
72
106
73
100
74
0
42
0.000000001
43
0.0000000001
44
0.0000000001
40
0
40
0
40
0
40
0
40
0
40
0
40
0.010526315789473684
40
0.021052631578947368
40
0.031578947368421054
40
0.042105263157894736
40
0.052631578947368418
40
0.063157894736842107
40
0.073684210526315796
40
0.084210526315789486
40
0.094736842105263175
40
0.10526315789473686
40
0.11578947368421055
40
0.12631578947368424
40
0.13684210526315793
40
0.14736842105263162
40
0.15789473684210531
40
0.168421052631579
40
0.17894736842105269
40
0.18947368421052638
40
0.20000000000000007
40
0.21052631578947376
40
0.22105263157894744
40
0.23157894736842113
40
0.24210526315789482
40
0.25263157894736848
40
0.26315789473684215
40
0.27368421052631581
40
0.28421052631578947
40
0.29473684210526313
40
0.30526315789473679
40
0.31578947368421045
40
0.32631578947368411
40
0.33684210526315778
40
0.34736842105263144
40
0.3578947368421051
40
0.36842105263157876
40
0.37894736842105242
40
0.38947368421052608
40
0.39999999999999974
40
0.41052631578947341
40
0.42105263157894707
40
0.43157894736842073
40
0.44210526315789439
40
0.45263157894736805
40
0.46315789473684171
40
0.47368421052631537
40
0.48421052631578904
40
0.4947368421052627
40
0.50526315789473641
40
0.51578947368421013
40
0.52631578947368385
40
0.53684210526315757
40
0.54736842105263128
40
0.557894736842105
40
0.56842105263157872
40
0.57894736842105243
40
0.58947368421052615
40
0.59999999999999987
40
0.61052631578947358
40
0.6210526315789473
40
0.63157894736842102
40
0.64210526315789473
40
0.65263157894736845
40
0.66315789473684217
40
0.67368421052631589
40
0.6842105263157896
40
0.69473684210526332
40
0.70526315789473704
40
0.71578947368421075
40
0.72631578947368447
40
0.73684210526315819
40
0.7473684210526319
40
0.75789473684210562
40
0.76842105263157934
40
0.77894736842105305
40
0.78947368421052677
40
0.80000000000000049
40
0.81052631578947421
40
0.82105263157894792
40
0.83157894736842164
40
0.84210526315789536
40
0.85263157894736907
40
0.86315789473684279
40
0.87368421052631651
40
0.88421052631579022
40
0.89473684210526394
40
0.90526315789473766
40
0.91578947368421137
40
0.92631578947368509
40
0.93684210526315881
40
0.94736842105263253
40
0.95789473684210624
40
0.96842105263157996
40
0.97894736842105368
40
0.98947368421052739
40
1
40
1
40
1
40
1
40
1
40
1
41
1
41
1
41
1
41
1
41
1
41
1
41
1
41
1
41
1
41
1
41
1
41
1
41
1
41
1
41
1
41
1
41
1
41
1
41
1
41
1
41
1
41
1
41
1
41
1
41
1
41
1
41
1
41
1
41
1
41
1
41
1
41
1
41
1
41
1
41
1
41
1
41
1
41
1
41
1
41
1
41
1
41
1
41
1
41
1
41
1
41
1
41
1
41
1
41
1
41
1
41
1
41
1
41
1
41
1
41
1
41
1
41
1
41
1
41
1
41
1
41
1
41
1
41
1
41
1
41
1
41
1
41
1
41
1
41
1
41
1
41
1
41
1
41
1
41
1
41
1
41
1
41
1
41
1
41
1
41
1
41
1
41
1
41
1
41
1
41
1
41
1
41
1
41
1
41
1
41
1
41
1
41
1
41
1
41
1
41
1
41
1
41
1
41
1
41
1
41
1
10
0.5000000074505806
20
-5.5000000819563866
30
0
10
0.53178115492234912
20
-5.4983768615993567
30
0
10
0.59697758255541644
20
-5.4975023494692801
30
0
10
0.69967437983932024
20
-5.503306980540966
30
0
10
0.84641162532718262
20
-5.5252765301815909
30
0
10
1.0458014673962688
20
-5.5770244889518832
30
0
10
1.260045278135467
20
-5.6546404612409944
30
0
10
1.4868202446377561
20
-5.761473432479006
30
0
10
1.7228617508231128
20
-5.9015121381551499
30
0
10
1.9644957193241173
20
-6.0775711463532511
30
0
10
2.2080047320474674
20
-6.2899195168603299
30
0
10
2.4502447671807039
20
-6.5342198268751286
30
0
10
2.6884899894655456
20
-6.8016081395142978
30
0
10
2.9193391698789273
20
-7.0814114689792298
30
0
10
3.1378333861123622
20
-7.3632282468768722
30
0
10
3.3365393619949577
20
-7.6392068794354993
30
0
10
3.5045232227015095
20
-7.9063817318514049
30
0
10
3.6267124550140402
20
-8.1685904160779579
30
0
10
3.6876517374805271
20
-8.4330801295934208
30
0
10
3.675168206145365
20
-8.7073218532528198
30
0
10
3.5836533201928318
20
-8.996067215620263
30
0
10
3.418549829290729
20
-9.2975067320159486
30
0
10
3.1951080189578667
20
-9.6038048221195496
30
0
10
2.9341439055651568
20
-9.9039339954586083
30
0
10
2.6587103879419764
20
-10.185809229896673
30
0
10
2.3904508662298323
20
-10.438666654313755
30
0
10
2.145949969399028
20
-10.655443826768472
30
0
10
1.9334874618220963
20
-10.834855219179572
30
0
10
1.7543222707552348
20
-10.980163091460467
30
0
10
1.6035083612193755
20
-11.098233651045897
30
0
10
1.4710272779356184
20
-11.198498061787252
30
0
10
1.3424141205130367
20
-11.291927567123528
30
0
10
1.2072657546864725
20
-11.390512344870933
30
0
10
1.0677602088765406
20
-11.506719127715359
30
0
10
0.94807276294578235
20
-11.653081066349531
30
0
10
0.88193318127491527
20
-11.839403940070913
30
0
10
0.90019878071587411
20
-12.070172015170558
30
0
10
1.0162506912153142
20
-12.341213675049074
30
0
10
1.2269299660375326
20
-12.64113931631989
30
0
10
1.5180004936792193
20
-12.954138120358598
30
0
10
1.8681156169571387
20
-13.262341170724824
30
0
10
2.2533144214691543
20
-13.548302653831577
30
0
10
2.6515021932348741
20
-13.797575717670423
30
0
10
3.0463039741257552
20
-14.000818978814117
30
0
10
3.4261631391493541
20
-14.152673571701568
30
0
10
3.7839800263456964
20
-14.251014782052078
30
0
10
4.116557731053323
20
-14.296043054296167
30
0
10
4.4241038006516522
20
-14.289488003990114
30
0
10
4.7097809925672598
20
-14.233663428807141
30
0
10
4.9790238554440478
20
-14.130903064789678
30
0
10
5.2380994665211942
20
-13.984160037507172
30
0
10
5.4927234327815277
20
-13.797457810666369
30
0
10
5.7468075109925252
20
-13.576308466650914
30
0
10
6.0007726714007168
20
-13.32837162995494
30
0
10
6.2517093890768312
20
-13.063017774042683
30
0
10
6.4948672659914504
20
-12.790094047746832
30
0
10
6.7247702704793504
20
-12.518913735257316
30
0
10
6.9364467383329007
20
-12.257179045494258
30
0
10
7.1267020503592535
20
-12.009870585710773
30
0
10
7.2951026738255118
20
-11.778331481027326
30
0
10
7.4430807707763202
20
-11.560682281685807
30
0
10
7.5732490453850136
20
-11.352040205973093
30
0
10
7.6886622858757008
20
-11.144887673501918
30
0
10
7.7920340565111523
20
-10.929181381141921
30
0
10
7.885402509102545
20
-10.693894657856205
30
0
10
7.9699284827321151
20
-10.429125388278768
30
0
10
8.0456880243431108
20
-10.127810774870703
30
0
10
8.1113714417359226
20
-9.7881023244614056
30
0
10
8.1644474356671441
20
-9.4132499709304458
30
0
10
8.2016632485799761
20
-9.0097831238861605
30
0
10
8.2194368531253694
20
-8.586220651906082
30
0
10
8.2143096541337677
20
-8.1515124007765198
30
0
10
8.1833354935339813
20
-7.7137179951272374
30
0
10
8.1245930853418216
20
-7.2782756731181832
30
0
10
8.0371583208866149
20
-6.8480136487443222
30
0
10
7.920803278295347
20
-6.4240376157160384
30
0
10
7.7757813829339657
20
-6.0063432479105057
30
0
10
7.6025766213423456
20
-5.5945432383328786
30
0
10
7.4016700491540366
20
-5.1885413623286691
30
0
10
7.1732952372315957
20
-4.7892373740395904
30
0
10
6.9172088566996068
20
-4.3991968943765505
30
0
10
6.6330126009330517
20
-4.0221463897412182
30
0
10
6.3204637042575023
20
-3.6624922956186929
30
0
10
5.979790092640604
20
-3.3248314885790791
30
0
10
5.6120032637133725
20
-3.0134663421617134
30
0
10
5.2192142696363355
20
-2.731916035865511
30
0
10
4.8049455761965714
20
-2.4824327549667542
30
0
10
4.3744557968469309
20
-2.2655042919173649
30
0
10
3.9342433071815304
20
-2.08021629029935
30
0
10
3.4915368625666159
20
-1.9246275118135239
30
0
10
3.0537938022609126
20
-1.7961380959854092
30
0
10
2.6281905327604687
20
-1.6918630811559323
30
0
10
2.2211273865027694
20
-1.6089964448056413
30
0
10
1.8377002141773111
20
-1.5451954552411706
30
0
10
1.4812623649995913
20
-1.4989092445488128
30
0
10
1.1538214597510623
20
-1.4691948280041303
30
0
10
0.91585630578473198
20
-1.4583002528314175
30
0
10
0.75101925191987651
20
-1.4572983092868577
30
0
10
0.6471875197062037
20
-1.4598160351349641
30
0
10
0.59678656718035994
20
-1.4618713174653881
30
0
0
SPLINE
5
108
100
AcDbEntity
8
0
100
AcDbSpline
70
4
71
5
72
70
73
64
74
0
42
0.000000001
43
0.0000000001
44
0.0000000001
40
0
40
0
40
0
40
0
40
0
40
0
40
0.015384615384615385
40
0.030769230769230771
40
0.046153846153846156
40
0.061538461538461542
40
0.076923076923076927
40
0.092307692307692313
40
0.1076923076923077
40
0.12307692307692308
40
0.13846153846153847
40
0.15384615384615385
40
0.16923076923076924
40
0.18461538461538463
40
0.20000000000000001
40
0.2153846153846154
40
0.23076923076923078
40
0.24615384615384617
40
0.26153846153846155
40
0.27692307692307694
40
0.29230769230769232
40
0.30769230769230771
40
0.32307692307692309
40
0.33846153846153848
40
0.35384615384615387
40
0.36923076923076925
40
0.38461538461538464
40
0.40000000000000002
40
0.41538461538461541
40
0.43076923076923079
40
0.44615384615384618
40
0.46153846153846156
40
0.47692307692307695
40
0.49230769230769234
40
0.50769230769230766
40
0.52307692307692299
40
0.53846153846153832
40
0.55384615384615365
40
0.56923076923076898
40
0.58461538461538431
40
0.59999999999999964
40
0.61538461538461497
40
0.6307692307692303
40
0.64615384615384563
40
0.66153846153846096
40
0.67692307692307629
40
0.69230769230769162
40
0.70769230769230695
40
0.72307692307692228
40
0.73846153846153761
40
0.75384615384615294
40
0.76923076923076827
40
0.7846153846153836
40
0.79999999999999893
40
0.81538461538461426
40
0.83076923076922959
40
0.84615384615384492
40
0.86153846153846025
40
0.87692307692307558
40
0.89230769230769091
40
0.89821244221267715
40
0.89821244221267715
40
0.89821244221267715
40
0.89821244221267715
40
0.89821244221267715
40
0.89821244221267715
41
1
41
1
41
1
41
1
41
1
41
1
41
1
41
1
41
1
41
1
41
1
41
1
41
1
41
1
41
1
41
1
41
1
41
1
41
1
41
1
41
1
41
1
41
1
41
1
41
1
41
1
41
1
41
1
41
1
41
1
41
1
41
1
41
1
41
1
41
1
41
1
41
1
41
1
41
1
41
1
41
1
41
1
41
1
41
1
41
1
41
1
41
1
41
1
41
1
41
1
41
1
41
1
41
1
41
1
41
1
41
1
41
1
41
1
41
1
41
1
41
1
41
1
41
1
41
1
10
-6.2016506596654075
20
-1.6412904422216514
30
0
10
-6.2853001936077222
20
-1.6712326104758204
30
0
10
-6.452235757623729
20
-1.7332150201186232
30
0
10
-6.7015483016722408
20
-1.8324826500019324
30
0
10
-7.0317850994908806
20
-1.9774341393507515
30
0
10
-7.4411654286368858
20
-2.1798248307082377
30
0
10
-7.8478383488935544
20
-2.404032117442902
30
0
10
-8.2531443348669633
20
-2.6511921200235422
30
0
10
-8.6595205726200568
20
-2.9233043701069588
30
0
10
-9.0695852748473165
20
-3.222604372643592
30
0
10
-9.4844878144983973
20
-3.5504174757218343
30
0
10
-9.902360858094454
20
-3.9060895581173742
30
0
10
-10.316993731066217
20
-4.2860613877192462
30
0
10
-10.715717966762986
20
-4.6824189772764848
30
0
10
-11.082235805564904
20
-5.0847452748878101
30
0
10
-11.40082297423049
20
-5.4828995470573467
30
0
10
-11.660239560879688
20
-5.869581188047488
30
0
10
-11.857385527738513
20
-6.2427692321090111
30
0
10
-12.002090827167731
20
-6.6087981017710353
30
0
10
-12.11082389369153
20
-6.9791680190927927
30
0
10
-12.19850821548822
20
-7.3663059061753771
30
0
10
-12.271249737162595
20
-7.7797968800259589
30
0
10
-12.318024152016276
20
-8.2221570092933423
30
0
10
-12.316980790835448
20
-8.6902252635318806
30
0
10
-12.242965572439902
20
-9.1769316399655949
30
0
10
-12.073988590397599
20
-9.6728436938515543
30
0
10
-11.799609893338479
20
-10.167994922034968
30
0
10
-11.422339168150062
20
-10.652779546667571
30
0
10
-10.953344859092795
20
-11.118111310473452
30
0
10
-10.409834678788881
20
-11.555786928337684
30
0
10
-9.8116759094735304
20
-11.95877646606251
30
0
10
-9.1785480900125229
20
-12.321525032104386
30
0
10
-8.5263553970795485
20
-12.640308680390383
30
0
10
-7.8670679706876161
20
-12.913231314186769
30
0
10
-7.2097665092178875
20
-13.140095178204188
30
0
10
-6.5612775778947343
20
-13.322303513605856
30
0
10
-5.9270031697139656
20
-13.462780982717138
30
0
10
-5.3116001363962617
20
-13.565824304405476
30
0
10
-4.7198789099488234
20
-13.63714488361307
30
0
10
-4.1570418414354444
20
-13.683260433226167
30
0
10
-3.6280507566462692
20
-13.71003961912656
30
0
10
-3.1371886081412299
20
-13.721385694647928
30
0
10
-2.6875812147953293
20
-13.718010179533131
30
0
10
-2.2806384125095707
20
-13.695806354331648
30
0
10
-1.9158525110314626
20
-13.645606806658039
30
0
10
-1.5912880693069242
20
-13.555542533947376
30
0
10
-1.3039177966075095
20
-13.412797111832045
30
0
10
-1.0500119254896623
20
-13.205660825575638
30
0
10
-0.82552825211658976
20
-12.925118080770059
30
0
10
-0.62651108241256082
20
-12.566202939018718
30
0
10
-0.44951262232141109
20
-12.129595284883408
30
0
10
-0.2919299374049803
20
-11.622658666629569
30
0
10
-0.15179104835719101
20
-11.057068773947217
30
0
10
-0.0276055374485513
20
-10.446849129296591
30
0
10
0.081812035519602797
20
-9.8062139566875572
30
0
10
0.17749992606052453
20
-9.147589929345072
30
0
10
0.26053288039014227
20
-8.4793081546149587
30
0
10
0.33200729375525129
20
-7.8060530894827309
30
0
10
0.39299621304999433
20
-7.1297364452885903
30
0
10
0.43816650595304546
20
-6.5339521813414567
30
0
10
0.46813771223820433
20
-6.0714249943939347
30
0
10
0.48700026801918694
20
-5.7438268019754162
30
0
10
0.49722078202675368
20
-5.5529846101542892
30
0
10
0.50000000745233453
20
-5.5000000819229484
30
0
0
ARC
5
109
100
AcDbEntity
8
0
100
AcDbCircle
10
-6.2356739817406499
20
-0.61544015378200589
30
0
40
0.034023322075242834
210
0
220
-0
230
1
100
AcDbArc
50
0
51
82.080367916248051
0
SPLINE
5
110
100
AcDbEntity
8
0
100
AcDbSpline
70
4
71
5
72
53
73
47
74
0
42
0.000000001
43
0.0000000001
44
0.0000000001
40
0.60183342114933414
40
0.60183342114933414
40
0.60183342114933414
40
0.60183342114933414
40
0.60183342114933414
40
0.60183342114933414
40
0.61111111111111094
40
0.62222222222222201
40
0.63333333333333308
40
0.64444444444444415
40
0.65555555555555522
40
0.6666666666666663
40
0.67777777777777737
40
0.68888888888888844
40
0.69999999999999951
40
0.71111111111111058
40
0.72222222222222165
40
0.73333333333333273
40
0.7444444444444438
40
0.75555555555555487
40
0.76666666666666594
40
0.77777777777777701
40
0.78888888888888808
40
0.79999999999999916
40
0.81111111111111023
40
0.8222222222222213
40
0.83333333333333237
40
0.84444444444444344
40
0.85555555555555451
40
0.86666666666666559
40
0.87777777777777666
40
0.88888888888888773
40
0.8999999999999988
40
0.91111111111110987
40
0.92222222222222094
40
0.93333333333333202
40
0.94444444444444309
40
0.95555555555555416
40
0.96666666666666523
40
0.9777777777777763
40
0.98888888888888737
40
1
40
1
40
1
40
1
40
1
40
1.0111111111111111
40
1.0152927455359735
40
1.0152927455359735
40
1.0152927455359735
40
1.0152927455359735
40
1.0152927455359735
40
1.0152927455359735
41
1
41
1
41
1
41
1
41
1
41
1
41
1
41
1
41
1
41
1
41
1
41
1
41
1
41
1
41
1
41
1
41
1
41
1
41
1
41
1
41
1
41
1
41
1
41
1
41
1
41
1
41
1
41
1
41
1
41
1
41
1
41
1
41
1
41
1
41
1
41
1
41
1
41
1
41
1
41
1
41
1
41
1
41
1
41
1
41
1
41
1
41
1
10
-6.2309861042388972
20
-0.58174126043510366
30
0
10
-6.3495187992839055
20
-0.57673933957390477
30
0
10
-6.6053831994653622
20
-0.5654212253078148
30
0
10
-6.9837249803527266
20
-0.54681614208557194
30
0
10
-7.4551486563673199
20
-0.51929774445753418
30
0
10
-7.9740544423279438
20
-0.48088135890595191
30
0
10
-8.4332726510601894
20
-0.43815458921722811
30
0
10
-8.8296117329498252
20
-0.39362129314451755
30
0
10
-9.1826269000273104
20
-0.34738159919432376
30
0
10
-9.5124637267095551
20
-0.29727213022344984
30
0
10
-9.8353538361506399
20
-0.23788090241075535
30
0
10
-10.158192893072632
20
-0.1589007524918869
30
0
10
-10.478923002690991
20
-0.04718725495566671
30
0
10
-10.789304063919223
20
0.10950107153522902
30
0
10
-11.076893752815074
20
0.31964331652360511
30
0
10
-11.327370324932124
20
0.58392458200560771
30
0
10
-11.526666439720412
20
0.8953882869798051
30
0
10
-11.663270115630889
20
1.2422283944152657
30
0
10
-11.730249853841492
20
1.6097373299727353
30
0
10
-11.727898656845055
20
1.9827205921981841
30
0
10
-11.664500247658955
20
2.3473178626193887
30
0
10
-11.552591624929393
20
2.6917828954594842
30
0
10
-11.406104308870706
20
3.007461700631711
30
0
10
-11.237172798139639
20
3.2896808351805285
30
0
10
-11.053049824926862
20
3.5387112344934653
30
0
10
-10.857711893467034
20
3.7574066901178709
30
0
10
-10.653340843309046
20
3.9490194388858284
30
0
10
-10.442175324257617
20
4.1145911236778607
30
0
10
-10.227205669072495
20
4.2516136798798367
30
0
10
-10.008641002552656
20
4.357170112916779
30
0
10
-9.7812380739469695
20
4.4302728708242594
30
0
10
-9.5308764082519879
20
4.4746961878755478
30
0
10
-9.2405170527881069
20
4.4971160282497831
30
0
10
-8.8958536236354533
20
4.5052460322950214
30
0
10
-8.4924606822805622
20
4.5056682375210118
30
0
10
-8.0371475052569235
20
4.5029327294143755
30
0
10
-7.542907859209242
20
4.5000746882090681
30
0
10
-7.1290392851205473
20
4.4990180098935637
30
0
10
-6.8148276981124978
20
4.4991767283267228
30
0
10
-6.6049510515080705
20
4.499667870763437
30
0
10
-6.5000000968575478
20
4.5000000670552254
30
0
10
-6.3950491422070375
20
4.5003322633470138
30
0
10
-6.2505828151969567
20
4.5009087069177092
30
0
10
-6.1062591334526211
20
4.5016308579235247
30
0
10
-5.9621158278580841
20
4.5024602977911288
30
0
10
-5.8180052160006657
20
4.5033476020956122
30
0
10
-5.7785982944985932
20
4.5035934955827814
30
0
0
ARC
5
111
100
AcDbEntity
8
0
100
AcDbCircle
10
0.65448452638242072
20
-0.78725396999536335
30
0
40
0.060910067343224454
210
0
220
0
230
1
100
AcDbArc
50
96.447696022436247
51
175.57821710983561
0
SPLINE
5
112
100
AcDbEntity
8
0
100
AcDbSpline
70
4
71
5
72
12
73
6
74
0
42
0.000000001
43
0.0000000001
44
0.0000000001
40
0.98494184099141169
40
0.98494184099141169
40
0.98494184099141169
40
0.98494184099141169
40
0.98494184099141169
40
0.98494184099141169
40
0.99886819594436194
40
0.99886819594436194
40
0.99886819594436194
40
0.99886819594436194
40
0.99886819594436194
40
0.99886819594436194
41
1
41
1
41
1
41
1
41
1
41
1
10
0.59678656718035994
20
-1.4618713174653881
30
0
10
0.59667945858630622
20
-1.3268968772093439
30
0
10
0.59632259918332231
20
-1.1914784935711569
30
0
10
0.59571623253117223
20
-1.0556158430293969
30
0
10
0.59486041669853373
20
-0.91930896651952887
30
0
10
0.59375515886887698
20
-0.78255787417395795
30
0
0
SPLINE
5
113
100
AcDbEntity
8
0
100
AcDbSpline
70
4
71
5
72
45
73
39
74
0
42
0.000000001
43
0.0000000001
44
0.0000000001
40
0.13316148048445367
40
0.13316148048445367
40
0.13316148048445367
40
0.13316148048445367
40
0.13316148048445367
40
0.13316148048445367
40
0.13333333333333333
40
0.14444444444444443
40
0.15555555555555553
40
0.16666666666666663
40
0.17777777777777773
40
0.18888888888888883
40
0.19999999999999993
40
0.21111111111111103
40
0.22222222222222213
40
0.23333333333333323
40
0.24444444444444433
40
0.25555555555555542
40
0.26666666666666655
40
0.27777777777777768
40
0.28888888888888881
40
0.29999999999999993
40
0.31111111111111106
40
0.32222222222222219
40
0.33333333333333331
40
0.34444444444444444
40
0.35555555555555557
40
0.3666666666666667
40
0.37777777777777782
40
0.38888888888888895
40
0.40000000000000008
40
0.4111111111111112
40
0.42222222222222233
40
0.43333333333333346
40
0.44444444444444459
40
0.45555555555555571
40
0.46666666666666684
40
0.47777777777777797
40
0.48888888888888909
40
0.49079616343034416
40
0.49079616343034416
40
0.49079616343034416
40
0.49079616343034416
40
0.49079616343034416
40
0.49079616343034416
41
1
41
1
41
1
41
1
41
1
41
1
41
1
41
1
41
1
41
1
41
1
41
1
41
1
41
1
41
1
41
1
41
1
41
1
41
1
41
1
41
1
41
1
41
1
41
1
41
1
41
1
41
1
41
1
41
1
41
1
41
1
41
1
41
1
41
1
41
1
41
1
41
1
41
1
41
1
10
0.71926234463274563
20
4.4216512867016888
30
0
10
0.7212214533826713
20
4.4216115933248163
30
0
10
0.84981650774205386
20
4.419006855921646
30
0
10
1.1011539328547242
20
4.4140092514440283
30
0
10
1.4643808360515367
20
4.4069975879539616
30
0
10
1.9184333437611927
20
4.3981545427651563
30
0
10
2.4312991799962873
20
4.385229373301069
30
0
10
2.8959106341450891
20
4.3657818926631613
30
0
10
3.3209860921433738
20
4.3341150275649367
30
0
10
3.7169997804049162
20
4.28409006531112
30
0
10
4.0932047066471053
20
4.2098312344558924
30
0
10
4.4548056486626262
20
4.106400463524464
30
0
10
4.7999704228449076
20
3.9705009950825216
30
0
10
5.122005185161318
20
3.8003108418718994
30
0
10
5.4117446855052371
20
3.5952767924270885
30
0
10
5.6596864200619335
20
3.3559615137569359
30
0
10
5.858661473328187
20
3.0837766185770783
30
0
10
6.0042260679344022
20
2.781228568102744
30
0
10
6.0936610449064315
20
2.4525474152039446
30
0
10
6.1254634622191864
20
2.1040744279042518
30
0
10
6.0984771733881722
20
1.7450491562111246
30
0
10
6.0118689082452095
20
1.3869288858650473
30
0
10
5.8656685144633087
20
1.0415806315363973
30
0
10
5.6611243711003727
20
0.71987384656867515
30
0
10
5.4011943176984136
20
0.42994223636951656
30
0
10
5.0907986376961869
20
0.17609442810478559
30
0
10
4.7363337359835054
20
-0.040258883237085853
30
0
10
4.34532110490112
20
-0.21998808320757623
30
0
10
3.9259684931342216
20
-0.36553503942026
30
0
10
3.4868558835535293
20
-0.48018084539568695
30
0
10
3.0362568867208233
20
-0.56755491931354962
30
0
10
2.5809783306483718
20
-0.63152203288040676
30
0
10
2.1253021689745837
20
-0.67597449899772344
30
0
10
1.6699144289774659
20
-0.70466453349153113
30
0
10
1.2868325711370379
20
-0.71830688778855478
30
0
10
0.98881156905683276
20
-0.72394449650895254
30
0
10
0.77940569412281613
20
-0.72600151988821615
30
0
10
0.66451828920029765
20
-0.72664431728347245
30
0
10
0.64764450031686127
20
-0.72672864553484429
30
0
0
ENDSEC
0
SECTION
2
OBJECTS
0
DICTIONARY
5
C
100
AcDbDictionary
3
ACAD_GROUP
350
D
3
ACAD_MLINESTYLE
350
17
0
DICTIONARY
5
D
100
AcDbDictionary
0
DICTIONARY
5
1A
330
C
100
AcDbDictionary
0
DICTIONARY
5
17
100
AcDbDictionary
0
ENDSEC
0
EOF
