0
SECTION
2
HEADER
9
$INSUNITS
70
4
9
$ACADVER
1
AC1014
9
$HANDSEED
5
FFFF
0
ENDSEC
0
SECTION
2
TABLES
0
TABLE
2
VPORT
5
8
100
AcDbSymbolTable
0
ENDTAB
0
TABLE
2
LTYPE
5
5
100
AcDbSymbolTable
0
LTYPE
5
14
100
AcDbSymbolTableRecord
100
AcDbLinetypeTableRecord
2
BYBLOCK
70
0
0
LTYPE
5
15
100
AcDbSymbolTableRecord
100
AcDbLinetypeTableRecord
2
BYLAYER
70
0
0
ENDTAB
0
TABLE
2
LAYER
5
2
100
AcDbSymbolTable
70
2
0
LAYER
5
50
100
AcDbSymbolTableRecord
100
AcDbLayerTableRecord
2
0
70
0
6
CONTINUOUS
0
ENDTAB
0
TABLE
2
STYLE
5
3
100
AcDbSymbolTable
70
1
0
STYLE
5
11
100
AcDbSymbolTableRecord
100
AcDbTextStyleTableRecord
2
STANDARD
70
0
0
ENDTAB
0
TABLE
2
VIEW
5
6
100
AcDbSymbolTable
70
0
0
ENDTAB
0
TABLE
2
UCS
5
7
100
AcDbSymbolTable
70
0
0
ENDTAB
0
TABLE
2
APPID
5
9
100
AcDbSymbolTable
70
2
0
APPID
5
12
100
AcDbSymbolTableRecord
100
AcDbRegAppTableRecord
2
ACAD
70
0
0
ENDTAB
0
TABLE
2
DIMSTYLE
5
A
100
AcDbSymbolTable
70
1
0
ENDTAB
0
TABLE
2
BLOCK_RECORD
5
1
100
AcDbSymbolTable
70
1
0
BLOCK_RECORD
5
1F
100
AcDbSymbolTableRecord
100
AcDbBlockTableRecord
2
*MODEL_SPACE
0
BLOCK_RECORD
5
1B
100
AcDbSymbolTableRecord
100
AcDbBlockTableRecord
2
*PAPER_SPACE
0
ENDTAB
0
ENDSEC
0
SECTION
2
BLOCKS
0
BLOCK
5
20
100
AcDbEntity
100
AcDbBlockBegin
2
*MODEL_SPACE
0
ENDBLK
5
21
100
AcDbEntity
100
AcDbBlockEnd
0
BLOCK
5
1C
100
AcDbEntity
100
AcDbBlockBegin
2
*PAPER_SPACE
0
ENDBLK
5
1D
100
AcDbEntity
100
AcDbBlockEnd
0
ENDSEC
0
SECTION
2
ENTITIES
0
SPLINE
5
100
100
AcDbEntity
8
0
100
AcDbSpline
70
6
71
5
72
376
73
370
74
0
42
0.000000001
43
0.0000000001
44
0.0000000001
40
0
40
0
40
0
40
0
40
0
40
0
40
0.0027397260273972603
40
0.0054794520547945206
40
0.0082191780821917818
40
0.010958904109589041
40
0.013698630136986301
40
0.01643835616438356
40
0.019178082191780819
40
0.021917808219178079
40
0.024657534246575338
40
0.027397260273972598
40
0.030136986301369857
40
0.03287671232876712
40
0.035616438356164383
40
0.038356164383561646
40
0.041095890410958909
40
0.043835616438356172
40
0.046575342465753435
40
0.049315068493150697
40
0.05205479452054796
40
0.054794520547945223
40
0.057534246575342486
40
0.060273972602739749
40
0.063013698630137005
40
0.065753424657534268
40
0.068493150684931531
40
0.071232876712328794
40
0.073972602739726057
40
0.076712328767123319
40
0.079452054794520582
40
0.082191780821917845
40
0.084931506849315108
40
0.087671232876712371
40
0.090410958904109634
40
0.093150684931506897
40
0.09589041095890416
40
0.098630136986301423
40
0.10136986301369869
40
0.10410958904109595
40
0.10684931506849321
40
0.10958904109589047
40
0.11232876712328774
40
0.115068493150685
40
0.11780821917808226
40
0.12054794520547953
40
0.12328767123287679
40
0.12602739726027404
40
0.12876712328767129
40
0.13150684931506854
40
0.13424657534246578
40
0.13698630136986303
40
0.13972602739726028
40
0.14246575342465753
40
0.14520547945205478
40
0.14794520547945203
40
0.15068493150684928
40
0.15342465753424653
40
0.15616438356164378
40
0.15890410958904103
40
0.16164383561643828
40
0.16438356164383552
40
0.16712328767123277
40
0.16986301369863002
40
0.17260273972602727
40
0.17534246575342452
40
0.17808219178082177
40
0.18082191780821902
40
0.18356164383561627
40
0.18630136986301352
40
0.18904109589041077
40
0.19178082191780801
40
0.19452054794520526
40
0.19726027397260251
40
0.19999999999999976
40
0.20273972602739701
40
0.20547945205479426
40
0.20821917808219151
40
0.21095890410958876
40
0.21369863013698601
40
0.21643835616438326
40
0.2191780821917805
40
0.22191780821917775
40
0.224657534246575
40
0.22739726027397225
40
0.2301369863013695
40
0.23287671232876675
40
0.235616438356164
40
0.23835616438356125
40
0.2410958904109585
40
0.24383561643835575
40
0.24657534246575299
40
0.24931506849315024
40
0.25205479452054752
40
0.25479452054794477
40
0.25753424657534202
40
0.26027397260273927
40
0.26301369863013652
40
0.26575342465753377
40
0.26849315068493101
40
0.27123287671232826
40
0.27397260273972551
40
0.27671232876712276
40
0.27945205479452001
40
0.28219178082191726
40
0.28493150684931451
40
0.28767123287671176
40
0.29041095890410901
40
0.29315068493150626
40
0.2958904109589035
40
0.29863013698630075
40
0.301369863013698
40
0.30410958904109525
40
0.3068493150684925
40
0.30958904109588975
40
0.312328767123287
40
0.31506849315068425
40
0.3178082191780815
40
0.32054794520547875
40
0.32328767123287599
40
0.32602739726027324
40
0.32876712328767049
40
0.33150684931506774
40
0.33424657534246499
40
0.33698630136986224
40
0.33972602739725949
40
0.34246575342465674
40
0.34520547945205399
40
0.34794520547945124
40
0.35068493150684849
40
0.35342465753424573
40
0.35616438356164298
40
0.35890410958904023
40
0.36164383561643748
40
0.36438356164383473
40
0.36712328767123198
40
0.36986301369862923
40
0.37260273972602648
40
0.37534246575342373
40
0.37808219178082098
40
0.38082191780821822
40
0.38356164383561547
40
0.38630136986301272
40
0.38904109589040997
40
0.39178082191780722
40
0.39452054794520447
40
0.39726027397260172
40
0.39999999999999897
40
0.40273972602739622
40
0.40547945205479347
40
0.40821917808219071
40
0.41095890410958796
40
0.41369863013698521
40
0.41643835616438246
40
0.41917808219177971
40
0.42191780821917696
40
0.42465753424657421
40
0.42739726027397146
40
0.43013698630136871
40
0.43287671232876596
40
0.4356164383561632
40
0.43835616438356045
40
0.4410958904109577
40
0.44383561643835495
40
0.4465753424657522
40
0.44931506849314945
40
0.4520547945205467
40
0.45479452054794395
40
0.4575342465753412
40
0.46027397260273845
40
0.46301369863013569
40
0.46575342465753294
40
0.46849315068493019
40
0.47123287671232744
40
0.47397260273972469
40
0.47671232876712194
40
0.47945205479451919
40
0.48219178082191644
40
0.48493150684931369
40
0.48767123287671094
40
0.49041095890410819
40
0.49315068493150543
40
0.49589041095890268
40
0.49863013698629993
40
0.50136986301369724
40
0.50410958904109449
40
0.50684931506849173
40
0.50958904109588898
40
0.51232876712328623
40
0.51506849315068348
40
0.51780821917808073
40
0.52054794520547798
40
0.52328767123287523
40
0.52602739726027248
40
0.52876712328766973
40
0.53150684931506698
40
0.53424657534246422
40
0.53698630136986147
40
0.53972602739725872
40
0.54246575342465597
40
0.54520547945205322
40
0.54794520547945047
40
0.55068493150684772
40
0.55342465753424497
40
0.55616438356164222
40
0.55890410958903947
40
0.56164383561643672
40
0.56438356164383396
40
0.56712328767123121
40
0.56986301369862846
40
0.57260273972602571
40
0.57534246575342296
40
0.57808219178082021
40
0.58082191780821746
40
0.58356164383561471
40
0.58630136986301196
40
0.58904109589040921
40
0.59178082191780645
40
0.5945205479452037
40
0.59726027397260095
40
0.5999999999999982
40
0.60273972602739545
40
0.6054794520547927
40
0.60821917808218995
40
0.6109589041095872
40
0.61369863013698445
40
0.6164383561643817
40
0.61917808219177894
40
0.62191780821917619
40
0.62465753424657344
40
0.62739726027397069
40
0.63013698630136794
40
0.63287671232876519
40
0.63561643835616244
40
0.63835616438355969
40
0.64109589041095694
40
0.64383561643835419
40
0.64657534246575143
40
0.64931506849314868
40
0.65205479452054593
40
0.65479452054794318
40
0.65753424657534043
40
0.66027397260273768
40
0.66301369863013493
40
0.66575342465753218
40
0.66849315068492943
40
0.67123287671232668
40
0.67397260273972392
40
0.67671232876712117
40
0.67945205479451842
40
0.68219178082191567
40
0.68493150684931292
40
0.68767123287671017
40
0.69041095890410742
40
0.69315068493150467
40
0.69589041095890192
40
0.69863013698629917
40
0.70136986301369642
40
0.70410958904109366
40
0.70684931506849091
40
0.70958904109588816
40
0.71232876712328541
40
0.71506849315068266
40
0.71780821917807991
40
0.72054794520547716
40
0.72328767123287441
40
0.72602739726027166
40
0.72876712328766891
40
0.73150684931506615
40
0.7342465753424634
40
0.73698630136986065
40
0.7397260273972579
40
0.74246575342465515
40
0.7452054794520524
40
0.74794520547944965
40
0.7506849315068469
40
0.75342465753424415
40
0.7561643835616414
40
0.75890410958903864
40
0.76164383561643589
40
0.76438356164383314
40
0.76712328767123039
40
0.76986301369862764
40
0.77260273972602489
40
0.77534246575342214
40
0.77808219178081939
40
0.78082191780821664
40
0.78356164383561389
40
0.78630136986301113
40
0.78904109589040838
40
0.79178082191780563
40
0.79452054794520288
40
0.79726027397260013
40
0.79999999999999738
40
0.80273972602739463
40
0.80547945205479188
40
0.80821917808218913
40
0.81095890410958638
40
0.81369863013698362
40
0.81643835616438087
40
0.81917808219177812
40
0.82191780821917537
40
0.82465753424657262
40
0.82739726027396987
40
0.83013698630136712
40
0.83287671232876437
40
0.83561643835616162
40
0.83835616438355887
40
0.84109589041095612
40
0.84383561643835336
40
0.84657534246575061
40
0.84931506849314786
40
0.85205479452054511
40
0.85479452054794236
40
0.85753424657533961
40
0.86027397260273686
40
0.86301369863013411
40
0.86575342465753136
40
0.86849315068492861
40
0.87123287671232585
40
0.8739726027397231
40
0.87671232876712035
40
0.8794520547945176
40
0.88219178082191485
40
0.8849315068493121
40
0.88767123287670935
40
0.8904109589041066
40
0.89315068493150385
40
0.8958904109589011
40
0.89863013698629834
40
0.90136986301369559
40
0.90410958904109284
40
0.90684931506849009
40
0.90958904109588734
40
0.91232876712328459
40
0.91506849315068184
40
0.91780821917807909
40
0.92054794520547634
40
0.92328767123287359
40
0.92602739726027083
40
0.92876712328766808
40
0.93150684931506533
40
0.93424657534246258
40
0.93698630136985983
40
0.93972602739725708
40
0.94246575342465433
40
0.94520547945205158
40
0.94794520547944883
40
0.95068493150684608
40
0.95342465753424332
40
0.95616438356164057
40
0.95890410958903782
40
0.96164383561643507
40
0.96438356164383232
40
0.96712328767122957
40
0.96986301369862682
40
0.97260273972602407
40
0.97534246575342132
40
0.97808219178081857
40
0.98082191780821582
40
0.98356164383561306
40
0.98630136986301031
40
0.98904109589040756
40
0.99178082191780481
40
0.99452054794520206
40
0.99726027397259931
40
1
40
1
40
1
40
1
40
1
40
1
41
1
41
1
41
1
41
1
41
1
41
1
41
1
41
1
41
1
41
1
41
1
41
1
41
1
41
1
41
1
41
1
41
1
41
1
41
1
41
1
41
1
41
1
41
1
41
1
41
1
41
1
41
1
41
1
41
1
41
1
41
1
41
1
41
1
41
1
41
1
41
1
41
1
41
1
41
1
41
1
41
1
41
1
41
1
41
1
41
1
41
1
41
1
41
1
41
1
41
1
41
1
41
1
41
1
41
1
41
1
41
1
41
1
41
1
41
1
41
1
41
1
41
1
41
1
41
1
41
1
41
1
41
1
41
1
41
1
41
1
41
1
41
1
41
1
41
1
41
1
41
1
41
1
41
1
41
1
41
1
41
1
41
1
41
1
41
1
41
1
41
1
41
1
41
1
41
1
41
1
41
1
41
1
41
1
41
1
41
1
41
1
41
1
41
1
41
1
41
1
41
1
41
1
41
1
41
1
41
1
41
1
41
1
41
1
41
1
41
1
41
1
41
1
41
1
41
1
41
1
41
1
41
1
41
1
41
1
41
1
41
1
41
1
41
1
41
1
41
1
41
1
41
1
41
1
41
1
41
1
41
1
41
1
41
1
41
1
41
1
41
1
41
1
41
1
41
1
41
1
41
1
41
1
41
1
41
1
41
1
41
1
41
1
41
1
41
1
41
1
41
1
41
1
41
1
41
1
41
1
41
1
41
1
41
1
41
1
41
1
41
1
41
1
41
1
41
1
41
1
41
1
41
1
41
1
41
1
41
1
41
1
41
1
41
1
41
1
41
1
41
1
41
1
41
1
41
1
41
1
41
1
41
1
41
1
41
1
41
1
41
1
41
1
41
1
41
1
41
1
41
1
41
1
41
1
41
1
41
1
41
1
41
1
41
1
41
1
41
1
41
1
41
1
41
1
41
1
41
1
41
1
41
1
41
1
41
1
41
1
41
1
41
1
41
1
41
1
41
1
41
1
41
1
41
1
41
1
41
1
41
1
41
1
41
1
41
1
41
1
41
1
41
1
41
1
41
1
41
1
41
1
41
1
41
1
41
1
41
1
41
1
41
1
41
1
41
1
41
1
41
1
41
1
41
1
41
1
41
1
41
1
41
1
41
1
41
1
41
1
41
1
41
1
41
1
41
1
41
1
41
1
41
1
41
1
41
1
41
1
41
1
41
1
41
1
41
1
41
1
41
1
41
1
41
1
41
1
41
1
41
1
41
1
41
1
41
1
41
1
41
1
41
1
41
1
41
1
41
1
41
1
41
1
41
1
41
1
41
1
41
1
41
1
41
1
41
1
41
1
41
1
41
1
41
1
41
1
41
1
41
1
41
1
41
1
41
1
41
1
41
1
41
1
41
1
41
1
41
1
41
1
41
1
41
1
41
1
41
1
41
1
41
1
41
1
41
1
41
1
41
1
41
1
41
1
41
1
41
1
41
1
41
1
41
1
41
1
41
1
41
1
41
1
41
1
41
1
41
1
41
1
41
1
41
1
41
1
41
1
41
1
41
1
41
1
41
1
41
1
41
1
41
1
41
1
41
1
41
1
41
1
41
1
41
1
41
1
41
1
41
1
41
1
41
1
41
1
41
1
41
1
41
1
41
1
41
1
41
1
41
1
41
1
41
1
41
1
41
1
41
1
41
1
41
1
41
1
41
1
10
6.0000000894069672
20
10.500000156462193
30
0
10
6.0650625143039258
20
10.484910757294026
30
0
10
6.1927785365100307
20
10.453892543025329
30
0
10
6.3775826394657784
20
10.405535283286012
30
0
10
6.6130363077838075
20
10.33843516059523
30
0
10
6.8973564834050123
20
10.247171814258284
30
0
10
7.1797339022698372
20
10.142853476278354
30
0
10
7.4659589697405018
20
10.020197511430116
30
0
10
7.7576666087309052
20
9.8771393303874646
30
0
10
8.0500030514555512
20
9.7181968976662176
30
0
10
8.3341036217535258
20
9.5520137713543711
30
0
10
8.6000575293946664
20
9.3882965148995208
30
0
10
8.8398487777976094
20
9.2348167925143034
30
0
10
9.0499678699671051
20
9.0947286996662235
30
0
10
9.2350370707600113
20
8.962870321809687
30
0
10
9.405473020822253
20
8.8280775438001253
30
0
10
9.5729844079095869
20
8.6776768590186677
30
0
10
9.7469974042890701
20
8.5010551288526397
30
0
10
9.9301559690838506
20
8.2941285018169655
30
0
10
10.119686802647953
20
8.0581981946985231
30
0
10
10.309615609428612
20
7.7979918521545475
30
0
10
10.492709004453269
20
7.5199734248158716
30
0
10
10.662485423038495
20
7.2305703036247007
30
0
10
10.815320596234599
20
6.9343549736448731
30
0
10
10.949711033373376
20
6.634138382530093
30
0
10
11.065381144775976
20
6.3311930250435813
30
0
10
11.162406899992966
20
6.0254148750090302
30
0
10
11.240425496884141
20
5.7155413481795447
30
0
10
11.297577111932222
20
5.3992700501863418
30
0
10
11.330549255385147
20
5.07374106133725
30
0
10
11.335496557216196
20
4.7363012614367452
30
0
10
11.308709027906961
20
4.3851883126844369
30
0
10
11.247382584398562
20
4.0202465358713271
30
0
10
11.150348525558728
20
3.6436319240881643
30
0
10
11.018813315104403
20
3.2605143851619101
30
0
10
10.855765869854309
20
2.8782774002646843
30
0
10
10.665390267404902
20
2.5057265772783484
30
0
10
10.452487732642521
20
2.1522968584184552
30
0
10
10.221868888432457
20
1.8272559522609417
30
0
10
9.977819009132542
20
1.5389196364764171
30
0
10
9.7233838043940999
20
1.2938364619451947
30
0
10
9.4602905606688257
20
1.0960880516864817
30
0
10
9.1896087638263655
20
0.9467689351169426
30
0
10
8.9122292374096688
20
0.84336009646069121
30
0
10
8.6293958399101598
20
0.77927474349911485
30
0
10
8.3432653284212659
20
0.74302327638106058
30
0
10
8.0572939709064908
20
0.71849462168667044
30
0
10
7.7759909506330214
20
0.68851370905666631
30
0
10
7.5048186045289569
20
0.63802621989108421
30
0
10
7.2499579006866348
20
0.55703354050823295
30
0
10
7.0183241711382305
20
0.4446105792835498
30
0
10
6.8165217462965959
20
0.30812391449742432
30
0
10
6.6486361358593848
20
0.1589107715812127
30
0
10
6.5150118007346416
20
0.0090944510616353738
30
0
10
6.4091130237356584
20
-0.13229879170297018
30
0
10
6.3217456923870241
20
-0.26164740955359167
30
0
10
6.2484862031528143
20
-0.38141695873360149
30
0
10
6.1987033371959752
20
-0.50276926664694199
30
0
10
6.1902081306352699
20
-0.63881319100524026
30
0
10
6.2340671879856817
20
-0.78993998298888213
30
0
10
6.3284572097628793
20
-0.93985505786800971
30
0
10
6.4663176176454149
20
-1.0703693458708716
30
0
10
6.6417452119411733
20
-1.1756820354999473
30
0
10
6.8524574282313484
20
-1.2657675778446715
30
0
10
7.0971624750293305
20
-1.3573101339573004
30
0
10
7.3745356574931549
20
-1.4686665446871914
30
0
10
7.6812212657837255
20
-1.6120210765637453
30
0
10
8.0118006294954345
20
-1.7924496898211848
30
0
10
8.3595653107134638
20
-2.010093521968177
30
0
10
8.7170515973150557
20
-2.2613946227198296
30
0
10
9.0766779578451633
20
-2.540728716649769
30
0
10
9.4313272822085974
20
-2.8418440391351876
30
0
10
9.7749792307499952
20
-3.159439665725885
30
0
10
10.103245012618917
20
-3.4905218836181695
30
0
10
10.412997658283023
20
-3.8338440182995432
30
0
10
10.702073284255595
20
-4.1894930257321077
30
0
10
10.968942819157261
20
-4.5584179240217688
30
0
10
11.212402253797652
20
-4.9419888764910622
30
0
10
11.431241186570162
20
-5.3415294540224743
30
0
10
11.623952945537992
20
-5.7578924617585798
30
0
10
11.788345567485482
20
-6.1909362997627877
30
0
10
11.921585583132634
20
-6.6394316738921599
30
0
10
12.020494896350797
20
-7.1012195757943966
30
0
10
12.08177041384805
20
-7.5732924890557882
30
0
10
12.102235529444613
20
-8.051907385804423
30
0
10
12.079078203405565
20
-8.53268491087778
30
0
10
12.010094239878375
20
-9.0107147993982846
30
0
10
11.893929745189764
20
-9.480657811919599
30
0
10
11.730320125575171
20
-9.9368513427324192
30
0
10
11.520067785089378
20
-10.373587329376637
30
0
10
11.265023366403003
20
-10.785385931857604
30
0
10
10.968067510527106
20
-11.167274000309584
30
0
10
10.633088385580754
20
-11.515054263833498
30
0
10
10.264970505613579
20
-11.825595387976941
30
0
10
9.869556779580396
20
-12.09707382112985
30
0
10
9.4536753958563597
20
-12.329331717250669
30
0
10
9.024960619149514
20
-12.523866140974606
30
0
10
8.5912580542797894
20
-12.68307418833106
30
0
10
8.1601152757784376
20
-12.809651887383705
30
0
10
7.7382438579458235
20
-12.905939649872835
30
0
10
7.3309809134937511
20
-12.973272223805896
30
0
10
6.9417802555229047
20
-13.011369286834704
30
0
10
6.5716203292729922
20
-13.017606678573671
30
0
10
6.2186564353339424
20
-12.98664093051177
30
0
10
5.8795401682251587
20
-12.912463091083445
30
0
10
5.5505321173184718
20
-12.79014267642189
30
0
10
5.2287495406984617
20
-12.61778926884049
30
0
10
4.9132300857227822
20
-12.398197114788621
30
0
10
4.6063807260571119
20
-12.141169324187427
30
0
10
4.3142417923055802
20
-11.863738605335325
30
0
10
4.0441431801617638
20
-11.585721132195781
30
0
10
3.8029695296938919
20
-11.326395462185026
30
0
10
3.5950299928698861
20
-11.100385737331905
30
0
10
3.4204477514135685
20
-10.914683040308093
30
0
10
3.2724665713034629
20
-10.763222051366352
30
0
10
3.1383766301899838
20
-10.629684488658771
30
0
10
3.0052176677389557
20
-10.50118118271196
30
0
10
2.8642498335860078
20
-10.379119773623627
30
0
10
2.7160435388686581
20
-10.291525399552262
30
0
10
2.5656684008910808
20
-10.274847894290351
30
0
10
2.4173554284724275
20
-10.353647467054106
30
0
10
2.2703330272191176
20
-10.525139527598972
30
0
10
2.1211515386556048
20
-10.770775740586849
30
0
10
1.9651604441351778
20
-11.064232007282692
30
0
10
1.7984744413283547
20
-11.381585394338515
30
0
10
1.619239035582567
20
-11.708118200612645
30
0
10
1.4269616516090846
20
-12.035490205215183
30
0
10
1.2221429243943103
20
-12.360416153655736
30
0
10
1.0057895674503181
20
-12.682751146343442
30
0
10
0.77898117066140482
20
-13.003840093704104
30
0
10
0.5424056624625232
20
-13.324726286326873
30
0
10
0.29593124417354683
20
-13.644497945183922
30
0
10
0.038797973221348529
20
-13.96070991994751
30
0
10
-0.23021312263729135
20
-14.269733134859148
30
0
10
-0.51260301362904992
20
-14.5671285546428
30
0
10
-0.80998008723410209
20
-14.848015468198312
30
0
10
-1.1238866662287539
20
-15.107431137940717
30
0
10
-1.4556198130238185
20
-15.340721138752301
30
0
10
-1.8060732923090077
20
-15.543820537531531
30
0
10
-2.175613291985409
20
-15.713365417309607
30
0
10
-2.5639447159216733
20
-15.846847511556827
30
0
10
-2.9699841726896929
20
-15.942745653560188
30
0
10
-3.3917233527493451
20
-16.000680563008242
30
0
10
-3.8261122347204521
20
-16.021528285204013
30
0
10
-4.2688929385876255
20
-16.007632498190699
30
0
10
-4.7147281455632672
20
-15.962439562848843
30
0
10
-5.1574245644781858
20
-15.88996212835953
30
0
10
-5.5901168411188937
20
-15.79428962084088
30
0
10
-6.0054853263089756
20
-15.679102120092915
30
0
10
-6.3959191775809279
20
-15.547129648702407
30
0
10
-6.753796917436051
20
-15.399759407206412
30
0
10
-7.0714782910441194
20
-15.236262388899446
30
0
10
-7.34269599199963
20
-15.054924357672983
30
0
10
-7.5643970232103888
20
-14.85489698870836
30
0
10
-7.7386758969479423
20
-14.637956885168677
30
0
10
-7.8741431690050394
20
-14.409992260879964
30
0
10
-7.988841178883666
20
-14.183373459445667
30
0
10
-8.1070243241531834
20
-13.975807251846577
30
0
10
-8.2489015337849914
20
-13.805556241441703
30
0
10
-8.4240988555754637
20
-13.688074942215689
30
0
10
-8.6194631260970862
20
-13.631098351105823
30
0
10
-8.8064679596808091
20
-13.634520196420263
30
0
10
-8.9598753036711383
20
-13.693408068933255
30
0
10
-9.0780151551916823
20
-13.800501285577342
30
0
10
-9.1852466449901176
20
-13.947561126581654
30
0
10
-9.3132067816275832
20
-14.12491905159192
30
0
10
-9.4850048559430498
20
-14.32131896300146
30
0
10
-9.7074678272417785
20
-14.524332326513056
30
0
10
-9.9776166386919023
20
-14.721816747121789
30
0
10
-10.285449105670381
20
-14.903152721447588
30
0
10
-10.618040570670633
20
-15.060445702433206
30
0
10
-10.96354131169711
20
-15.190045439651509
30
0
10
-11.31364316765592
20
-15.292894219176222
30
0
10
-11.662625082515234
20
-15.372672253477369
30
0
10
-12.007181374239742
20
-15.434465335842402
30
0
10
-12.34593738397394
20
-15.483155027579196
30
0
10
-12.679092313525009
20
-15.522084077057247
30
0
10
-13.008023809640697
20
-15.551214800858794
30
0
10
-13.334841749522024
20
-15.567116442687894
30
0
10
-13.661869209183275
20
-15.56449911145638
30
0
10
-13.991140718995913
20
-15.537324049040578
30
0
10
-14.323903893916645
20
-15.480063464930183
30
0
10
-14.660094669530654
20
-15.388953220439259
30
0
10
-14.997895722644854
20
-15.263084431684817
30
0
10
-15.334145956140457
20
-15.103536497914344
30
0
10
-15.664682381231838
20
-14.912670788434919
30
0
10
-15.984708342638697
20
-14.69335996854344
30
0
10
-16.28914909331478
20
-14.448251359992319
30
0
10
-16.573016142118725
20
-14.178999980494101
30
0
10
-16.831758327023728
20
-13.885558684156754
30
0
10
-17.061333647050073
20
-13.566717361555085
30
0
10
-17.258292435833397
20
-13.220600648959969
30
0
10
-17.419853712339066
20
-12.845173201314479
30
0
10
-17.543990381785488
20
-12.438759703667374
30
0
10
-17.629496858638088
20
-12.000516671753118
30
0
10
-17.676098631352748
20
-11.531029163688322
30
0
10
-17.684400508332473
20
-11.032419073552067
30
0
10
-17.655698841523371
20
-10.508039946689134
30
0
10
-17.591831998122572
20
-9.9622887227680721
30
0
10
-17.495015728172071
20
-9.4003698492239973
30
0
10
-17.36768372841081
20
-8.8280791355113504
30
0
10
-17.212328995989402
20
-8.2515808008274085
30
0
10
-17.03133784592459
20
-7.6771836286689048
30
0
10
-16.826843528871557
20
-7.1111265509978292
30
0
10
-16.600528980658218
20
-6.55933686863282
30
0
10
-16.353723422381218
20
-6.0273496646855405
30
0
10
-16.087595191716623
20
-5.5202802102095827
30
0
10
-15.80331277692464
20
-5.042778796415516
30
0
10
-15.502218869838785
20
-4.5989928251218783
30
0
10
-15.185999454234906
20
-4.1925259026645305
30
0
10
-14.856853613259338
20
-3.8263978582403633
30
0
10
-14.517666386633445
20
-3.5030051185439537
30
0
10
-14.172172461521662
20
-3.2240790388738323
30
0
10
-13.825145444187701
20
-2.9906502134236752
30
0
10
-13.48193241377183
20
-2.8028497304431061
30
0
10
-13.147956115314891
20
-2.6597005042469184
30
0
10
-12.828234588433737
20
-2.558917060108298
30
0
10
-12.526880732579793
20
-2.4966906575815577
30
0
10
-12.246640326816276
20
-2.4675064906748014
30
0
10
-11.988331644413247
20
-2.4638788958838114
30
0
10
-11.751535809815486
20
-2.4769413865338272
30
0
10
-11.535518833474054
20
-2.4970878933667091
30
0
10
-11.3399047905376
20
-2.5146851630369698
30
0
10
-11.165871320938138
20
-2.5205323818713952
30
0
10
-11.013975223398409
20
-2.508034091894074
30
0
10
-10.881363799773737
20
-2.4755878781363485
30
0
10
-10.758730238723718
20
-2.4293935827098041
30
0
10
-10.639490059888882
20
-2.3745840093499559
30
0
10
-10.536689990601761
20
-2.2995133586348997
30
0
10
-10.477572302945003
20
-2.1793878607433141
30
0
10
-10.471077539540399
20
-2.0026656964045655
30
0
10
-10.493213069523932
20
-1.7833191945796281
30
0
10
-10.509601152362274
20
-1.5453479290099501
30
0
10
-10.491069349574078
20
-1.3122742584104135
30
0
10
-10.435204190885186
20
-1.0926002126692507
30
0
10
-10.360104789406758
20
-0.88332428886356951
30
0
10
-10.292361852373604
20
-0.67715845068537395
30
0
10
-10.256777146380021
20
-0.46863895728132265
30
0
10
-10.265906222876232
20
-0.26031898435800682
30
0
10
-10.323256013479416
20
-0.058178311084924494
30
0
10
-10.425644724279767
20
0.13199620831744055
30
0
10
-10.566086904574805
20
0.30946729321836292
30
0
10
-10.735590741611214
20
0.4790573512899039
30
0
10
-10.924436312176617
20
0.64872557958673216
30
0
10
-11.123457239152632
20
0.82809236628277816
30
0
10
-11.325660766151662
20
1.0263755517114295
30
0
10
-11.526128744462943
20
1.2515055425463979
30
0
10
-11.720863501858009
20
1.5098221992694241
30
0
10
-11.905901145129965
20
1.8055819340339798
30
0
10
-12.076432513431673
20
2.1405910704764968
30
0
10
-12.225633176552629
20
2.5136673385969281
30
0
10
-12.344670384649273
20
2.9206062734357889
30
0
10
-12.424294015953246
20
3.3547943633202659
30
0
10
-12.456048644605676
20
3.8076591249494829
30
0
10
-12.433600941223917
20
4.2691910186172279
30
0
10
-12.354105964136913
20
4.7284209835408806
30
0
10
-12.219351253634123
20
5.1739486422425598
30
0
10
-12.037500902954827
20
5.5943710338318091
30
0
10
-11.822733108964254
20
5.979040842549507
30
0
10
-11.592050119250967
20
6.3192771697441934
30
0
10
-11.36282293584742
20
6.6094385186526674
30
0
10
-11.149972404676568
20
6.8481064134060885
30
0
10
-10.963457421334057
20
7.0390959770092421
30
0
10
-10.805268217913826
20
7.1928438284763594
30
0
10
-10.66772761279166
20
7.326685149372163
30
0
10
-10.538901761999577
20
7.4578913320365849
30
0
10
-10.40688329788882
20
7.5985726795931106
30
0
10
-10.265053539303302
20
7.7477131037753724
30
0
10
-10.113660823595158
20
7.8962458616842088
30
0
10
-9.9596993823798421
20
8.0361723430508203
30
0
10
-9.8180017288011143
20
8.1700363987116766
30
0
10
-9.7098469380531807
20
8.3153038891373452
30
0
10
-9.6548927144405567
20
8.4911771173986779
30
0
10
-9.6638130571074949
20
8.7078332605377149
30
0
10
-9.7317398560035553
20
8.9564065474341046
30
0
10
-9.8440696768194478
20
9.2185335844126399
30
0
10
-9.9813078386887746
20
9.4743612102047123
30
0
10
-10.124097064313828
20
9.7107273493508171
30
0
10
-10.258653031198543
20
9.9303788906857022
30
0
10
-10.376242401780901
20
10.147208395621297
30
0
10
-10.471808936630447
20
10.379295811530762
30
0
10
-10.542957761872556
20
10.643278527930011
30
0
10
-10.588659241578839
20
10.946844890538241
30
0
10
-10.608627399379566
20
11.287673820850376
30
0
10
-10.603156716801026
20
11.657260414683908
30
0
10
-10.572832752904461
20
12.043306378426337
30
0
10
-10.518288513924269
20
12.432772498815989
30
0
10
-10.439955170459211
20
12.814478448029728
30
0
10
-10.33777864849583
20
13.182340741481376
30
0
10
-10.211263677779758
20
13.534522249932223
30
0
10
-10.059587065110202
20
13.871755750817233
30
0
10
-9.8816882028217119
20
14.195978451295614
30
0
10
-9.6763662000951722
20
14.508775043778208
30
0
10
-9.4423810068460057
20
14.810045457279895
30
0
10
-9.1785353337709026
20
15.096212386875532
30
0
10
-8.8838624912570765
20
15.360645330985626
30
0
10
-8.5578621396071703
20
15.59503608000162
30
0
10
-8.2007177675088911
20
15.790456785569448
30
0
10
-7.8135281975607516
20
15.938577965732925
30
0
10
-7.3985183310810712
20
16.032753351018691
30
0
10
-6.9592944448714187
20
16.069317363100101
30
0
10
-6.5009684681160635
20
16.048302180382656
30
0
10
-6.0298797389386527
20
15.972391118933079
30
0
10
-5.5533854899433592
20
15.846179828373364
30
0
10
-5.079625901028308
20
15.67530738012498
30
0
10
-4.6172964026128422
20
15.465663409926641
30
0
10
-4.1754253446430898
20
15.222515045267302
30
0
10
-3.7631296047362479
20
14.949779531294244
30
0
10
-3.3894290040293988
20
14.64895665098792
30
0
10
-3.0628231272790578
20
14.319406845277673
30
0
10
-2.7906917784474672
20
13.959644883152723
30
0
10
-2.5787385198721076
20
13.568351627507644
30
0
10
-2.4304338580547635
20
13.145474948623752
30
0
10
-2.346418275112002
20
12.693354300805044
30
0
10
-2.3240160782344894
20
12.217691152798428
30
0
10
-2.3564743615969661
20
11.72893513879275
30
0
10
-2.433076151380936
20
11.242327041034056
30
0
10
-2.5410315686976519
20
10.775184599602232
30
0
10
-2.667025089463777
20
10.344742167238907
30
0
10
-2.798836992056104
20
9.9658240775011802
30
0
10
-2.927077814424722
20
9.6484630201198645
30
0
10
-3.0465371274540818
20
9.3958353385565978
30
0
10
-3.1585213950468476
20
9.2013448006602765
30
0
10
-3.2698709132996804
20
9.0485540941649916
30
0
10
-3.3861067181366411
20
8.9158313999172822
30
0
10
-3.5063324690601623
20
8.7799666217568859
30
0
10
-3.6164400192012791
20
8.6200916506390932
30
0
10
-3.695122541971215
20
8.4216712685563202
30
0
10
-3.7207258494283661
20
8.179809751374135
30
0
10
-3.6788235479149152
20
7.9043816187539218
30
0
10
-3.56548534995907
20
7.6182292212543059
30
0
10
-3.3861086912513794
20
7.3490916519666003
30
0
10
-3.155724234561653
20
7.1229647041739259
30
0
10
-2.8981803647923128
20
6.9575371834893396
30
0
10
-2.6471447120656562
20
6.853881954372393
30
0
10
-2.4359638348588564
20
6.8022259379691361
30
0
10
-2.2850401929921178
20
6.7910932708009089
30
0
10
-2.1898849519054813
20
6.8153753347059789
30
0
10
-2.1093223959754153
20
6.8846314463471412
30
0
10
-1.997863834071766
20
7.0086178506963579
30
0
10
-1.8381947333919835
20
7.1828424569349627
30
0
10
-1.632820266114432
20
7.3930186085458534
30
0
10
-1.3945194960777449
20
7.6200764703974997
30
0
10
-1.1380525105741659
20
7.8446080835849274
30
0
10
-0.86935114363490484
20
8.0524302593925619
30
0
10
-0.58558566347847163
20
8.2353367388493819
30
0
10
-0.28111106135768466
20
8.3892514623828767
30
0
10
0.048383318650341733
20
8.5131767285841313
30
0
10
0.40102011901347845
20
8.6078284427320373
30
0
10
0.76408778993002746
20
8.6743678633238073
30
0
10
1.1095430837395179
20
8.7131849292551813
30
0
10
1.4051152667418059
20
8.7267894153894137
30
0
10
1.6260326311842617
20
8.7230577296497387
30
0
10
1.7649757477344516
20
8.7175553889924213
30
0
10
1.8464588473359491
20
8.7381486571392646
30
0
10
1.9262963028703162
20
8.8217175452173908
30
0
10
2.0517154243750384
20
8.9876670062920478
30
0
10
2.2451382109065978
20
9.2284454894011194
30
0
10
2.5124306437647626
20
9.5200979059312179
30
0
10
2.8460690769047114
20
9.8284212477326403
30
0
10
3.2304256590943359
20
10.117143017134758
30
0
10
3.6458966642866368
20
10.354604343563183
30
0
10
4.0741509224369308
20
10.522644643214033
30
0
10
4.5004351364131567
20
10.618380608433924
30
0
10
4.9131541420550997
20
10.649054677911389
30
0
10
5.3041786018961856
20
10.628751317636597
30
0
10
5.5959204357482317
20
10.585231454145344
30
0
10
5.802403987128109
20
10.544428938034327
30
0
10
5.9349376645099285
20
10.515089555630375
30
0
10
6.0000000894069672
20
10.500000156462193
30
0
0
ENDSEC
0
SECTION
2
OBJECTS
0
DICTIONARY
5
C
100
AcDbDictionary
3
ACAD_GROUP
350
D
3
ACAD_MLINESTYLE
350
17
0
DICTIONARY
5
D
100
AcDbDictionary
0
DICTIONARY
5
1A
330
C
100
AcDbDictionary
0
DICTIONARY
5
17
100
AcDbDictionary
0
ENDSEC
0
EOF
