0
SECTION
2
HEADER
9
$INSUNITS
70
4
9
$ACADVER
1
AC1014
9
$HANDSEED
5
FFFF
0
ENDSEC
0
SECTION
2
TABLES
0
TABLE
2
VPORT
5
8
100
AcDbSymbolTable
0
ENDTAB
0
TABLE
2
LTYPE
5
5
100
AcDbSymbolTable
0
LTYPE
5
14
100
AcDbSymbolTableRecord
100
AcDbLinetypeTableRecord
2
BYBLOCK
70
0
0
LTYPE
5
15
100
AcDbSymbolTableRecord
100
AcDbLinetypeTableRecord
2
BYLAYER
70
0
0
ENDTAB
0
TABLE
2
LAYER
5
2
100
AcDbSymbolTable
70
2
0
LAYER
5
50
100
AcDbSymbolTableRecord
100
AcDbLayerTableRecord
2
0
70
0
6
CONTINUOUS
0
ENDTAB
0
TABLE
2
STYLE
5
3
100
AcDbSymbolTable
70
1
0
STYLE
5
11
100
AcDbSymbolTableRecord
100
AcDbTextStyleTableRecord
2
STANDARD
70
0
0
ENDTAB
0
TABLE
2
VIEW
5
6
100
AcDbSymbolTable
70
0
0
ENDTAB
0
TABLE
2
UCS
5
7
100
AcDbSymbolTable
70
0
0
ENDTAB
0
TABLE
2
APPID
5
9
100
AcDbSymbolTable
70
2
0
APPID
5
12
100
AcDbSymbolTableRecord
100
AcDbRegAppTableRecord
2
ACAD
70
0
0
ENDTAB
0
TABLE
2
DIMSTYLE
5
A
100
AcDbSymbolTable
70
1
0
ENDTAB
0
TABLE
2
BLOCK_RECORD
5
1
100
AcDbSymbolTable
70
1
0
BLOCK_RECORD
5
1F
100
AcDbSymbolTableRecord
100
AcDbBlockTableRecord
2
*MODEL_SPACE
0
BLOCK_RECORD
5
1B
100
AcDbSymbolTableRecord
100
AcDbBlockTableRecord
2
*PAPER_SPACE
0
ENDTAB
0
ENDSEC
0
SECTION
2
BLOCKS
0
BLOCK
5
20
100
AcDbEntity
100
AcDbBlockBegin
2
*MODEL_SPACE
0
ENDBLK
5
21
100
AcDbEntity
100
AcDbBlockEnd
0
BLOCK
5
1C
100
AcDbEntity
100
AcDbBlockBegin
2
*PAPER_SPACE
0
ENDBLK
5
1D
100
AcDbEntity
100
AcDbBlockEnd
0
ENDSEC
0
SECTION
2
ENTITIES
0
SPLINE
5
100
100
AcDbEntity
8
0
100
AcDbSpline
70
4
71
5
72
360
73
354
74
0
42
0.000000001
43
0.0000000001
44
0.0000000001
40
0
40
0
40
0
40
0
40
0
40
0
40
0.0028653295128939827
40
0.0057306590257879654
40
0.0085959885386819486
40
0.011461318051575931
40
0.014326647564469913
40
0.017191977077363897
40
0.020057306590257878
40
0.022922636103151862
40
0.025787965616045846
40
0.028653295128939826
40
0.03151862464183381
40
0.034383954154727794
40
0.037249283667621778
40
0.040114613180515755
40
0.042979942693409739
40
0.045845272206303724
40
0.048710601719197708
40
0.051575931232091692
40
0.054441260744985669
40
0.057306590257879653
40
0.060171919770773637
40
0.063037249283667621
40
0.065902578796561598
40
0.068767908309455589
40
0.071633237822349566
40
0.074498567335243557
40
0.077363896848137534
40
0.080229226361031511
40
0.083094555873925502
40
0.085959885386819479
40
0.08882521489971347
40
0.091690544412607447
40
0.094555873925501424
40
0.097421203438395415
40
0.10028653295128939
40
0.10315186246418338
40
0.10601719197707736
40
0.10888252148997134
40
0.11174785100286533
40
0.11461318051575931
40
0.1174785100286533
40
0.12034383954154727
40
0.12320916905444125
40
0.12607449856733524
40
0.12893982808022922
40
0.1318051575931232
40
0.1346704871060172
40
0.13753581661891118
40
0.14040114613180515
40
0.14326647564469913
40
0.14613180515759311
40
0.14899713467048711
40
0.15186246418338109
40
0.15472779369627507
40
0.15759312320916904
40
0.16045845272206302
40
0.16332378223495703
40
0.166189111747851
40
0.16905444126074498
40
0.17191977077363896
40
0.17478510028653294
40
0.17765042979942694
40
0.18051575931232092
40
0.18338108882521489
40
0.18624641833810887
40
0.18911174785100285
40
0.19197707736389685
40
0.19484240687679083
40
0.19770773638968481
40
0.20057306590257878
40
0.20343839541547276
40
0.20630372492836677
40
0.20916905444126074
40
0.21203438395415472
40
0.2148997134670487
40
0.21776504297994267
40
0.22063037249283668
40
0.22349570200573066
40
0.22636103151862463
40
0.22922636103151861
40
0.23209169054441259
40
0.23495702005730659
40
0.23782234957020057
40
0.24068767908309455
40
0.24355300859598852
40
0.2464183381088825
40
0.24928366762177651
40
0.25214899713467048
40
0.25501432664756446
40
0.25787965616045844
40
0.26074498567335241
40
0.26361031518624639
40
0.26647564469914037
40
0.2693409742120344
40
0.27220630372492838
40
0.27507163323782235
40
0.27793696275071633
40
0.28080229226361031
40
0.28366762177650429
40
0.28653295128939826
40
0.28939828080229224
40
0.29226361031518622
40
0.29512893982808019
40
0.29799426934097423
40
0.3008595988538682
40
0.30372492836676218
40
0.30659025787965616
40
0.30945558739255014
40
0.31232091690544411
40
0.31518624641833809
40
0.31805157593123207
40
0.32091690544412604
40
0.32378223495702002
40
0.32664756446991405
40
0.32951289398280803
40
0.33237822349570201
40
0.33524355300859598
40
0.33810888252148996
40
0.34097421203438394
40
0.34383954154727792
40
0.34670487106017189
40
0.34957020057306587
40
0.35243553008595985
40
0.35530085959885388
40
0.35816618911174786
40
0.36103151862464183
40
0.36389684813753581
40
0.36676217765042979
40
0.36962750716332377
40
0.37249283667621774
40
0.37535816618911172
40
0.3782234957020057
40
0.38108882521489973
40
0.38395415472779371
40
0.38681948424068768
40
0.38968481375358166
40
0.39255014326647564
40
0.39541547277936961
40
0.39828080229226359
40
0.40114613180515757
40
0.40401146131805155
40
0.40687679083094552
40
0.40974212034383956
40
0.41260744985673353
40
0.41547277936962751
40
0.41833810888252149
40
0.42120343839541546
40
0.42406876790830944
40
0.42693409742120342
40
0.42979942693409739
40
0.43266475644699137
40
0.43553008595988535
40
0.43839541547277938
40
0.44126074498567336
40
0.44412607449856734
40
0.44699140401146131
40
0.44985673352435529
40
0.45272206303724927
40
0.45558739255014324
40
0.45845272206303722
40
0.4613180515759312
40
0.46418338108882518
40
0.46704871060171921
40
0.46991404011461319
40
0.47277936962750716
40
0.47564469914040114
40
0.47851002865329512
40
0.48137535816618909
40
0.48424068767908307
40
0.48710601719197705
40
0.48997134670487102
40
0.492836676217765
40
0.49570200573065903
40
0.49856733524355301
40
0.50143266475644699
40
0.50429799426934097
40
0.50716332378223494
40
0.51002865329512892
40
0.5128939828080229
40
0.51575931232091687
40
0.51862464183381085
40
0.52148997134670483
40
0.52435530085959881
40
0.52722063037249278
40
0.53008595988538676
40
0.53295128939828074
40
0.53581661891117471
40
0.5386819484240688
40
0.54154727793696278
40
0.54441260744985676
40
0.54727793696275073
40
0.55014326647564471
40
0.55300859598853869
40
0.55587392550143266
40
0.55873925501432664
40
0.56160458452722062
40
0.5644699140401146
40
0.56733524355300857
40
0.57020057306590255
40
0.57306590257879653
40
0.5759312320916905
40
0.57879656160458448
40
0.58166189111747846
40
0.58452722063037243
40
0.58739255014326641
40
0.59025787965616039
40
0.59312320916905448
40
0.59598853868194845
40
0.59885386819484243
40
0.60171919770773641
40
0.60458452722063039
40
0.60744985673352436
40
0.61031518624641834
40
0.61318051575931232
40
0.61604584527220629
40
0.61891117478510027
40
0.62177650429799425
40
0.62464183381088823
40
0.6275071633237822
40
0.63037249283667618
40
0.63323782234957016
40
0.63610315186246413
40
0.63896848137535811
40
0.64183381088825209
40
0.64469914040114606
40
0.64756446991404004
40
0.65042979942693413
40
0.65329512893982811
40
0.65616045845272208
40
0.65902578796561606
40
0.66189111747851004
40
0.66475644699140402
40
0.66762177650429799
40
0.67048710601719197
40
0.67335243553008595
40
0.67621776504297992
40
0.6790830945558739
40
0.68194842406876788
40
0.68481375358166185
40
0.68767908309455583
40
0.69054441260744981
40
0.69340974212034379
40
0.69627507163323776
40
0.69914040114613174
40
0.70200573065902572
40
0.70487106017191969
40
0.70773638968481378
40
0.71060171919770776
40
0.71346704871060174
40
0.71633237822349571
40
0.71919770773638969
40
0.72206303724928367
40
0.72492836676217765
40
0.72779369627507162
40
0.7306590257879656
40
0.73352435530085958
40
0.73638968481375355
40
0.73925501432664753
40
0.74212034383954151
40
0.74498567335243548
40
0.74785100286532946
40
0.75071633237822344
40
0.75358166189111742
40
0.75644699140401139
40
0.75931232091690537
40
0.76217765042979946
40
0.76504297994269344
40
0.76790830945558741
40
0.77077363896848139
40
0.77363896848137537
40
0.77650429799426934
40
0.77936962750716332
40
0.7822349570200573
40
0.78510028653295127
40
0.78796561604584525
40
0.79083094555873923
40
0.79369627507163321
40
0.79656160458452718
40
0.79942693409742116
40
0.80229226361031514
40
0.80515759312320911
40
0.80802292263610309
40
0.81088825214899707
40
0.81375358166189105
40
0.81661891117478502
40
0.81948424068767911
40
0.82234957020057309
40
0.82521489971346706
40
0.82808022922636104
40
0.83094555873925502
40
0.833810888252149
40
0.83667621776504297
40
0.83954154727793695
40
0.84240687679083093
40
0.8452722063037249
40
0.84813753581661888
40
0.85100286532951286
40
0.85386819484240684
40
0.85673352435530081
40
0.85959885386819479
40
0.86246418338108877
40
0.86532951289398274
40
0.86819484240687672
40
0.8710601719197707
40
0.87392550143266468
40
0.87679083094555876
40
0.87965616045845274
40
0.88252148997134672
40
0.88538681948424069
40
0.88825214899713467
40
0.89111747851002865
40
0.89398280802292263
40
0.8968481375358166
40
0.89971346704871058
40
0.90257879656160456
40
0.90544412607449853
40
0.90830945558739251
40
0.91117478510028649
40
0.91404011461318047
40
0.91690544412607444
40
0.91977077363896842
40
0.9226361031518624
40
0.92550143266475637
40
0.92836676217765035
40
0.93123209169054444
40
0.93409742120343842
40
0.93696275071633239
40
0.93982808022922637
40
0.94269340974212035
40
0.94555873925501432
40
0.9484240687679083
40
0.95128939828080228
40
0.95415472779369626
40
0.95702005730659023
40
0.95988538681948421
40
0.96275071633237819
40
0.96561604584527216
40
0.96848137535816614
40
0.97134670487106012
40
0.9742120343839541
40
0.97707736389684807
40
0.97994269340974205
40
0.98280802292263603
40
0.98567335243553
40
0.98853868194842409
40
0.99140401146131807
40
0.99426934097421205
40
0.99713467048710602
40
1
40
1
40
1
40
1
40
1
40
1
41
1
41
1
41
1
41
1
41
1
41
1
41
1
41
1
41
1
41
1
41
1
41
1
41
1
41
1
41
1
41
1
41
1
41
1
41
1
41
1
41
1
41
1
41
1
41
1
41
1
41
1
41
1
41
1
41
1
41
1
41
1
41
1
41
1
41
1
41
1
41
1
41
1
41
1
41
1
41
1
41
1
41
1
41
1
41
1
41
1
41
1
41
1
41
1
41
1
41
1
41
1
41
1
41
1
41
1
41
1
41
1
41
1
41
1
41
1
41
1
41
1
41
1
41
1
41
1
41
1
41
1
41
1
41
1
41
1
41
1
41
1
41
1
41
1
41
1
41
1
41
1
41
1
41
1
41
1
41
1
41
1
41
1
41
1
41
1
41
1
41
1
41
1
41
1
41
1
41
1
41
1
41
1
41
1
41
1
41
1
41
1
41
1
41
1
41
1
41
1
41
1
41
1
41
1
41
1
41
1
41
1
41
1
41
1
41
1
41
1
41
1
41
1
41
1
41
1
41
1
41
1
41
1
41
1
41
1
41
1
41
1
41
1
41
1
41
1
41
1
41
1
41
1
41
1
41
1
41
1
41
1
41
1
41
1
41
1
41
1
41
1
41
1
41
1
41
1
41
1
41
1
41
1
41
1
41
1
41
1
41
1
41
1
41
1
41
1
41
1
41
1
41
1
41
1
41
1
41
1
41
1
41
1
41
1
41
1
41
1
41
1
41
1
41
1
41
1
41
1
41
1
41
1
41
1
41
1
41
1
41
1
41
1
41
1
41
1
41
1
41
1
41
1
41
1
41
1
41
1
41
1
41
1
41
1
41
1
41
1
41
1
41
1
41
1
41
1
41
1
41
1
41
1
41
1
41
1
41
1
41
1
41
1
41
1
41
1
41
1
41
1
41
1
41
1
41
1
41
1
41
1
41
1
41
1
41
1
41
1
41
1
41
1
41
1
41
1
41
1
41
1
41
1
41
1
41
1
41
1
41
1
41
1
41
1
41
1
41
1
41
1
41
1
41
1
41
1
41
1
41
1
41
1
41
1
41
1
41
1
41
1
41
1
41
1
41
1
41
1
41
1
41
1
41
1
41
1
41
1
41
1
41
1
41
1
41
1
41
1
41
1
41
1
41
1
41
1
41
1
41
1
41
1
41
1
41
1
41
1
41
1
41
1
41
1
41
1
41
1
41
1
41
1
41
1
41
1
41
1
41
1
41
1
41
1
41
1
41
1
41
1
41
1
41
1
41
1
41
1
41
1
41
1
41
1
41
1
41
1
41
1
41
1
41
1
41
1
41
1
41
1
41
1
41
1
41
1
41
1
41
1
41
1
41
1
41
1
41
1
41
1
41
1
41
1
41
1
41
1
41
1
41
1
41
1
41
1
41
1
41
1
41
1
41
1
41
1
41
1
41
1
41
1
41
1
41
1
41
1
41
1
41
1
41
1
41
1
41
1
41
1
41
1
41
1
41
1
41
1
41
1
41
1
41
1
41
1
41
1
41
1
41
1
41
1
41
1
41
1
41
1
41
1
41
1
41
1
41
1
41
1
41
1
41
1
41
1
41
1
41
1
41
1
41
1
41
1
10
6.0000000894069672
20
10.500000156462194
30
0
10
6.0650625143039258
20
10.484910757294026
30
0
10
6.1927785365100316
20
10.453892543025328
30
0
10
6.3775826394657775
20
10.405535283286012
30
0
10
6.6130363077838084
20
10.338435160595232
30
0
10
6.8973564834050123
20
10.247171814258284
30
0
10
7.1797339022698381
20
10.142853476278354
30
0
10
7.4659589697405027
20
10.020197511430117
30
0
10
7.7576666087309052
20
9.8771393303874646
30
0
10
8.0500030514555512
20
9.7181968976662159
30
0
10
8.3341036217535258
20
9.5520137713543711
30
0
10
8.6000575293946664
20
9.3882965148995208
30
0
10
8.8398487777976094
20
9.2348167925143052
30
0
10
9.0499678699671033
20
9.0947286996662235
30
0
10
9.2350370707600131
20
8.962870321809687
30
0
10
9.4054730208222512
20
8.8280775438001253
30
0
10
9.5729844079095869
20
8.6776768590186677
30
0
10
9.7469974042890701
20
8.5010551288526379
30
0
10
9.9301559690838488
20
8.2941285018169673
30
0
10
10.119686802647953
20
8.0581981946985231
30
0
10
10.309615609428613
20
7.7979918521545475
30
0
10
10.492709004453269
20
7.5199734248158716
30
0
10
10.662485423038495
20
7.2305703036247015
30
0
10
10.815320596234601
20
6.934354973644874
30
0
10
10.949711033373378
20
6.6341383825300939
30
0
10
11.065381144775976
20
6.3311930250435813
30
0
10
11.162406899992966
20
6.0254148750090311
30
0
10
11.240425496884141
20
5.7155413481795447
30
0
10
11.297577111932222
20
5.3992700501863418
30
0
10
11.330549255385149
20
5.07374106133725
30
0
10
11.335496557216196
20
4.7363012614367452
30
0
10
11.308709027906961
20
4.3851883126844369
30
0
10
11.247382584398565
20
4.0202465358713271
30
0
10
11.150348525558726
20
3.6436319240881643
30
0
10
11.018813315104403
20
3.2605143851619101
30
0
10
10.855765869854308
20
2.8782774002646843
30
0
10
10.665390267404902
20
2.5057265772783484
30
0
10
10.452487732642519
20
2.1522968584184552
30
0
10
10.221868888432457
20
1.8272559522609417
30
0
10
9.977819009132542
20
1.5389196364764173
30
0
10
9.7233838043941017
20
1.2938364619451947
30
0
10
9.4602905606688239
20
1.0960880516864815
30
0
10
9.1896087638263655
20
0.94676893511694271
30
0
10
8.9122292374096688
20
0.84336009646069132
30
0
10
8.6293958399101598
20
0.77927474349911485
30
0
10
8.3432653284212677
20
0.74302327638106058
30
0
10
8.057293970906489
20
0.71849462168667044
30
0
10
7.7759909506330205
20
0.68851370905666631
30
0
10
7.5048186045289587
20
0.63802621989108421
30
0
10
7.2499579006866348
20
0.55703354050823295
30
0
10
7.0183241711382314
20
0.4446105792835498
30
0
10
6.8165217462965968
20
0.30812391449742432
30
0
10
6.6486361358593848
20
0.1589107715812127
30
0
10
6.5150118007346425
20
0.0090944510616353721
30
0
10
6.4091130237356575
20
-0.13229879170297021
30
0
10
6.3217456923870241
20
-0.26164740955359173
30
0
10
6.2484862031528143
20
-0.38141695873360149
30
0
10
6.1987033371959752
20
-0.50276926664694199
30
0
10
6.1902081306352708
20
-0.63881319100524026
30
0
10
6.2340671879856826
20
-0.78993998298888213
30
0
10
6.3284572097628802
20
-0.93985505786800971
30
0
10
6.4663176176454149
20
-1.0703693458708716
30
0
10
6.6417452119411724
20
-1.1756820354999471
30
0
10
6.8524574282313484
20
-1.2657675778446718
30
0
10
7.0971624750293305
20
-1.3573101339573004
30
0
10
7.3745356574931549
20
-1.4686665446871914
30
0
10
7.6812212657837255
20
-1.6120210765637455
30
0
10
8.0118006294954345
20
-1.792449689821185
30
0
10
8.359565310713462
20
-2.0100935219681766
30
0
10
8.717051597315054
20
-2.2613946227198296
30
0
10
9.0766779578451651
20
-2.540728716649769
30
0
10
9.4313272822085956
20
-2.841844039135188
30
0
10
9.774979230749997
20
-3.159439665725885
30
0
10
10.103245012618917
20
-3.4905218836181695
30
0
10
10.412997658283023
20
-3.8338440182995437
30
0
10
10.702073284255595
20
-4.1894930257321077
30
0
10
10.96894281915726
20
-4.5584179240217697
30
0
10
11.212402253797652
20
-4.9419888764910622
30
0
10
11.431241186570162
20
-5.3415294540224734
30
0
10
11.623952945537992
20
-5.7578924617585798
30
0
10
11.788345567485482
20
-6.1909362997627877
30
0
10
11.921585583132634
20
-6.6394316738921599
30
0
10
12.020494896350796
20
-7.1012195757943974
30
0
10
12.08177041384805
20
-7.57329248905579
30
0
10
12.102235529444613
20
-8.051907385804423
30
0
10
12.079078203405565
20
-8.53268491087778
30
0
10
12.010094239878377
20
-9.0107147993982846
30
0
10
11.893929745189764
20
-9.480657811919599
30
0
10
11.730320125575172
20
-9.936851342732421
30
0
10
11.520067785089376
20
-10.373587329376637
30
0
10
11.265023366403007
20
-10.785385931857602
30
0
10
10.968067510527105
20
-11.167274000309584
30
0
10
10.633088385580754
20
-11.5150542638335
30
0
10
10.264970505613579
20
-11.825595387976939
30
0
10
9.869556779580396
20
-12.097073821129849
30
0
10
9.4536753958563597
20
-12.329331717250671
30
0
10
9.024960619149514
20
-12.523866140974604
30
0
10
8.5912580542797894
20
-12.68307418833106
30
0
10
8.1601152757784376
20
-12.809651887383707
30
0
10
7.7382438579458235
20
-12.905939649872838
30
0
10
7.3309809134937511
20
-12.973272223805896
30
0
10
6.9417802555229047
20
-13.011369286834707
30
0
10
6.5716203292729922
20
-13.017606678573674
30
0
10
6.2186564353339424
20
-12.98664093051177
30
0
10
5.8795401682251605
20
-12.912463091083445
30
0
10
5.5505321173184718
20
-12.790142676421892
30
0
10
5.2287495406984617
20
-12.617789268840491
30
0
10
4.9132300857227822
20
-12.398197114788619
30
0
10
4.6063807260571119
20
-12.141169324187429
30
0
10
4.3142417923055802
20
-11.863738605335325
30
0
10
4.0441431801617638
20
-11.585721132195781
30
0
10
3.8029695296938919
20
-11.326395462185026
30
0
10
3.5950299928698866
20
-11.100385737331905
30
0
10
3.4204477514135689
20
-10.914683040308091
30
0
10
3.2724665713034629
20
-10.76322205136635
30
0
10
3.1383766301899838
20
-10.629684488658773
30
0
10
3.0052176677389566
20
-10.501181182711964
30
0
10
2.8642498335860078
20
-10.379119773623627
30
0
10
2.7160435388686581
20
-10.291525399552262
30
0
10
2.5656684008910808
20
-10.274847894290351
30
0
10
2.4173554284724275
20
-10.353647467054106
30
0
10
2.2703330272191176
20
-10.525139527598972
30
0
10
2.1211515386556048
20
-10.770775740586849
30
0
10
1.9651604441351778
20
-11.064232007282694
30
0
10
1.7984744413283549
20
-11.381585394338515
30
0
10
1.619239035582567
20
-11.708118200612645
30
0
10
1.4269616516090846
20
-12.035490205215185
30
0
10
1.2221429243943105
20
-12.360416153655736
30
0
10
1.0057895674503179
20
-12.682751146343445
30
0
10
0.77898117066140482
20
-13.003840093704104
30
0
10
0.5424056624625232
20
-13.324726286326873
30
0
10
0.29593124417354683
20
-13.644497945183922
30
0
10
0.038797973221348522
20
-13.960709919947512
30
0
10
-0.23021312263729132
20
-14.26973313485915
30
0
10
-0.51260301362904992
20
-14.567128554642803
30
0
10
-0.80998008723410231
20
-14.848015468198312
30
0
10
-1.1238866662287541
20
-15.107431137940717
30
0
10
-1.4556198130238185
20
-15.340721138752302
30
0
10
-1.8060732923090081
20
-15.543820537531534
30
0
10
-2.1756132919854094
20
-15.71336541730961
30
0
10
-2.5639447159216733
20
-15.846847511556827
30
0
10
-2.9699841726896929
20
-15.942745653560188
30
0
10
-3.3917233527493451
20
-16.000680563008242
30
0
10
-3.8261122347204521
20
-16.021528285204013
30
0
10
-4.2688929385876255
20
-16.007632498190702
30
0
10
-4.7147281455632672
20
-15.962439562848845
30
0
10
-5.1574245644781858
20
-15.889962128359532
30
0
10
-5.5901168411188937
20
-15.79428962084088
30
0
10
-6.0054853263089756
20
-15.679102120092914
30
0
10
-6.3959191775809288
20
-15.547129648702409
30
0
10
-6.753796917436051
20
-15.399759407206412
30
0
10
-7.0714782910441212
20
-15.236262388899446
30
0
10
-7.34269599199963
20
-15.054924357672984
30
0
10
-7.5643970232103879
20
-14.854896988708362
30
0
10
-7.7386758969479432
20
-14.637956885168677
30
0
10
-7.8741431690050394
20
-14.409992260879967
30
0
10
-7.9888411788836668
20
-14.183373459445667
30
0
10
-8.1070243241531834
20
-13.975807251846575
30
0
10
-8.2489015337849896
20
-13.805556241441705
30
0
10
-8.4240988555754619
20
-13.688074942215689
30
0
10
-8.6194631260970862
20
-13.631098351105823
30
0
10
-8.8064679596808091
20
-13.634520196420269
30
0
10
-8.9598753036711383
20
-13.693408068933257
30
0
10
-9.0780151551916823
20
-13.800501285577342
30
0
10
-9.1852466449901158
20
-13.947561126581656
30
0
10
-9.3132067816275832
20
-14.124919051591922
30
0
10
-9.4850048559430498
20
-14.321318963001461
30
0
10
-9.7074678272417785
20
-14.524332326513054
30
0
10
-9.9776166386919023
20
-14.721816747121787
30
0
10
-10.285449105670381
20
-14.903152721447588
30
0
10
-10.618040570670633
20
-15.060445702433205
30
0
10
-10.96354131169711
20
-15.190045439651509
30
0
10
-11.31364316765592
20
-15.292894219176222
30
0
10
-11.662625082515238
20
-15.372672253477369
30
0
10
-12.007181374239744
20
-15.434465335842402
30
0
10
-12.345937383973942
20
-15.483155027579196
30
0
10
-12.679092313525009
20
-15.522084077057247
30
0
10
-13.008023809640697
20
-15.551214800858798
30
0
10
-13.334841749522026
20
-15.567116442687896
30
0
10
-13.661869209183276
20
-15.56449911145638
30
0
10
-13.991140718995911
20
-15.53732404904058
30
0
10
-14.323903893916645
20
-15.480063464930186
30
0
10
-14.660094669530654
20
-15.388953220439261
30
0
10
-14.997895722644856
20
-15.263084431684815
30
0
10
-15.334145956140457
20
-15.103536497914344
30
0
10
-15.664682381231838
20
-14.912670788434921
30
0
10
-15.984708342638696
20
-14.69335996854344
30
0
10
-16.28914909331478
20
-14.448251359992321
30
0
10
-16.573016142118725
20
-14.178999980494101
30
0
10
-16.831758327023724
20
-13.885558684156756
30
0
10
-17.061333647050073
20
-13.566717361555085
30
0
10
-17.258292435833393
20
-13.220600648959966
30
0
10
-17.419853712339066
20
-12.845173201314481
30
0
10
-17.543990381785488
20
-12.438759703667376
30
0
10
-17.629496858638085
20
-12.000516671753118
30
0
10
-17.676098631352748
20
-11.531029163688322
30
0
10
-17.684400508332473
20
-11.032419073552067
30
0
10
-17.655698841523375
20
-10.508039946689134
30
0
10
-17.591831998122572
20
-9.9622887227680721
30
0
10
-17.495015728172074
20
-9.4003698492239973
30
0
10
-17.36768372841081
20
-8.8280791355113504
30
0
10
-17.212328995989402
20
-8.2515808008274085
30
0
10
-17.03133784592459
20
-7.6771836286689066
30
0
10
-16.826843528871557
20
-7.1111265509978292
30
0
10
-16.600528980658215
20
-6.5593368686328208
30
0
10
-16.353723422381218
20
-6.0273496646855405
30
0
10
-16.087595191716627
20
-5.5202802102095836
30
0
10
-15.803312776924642
20
-5.0427787964155169
30
0
10
-15.502218869838789
20
-4.5989928251218783
30
0
10
-15.185999454234906
20
-4.1925259026645305
30
0
10
-14.856853613259338
20
-3.8263978582403633
30
0
10
-14.517666386633445
20
-3.5030051185439537
30
0
10
-14.172172461521662
20
-3.2240790388738327
30
0
10
-13.825145444187701
20
-2.9906502134236752
30
0
10
-13.481932413771831
20
-2.8028497304431061
30
0
10
-13.147956115314896
20
-2.6597005042469184
30
0
10
-12.828234588433736
20
-2.5589170601082984
30
0
10
-12.526880732579794
20
-2.4966906575815577
30
0
10
-12.246640326816276
20
-2.4675064906748014
30
0
10
-11.988331644413249
20
-2.4638788958838118
30
0
10
-11.751535809815488
20
-2.4769413865338272
30
0
10
-11.535518833474054
20
-2.4970878933667087
30
0
10
-11.3399047905376
20
-2.5146851630369698
30
0
10
-11.165871320938138
20
-2.5205323818713952
30
0
10
-11.013975223398409
20
-2.508034091894074
30
0
10
-10.881363799773736
20
-2.4755878781363485
30
0
10
-10.758730238723718
20
-2.4293935827098041
30
0
10
-10.639490059888884
20
-2.3745840093499559
30
0
10
-10.53668999060176
20
-2.2995133586349006
30
0
10
-10.477572302945005
20
-2.1793878607433141
30
0
10
-10.471077539540401
20
-2.0026656964045655
30
0
10
-10.493213069523932
20
-1.7833191945796281
30
0
10
-10.509601152362274
20
-1.5453479290099503
30
0
10
-10.491069349574078
20
-1.3122742584104139
30
0
10
-10.435204190885186
20
-1.0926002126692509
30
0
10
-10.360104789406757
20
-0.88332428886356951
30
0
10
-10.292361852373604
20
-0.67715845068537395
30
0
10
-10.256777146380019
20
-0.46863895728132265
30
0
10
-10.265906222876232
20
-0.26031898435800682
30
0
10
-10.323256013479416
20
-0.058178311084924501
30
0
10
-10.425644724279767
20
0.13199620831744055
30
0
10
-10.566086904574805
20
0.30946729321836292
30
0
10
-10.735590741611212
20
0.4790573512899039
30
0
10
-10.924436312176617
20
0.64872557958673216
30
0
10
-11.123457239152632
20
0.82809236628277816
30
0
10
-11.325660766151662
20
1.0263755517114297
30
0
10
-11.526128744462946
20
1.2515055425463981
30
0
10
-11.720863501858007
20
1.5098221992694241
30
0
10
-11.905901145129965
20
1.80558193403398
30
0
10
-12.076432513431675
20
2.1405910704764968
30
0
10
-12.225633176552629
20
2.5136673385969281
30
0
10
-12.344670384649277
20
2.9206062734357889
30
0
10
-12.424294015953246
20
3.3547943633202659
30
0
10
-12.456048644605675
20
3.8076591249494829
30
0
10
-12.433600941223917
20
4.2691910186172279
30
0
10
-12.354105964136915
20
4.7284209835408806
30
0
10
-12.219351253634127
20
5.1739486422425598
30
0
10
-12.037500902954829
20
5.59437103383181
30
0
10
-11.822733108964254
20
5.9790408425495079
30
0
10
-11.592050119250967
20
6.3192771697441943
30
0
10
-11.36282293584742
20
6.6094385186526683
30
0
10
-11.14997240467657
20
6.8481064134060885
30
0
10
-10.963457421334057
20
7.0390959770092421
30
0
10
-10.805268217913826
20
7.1928438284763612
30
0
10
-10.66772761279166
20
7.3266851493721621
30
0
10
-10.538901761999576
20
7.4578913320365858
30
0
10
-10.40688329788882
20
7.5985726795931106
30
0
10
-10.265053539303304
20
7.7477131037753733
30
0
10
-10.113660823595158
20
7.8962458616842079
30
0
10
-9.9596993823798421
20
8.0361723430508185
30
0
10
-9.8569615019860315
20
8.1800420346795946
30
0
10
-9.7999997809529305
20
8.2999998144805431
30
0
10
-9.7450472591036004
20
8.4899583995847934
30
0
10
-9.727829683275532
20
8.7310044611777258
30
0
10
-9.7317398560035571
20
8.9564065474341046
30
0
10
-9.8440696768194496
20
9.2185335844126435
30
0
10
-9.9813078386887746
20
9.4743612102047123
30
0
10
-10.124097064313828
20
9.7107273493508153
30
0
10
-10.253111336690433
20
9.9363182234737462
30
0
10
-10.376242401780901
20
10.147208395621297
30
0
10
-10.471808936630447
20
10.379295811530762
30
0
10
-10.542957761872556
20
10.643278527930011
30
0
10
-10.588659241578842
20
10.946844890538239
30
0
10
-10.608627399379566
20
11.287673820850374
30
0
10
-10.603156716801026
20
11.657260414683908
30
0
10
-10.572832752904462
20
12.043306378426335
30
0
10
-10.439955170459212
20
12.814478448029725
30
0
10
-10.33777864849583
20
13.182340741481378
30
0
10
-10.211263677779758
20
13.534522249932227
30
0
10
-10.059587065110202
20
13.871755750817234
30
0
10
-9.8816882028217137
20
14.195978451295614
30
0
10
-9.6763662000951705
20
14.508775043778208
30
0
10
-3.3894290040293988
20
14.648956650987923
30
0
10
-3.0628231272790578
20
14.319406845277673
30
0
10
-2.7906917784474672
20
13.959644883152727
30
0
10
-2.578738519872108
20
13.568351627507644
30
0
10
-2.4304338580547635
20
13.145474948623752
30
0
10
-2.3464182751120024
20
12.693354300805044
30
0
10
-2.3240160782344894
20
12.217691152798428
30
0
10
-2.3564743615969661
20
11.728935138792751
30
0
10
-2.433076151380936
20
11.242327041034057
30
0
10
-2.5410315686976519
20
10.775184599602232
30
0
10
-2.667025089463777
20
10.344742167238907
30
0
10
-2.798836992056104
20
9.9658240775011802
30
0
10
-2.9270778144247216
20
9.6484630201198645
30
0
10
-3.0465371274540818
20
9.395835338556596
30
0
10
-3.1986200511468006
20
9.2152169374525847
30
0
10
-3.3168610602575983
20
9.083637298456269
30
0
10
-3.4212494792673658
20
8.9759507699131635
30
0
10
-3.5400001681409776
20
8.830000419402495
30
0
10
-3.6499999184161425
20
8.6499998066574335
30
0
10
-3.695122541971215
20
8.4216712685563202
30
0
10
-3.7207258494283666
20
8.179809751374135
30
0
10
-3.6788235479149156
20
7.9043816187539235
30
0
10
-3.56548534995907
20
7.6182292212543068
30
0
10
-3.3861086912513798
20
7.3490916519666003
30
0
10
-3.155724234561653
20
7.1229647041739259
30
0
10
-2.8981803647923128
20
6.9575371834893396
30
0
10
-2.6471447120656562
20
6.8538819543723939
30
0
10
-2.4359638348588564
20
6.8022259379691361
30
0
10
-2.2850401929921178
20
6.7910932708009097
30
0
10
-2.1898849519054813
20
6.8153753347059789
30
0
10
-2.1093223959754157
20
6.8846314463471412
30
0
10
-1.9978638340717658
20
7.0086178506963579
30
0
10
-1.8381947333919837
20
7.1828424569349636
30
0
10
-1.632820266114432
20
7.3930186085458525
30
0
10
-1.3945194960777449
20
7.6200764703974988
30
0
10
-1.1380525105741659
20
7.8446080835849274
30
0
10
-0.86935114363490495
20
8.0524302593925654
30
0
10
-0.58558566347847163
20
8.2353367388493819
30
0
10
-0.28111106135768466
20
8.3892514623828767
30
0
10
0.048383318650341733
20
8.5131767285841313
30
0
10
0.4010201190134785
20
8.6078284427320373
30
0
10
0.76408778993002746
20
8.6743678633238073
30
0
10
1.1095430837395179
20
8.7131849292551813
30
0
10
1.4051152667418063
20
8.7267894153894137
30
0
10
1.6260326311842619
20
8.7230577296497369
30
0
10
1.7649757477344519
20
8.7175553889924213
30
0
10
1.8464588473359489
20
8.7381486571392646
30
0
10
1.9262963028703162
20
8.8217175452173926
30
0
10
2.0517154243750384
20
8.9876670062920478
30
0
10
2.2451382109065978
20
9.2284454894011212
30
0
10
2.5124306437647626
20
9.5200979059312179
30
0
10
2.8460690769047114
20
9.8284212477326403
30
0
10
3.2304256590943359
20
10.117143017134758
30
0
10
3.6458966642866368
20
10.354604343563183
30
0
10
4.0741509224369308
20
10.522644643214035
30
0
10
4.5004351364131567
20
10.618380608433924
30
0
10
4.9131541420550997
20
10.649054677911387
30
0
10
5.3041786018961856
20
10.628751317636596
30
0
10
5.5959204357482317
20
10.585231454145346
30
0
10
5.8024039871281099
20
10.544428938034327
30
0
10
5.9349376645099285
20
10.515089555630377
30
0
10
6.0000000894069672
20
10.500000156462194
30
0
0
CIRCLE
5
101
100
AcDbEntity
8
0
100
AcDbCircle
10
-6.4740103231351824
20
12.03965379568891
30
0
40
4.3250000000000002
210
0
220
0
230
1
0
ENDSEC
0
SECTION
2
OBJECTS
0
DICTIONARY
5
C
100
AcDbDictionary
3
ACAD_GROUP
350
D
3
ACAD_MLINESTYLE
350
17
0
DICTIONARY
5
D
100
AcDbDictionary
0
DICTIONARY
5
1A
330
C
100
AcDbDictionary
0
DICTIONARY
5
17
100
AcDbDictionary
0
ENDSEC
0
EOF
