0
SECTION
2
HEADER
9
$INSUNITS
70
4
9
$ACADVER
1
AC1014
9
$HANDSEED
5
FFFF
0
ENDSEC
0
SECTION
2
TABLES
0
TABLE
2
VPORT
5
8
100
AcDbSymbolTable
0
ENDTAB
0
TABLE
2
LTYPE
5
5
100
AcDbSymbolTable
0
LTYPE
5
14
100
AcDbSymbolTableRecord
100
AcDbLinetypeTableRecord
2
BYBLOCK
70
0
0
LTYPE
5
15
100
AcDbSymbolTableRecord
100
AcDbLinetypeTableRecord
2
BYLAYER
70
0
0
ENDTAB
0
TABLE
2
LAYER
5
2
100
AcDbSymbolTable
70
2
0
LAYER
5
50
100
AcDbSymbolTableRecord
100
AcDbLayerTableRecord
2
0
70
0
6
CONTINUOUS
0
ENDTAB
0
TABLE
2
STYLE
5
3
100
AcDbSymbolTable
70
1
0
STYLE
5
11
100
AcDbSymbolTableRecord
100
AcDbTextStyleTableRecord
2
STANDARD
70
0
0
ENDTAB
0
TABLE
2
VIEW
5
6
100
AcDbSymbolTable
70
0
0
ENDTAB
0
TABLE
2
UCS
5
7
100
AcDbSymbolTable
70
0
0
ENDTAB
0
TABLE
2
APPID
5
9
100
AcDbSymbolTable
70
2
0
APPID
5
12
100
AcDbSymbolTableRecord
100
AcDbRegAppTableRecord
2
ACAD
70
0
0
ENDTAB
0
TABLE
2
DIMSTYLE
5
A
100
AcDbSymbolTable
70
1
0
ENDTAB
0
TABLE
2
BLOCK_RECORD
5
1
100
AcDbSymbolTable
70
1
0
BLOCK_RECORD
5
1F
100
AcDbSymbolTableRecord
100
AcDbBlockTableRecord
2
*MODEL_SPACE
0
BLOCK_RECORD
5
1B
100
AcDbSymbolTableRecord
100
AcDbBlockTableRecord
2
*PAPER_SPACE
0
ENDTAB
0
ENDSEC
0
SECTION
2
BLOCKS
0
BLOCK
5
20
100
AcDbEntity
100
AcDbBlockBegin
2
*MODEL_SPACE
0
ENDBLK
5
21
100
AcDbEntity
100
AcDbBlockEnd
0
BLOCK
5
1C
100
AcDbEntity
100
AcDbBlockBegin
2
*PAPER_SPACE
0
ENDBLK
5
1D
100
AcDbEntity
100
AcDbBlockEnd
0
ENDSEC
0
SECTION
2
ENTITIES
0
SPLINE
5
100
100
AcDbEntity
8
0
100
AcDbSpline
70
6
71
5
72
56
73
50
74
0
42
0.000000001
43
0.0000000001
44
0.0000000001
40
0
40
0
40
0
40
0
40
0
40
0
40
0.022222222222222223
40
0.044444444444444446
40
0.066666666666666666
40
0.088888888888888892
40
0.11111111111111112
40
0.13333333333333333
40
0.15555555555555556
40
0.17777777777777778
40
0.20000000000000001
40
0.22222222222222224
40
0.24444444444444446
40
0.26666666666666666
40
0.28888888888888886
40
0.31111111111111106
40
0.33333333333333326
40
0.35555555555555546
40
0.37777777777777766
40
0.39999999999999986
40
0.42222222222222205
40
0.44444444444444425
40
0.46666666666666645
40
0.48888888888888865
40
0.51111111111111085
40
0.5333333333333331
40
0.55555555555555536
40
0.57777777777777761
40
0.59999999999999987
40
0.62222222222222212
40
0.64444444444444438
40
0.66666666666666663
40
0.68888888888888888
40
0.71111111111111114
40
0.73333333333333339
40
0.75555555555555565
40
0.7777777777777779
40
0.80000000000000016
40
0.82222222222222241
40
0.84444444444444466
40
0.86666666666666692
40
0.88888888888888917
40
0.91111111111111143
40
0.93333333333333368
40
0.95555555555555594
40
0.97777777777777819
40
1
40
1
40
1
40
1
40
1
40
1
41
1
41
1
41
1
41
1
41
1
41
1
41
1
41
1
41
1
41
1
41
1
41
1
41
1
41
1
41
1
41
1
41
1
41
1
41
1
41
1
41
1
41
1
41
1
41
1
41
1
41
1
41
1
41
1
41
1
41
1
41
1
41
1
41
1
41
1
41
1
41
1
41
1
41
1
41
1
41
1
41
1
41
1
41
1
41
1
41
1
41
1
41
1
41
1
41
1
41
1
10
-11.231860501178989
20
-4.2705152294763185
30
0
10
-11.336824160115359
20
-4.2470428073317903
30
0
10
-11.545933247330636
20
-4.2101117702133832
30
0
10
-11.85520074780835
20
-4.1859078121599653
30
0
10
-12.252946929402677
20
-4.2184864718313673
30
0
10
-12.71891647511471
20
-4.3651094933362309
30
0
10
-13.152383462943334
20
-4.6095253172364643
30
0
10
-13.555625345495413
20
-4.939989992264552
30
0
10
-13.93230324025469
20
-5.3436547556352343
30
0
10
-14.286298934290716
20
-5.8076787590036805
30
0
10
-14.620913607864992
20
-6.319833823762103
30
0
10
-14.937918254144273
20
-6.8693224003554318
30
0
10
-15.236727391536789
20
-7.4474030730868375
30
0
10
-15.5133456937865
20
-8.0483748770021162
30
0
10
-15.760638071244056
20
-8.6684575553849026
30
0
10
-15.968955557731432
20
-9.3041625790485192
30
0
10
-16.126600933759892
20
-9.9507769395776506
30
0
10
-16.220428529958181
20
-10.600932010613622
30
0
10
-16.236208368963975
20
-11.242802723400594
30
0
10
-16.159637525472185
20
-11.859481153105341
30
0
10
-15.979037620101854
20
-12.431683769264803
30
0
10
-15.687883357328055
20
-12.939918662290674
30
0
10
-15.287155433747033
20
-13.366718467630214
30
0
10
-14.788417013814355
20
-13.699200577816766
30
0
10
-14.21463030747773
20
-13.930388757880415
30
0
10
-13.595035705250327
20
-14.057196097948539
30
0
10
-12.961076427916574
20
-14.078996756344132
30
0
10
-12.342125288856154
20
-13.996102931249146
30
0
10
-11.760813638051404
20
-13.807996203991324
30
0
10
-11.230015710760581
20
-13.512591056781078
30
0
10
-10.755492324570731
20
-13.108969690481928
30
0
10
-10.337549171175603
20
-12.59954871133921
30
0
10
-9.9730560125269925
20
-11.992447128046649
30
0
10
-9.657308014247274
20
-11.303874981944226
30
0
10
-9.3859099443133651
20
-10.560305174020026
30
0
10
-9.1555572325476859
20
-9.7938958520517865
30
0
10
-8.9648812490996015
20
-9.0381620157867939
30
0
10
-8.8152532579368668
20
-8.323610255870534
30
0
10
-8.7116589996589102
20
-7.673275704880699
30
0
10
-8.6634435926291964
20
-7.0985320114435506
30
0
10
-8.6854249648043282
20
-6.5940546499832795
30
0
10
-8.7936627781969232
20
-6.1444691950799584
30
0
10
-9.0004035372408051
20
-5.7325060818862354
30
0
10
-9.3099129580570725
20
-5.3458022900636104
30
0
10
-9.7124336481930147
20
-4.9862279911823206
30
0
10
-10.186031056857468
20
-4.6687486461733343
30
0
10
-10.59951971731371
20
-4.4652745256684723
30
0
10
-10.916151293712399
20
-4.3509463030805602
30
0
10
-11.126896842242619
20
-4.2939876516208475
30
0
10
-11.231860501178989
20
-4.2705152294763185
30
0
0
ENDSEC
0
SECTION
2
OBJECTS
0
DICTIONARY
5
C
100
AcDbDictionary
3
ACAD_GROUP
350
D
3
ACAD_MLINESTYLE
350
17
0
DICTIONARY
5
D
100
AcDbDictionary
0
DICTIONARY
5
1A
330
C
100
AcDbDictionary
0
DICTIONARY
5
17
100
AcDbDictionary
0
ENDSEC
0
EOF
