0
SECTION
2
HEADER
9
$INSUNITS
70
4
9
$ACADVER
1
AC1014
9
$HANDSEED
5
FFFF
0
ENDSEC
0
SECTION
2
TABLES
0
TABLE
2
VPORT
5
8
100
AcDbSymbolTable
0
ENDTAB
0
TABLE
2
LTYPE
5
5
100
AcDbSymbolTable
0
LTYPE
5
14
100
AcDbSymbolTableRecord
100
AcDbLinetypeTableRecord
2
BYBLOCK
70
0
0
LTYPE
5
15
100
AcDbSymbolTableRecord
100
AcDbLinetypeTableRecord
2
BYLAYER
70
0
0
ENDTAB
0
TABLE
2
LAYER
5
2
100
AcDbSymbolTable
70
2
0
LAYER
5
50
100
AcDbSymbolTableRecord
100
AcDbLayerTableRecord
2
0
70
0
6
CONTINUOUS
0
ENDTAB
0
TABLE
2
STYLE
5
3
100
AcDbSymbolTable
70
1
0
STYLE
5
11
100
AcDbSymbolTableRecord
100
AcDbTextStyleTableRecord
2
STANDARD
70
0
0
ENDTAB
0
TABLE
2
VIEW
5
6
100
AcDbSymbolTable
70
0
0
ENDTAB
0
TABLE
2
UCS
5
7
100
AcDbSymbolTable
70
0
0
ENDTAB
0
TABLE
2
APPID
5
9
100
AcDbSymbolTable
70
2
0
APPID
5
12
100
AcDbSymbolTableRecord
100
AcDbRegAppTableRecord
2
ACAD
70
0
0
ENDTAB
0
TABLE
2
DIMSTYLE
5
A
100
AcDbSymbolTable
70
1
0
ENDTAB
0
TABLE
2
BLOCK_RECORD
5
1
100
AcDbSymbolTable
70
1
0
BLOCK_RECORD
5
1F
100
AcDbSymbolTableRecord
100
AcDbBlockTableRecord
2
*MODEL_SPACE
0
BLOCK_RECORD
5
1B
100
AcDbSymbolTableRecord
100
AcDbBlockTableRecord
2
*PAPER_SPACE
0
ENDTAB
0
ENDSEC
0
SECTION
2
BLOCKS
0
BLOCK
5
20
100
AcDbEntity
100
AcDbBlockBegin
2
*MODEL_SPACE
0
ENDBLK
5
21
100
AcDbEntity
100
AcDbBlockEnd
0
BLOCK
5
1C
100
AcDbEntity
100
AcDbBlockBegin
2
*PAPER_SPACE
0
ENDBLK
5
1D
100
AcDbEntity
100
AcDbBlockEnd
0
ENDSEC
0
SECTION
2
ENTITIES
0
SPLINE
5
100
100
AcDbEntity
8
0
100
AcDbSpline
70
4
71
5
72
152
73
146
74
0
42
0.000000001
43
0.0000000001
44
0.0000000001
40
0
40
0
40
0
40
0
40
0
40
0
40
0.0070921985815602835
40
0.014184397163120567
40
0.021276595744680851
40
0.028368794326241134
40
0.035460992907801414
40
0.042553191489361701
40
0.049645390070921988
40
0.056737588652482268
40
0.063829787234042548
40
0.070921985815602828
40
0.078014184397163122
40
0.085106382978723402
40
0.092198581560283682
40
0.099290780141843976
40
0.10638297872340426
40
0.11347517730496454
40
0.12056737588652482
40
0.1276595744680851
40
0.13475177304964539
40
0.14184397163120566
40
0.14893617021276595
40
0.15602836879432624
40
0.16312056737588651
40
0.1702127659574468
40
0.1773049645390071
40
0.18439716312056736
40
0.19148936170212766
40
0.19858156028368795
40
0.20567375886524822
40
0.21276595744680851
40
0.21985815602836878
40
0.22695035460992907
40
0.23404255319148937
40
0.24113475177304963
40
0.24822695035460993
40
0.25531914893617019
40
0.26241134751773049
40
0.26950354609929078
40
0.27659574468085107
40
0.28368794326241131
40
0.29078014184397161
40
0.2978723404255319
40
0.30496453900709219
40
0.31205673758865249
40
0.31914893617021278
40
0.32624113475177302
40
0.33333333333333331
40
0.34042553191489361
40
0.3475177304964539
40
0.3546099290780142
40
0.36170212765957444
40
0.36879432624113473
40
0.37588652482269502
40
0.38297872340425532
40
0.39007092198581561
40
0.3971631205673759
40
0.40425531914893614
40
0.41134751773049644
40
0.41843971631205673
40
0.42553191489361702
40
0.43262411347517732
40
0.43971631205673756
40
0.44680851063829785
40
0.45390070921985815
40
0.46099290780141844
40
0.46808510638297873
40
0.47517730496453897
40
0.48226950354609927
40
0.48936170212765956
40
0.49645390070921985
40
0.50354609929078009
40
0.51063829787234039
40
0.51773049645390068
40
0.52482269503546097
40
0.53191489361702127
40
0.53900709219858156
40
0.54609929078014185
40
0.55319148936170215
40
0.56028368794326244
40
0.56737588652482263
40
0.57446808510638292
40
0.58156028368794321
40
0.58865248226950351
40
0.5957446808510638
40
0.6028368794326241
40
0.60992907801418439
40
0.61702127659574468
40
0.62411347517730498
40
0.63120567375886527
40
0.63829787234042556
40
0.64539007092198575
40
0.65248226950354604
40
0.65957446808510634
40
0.66666666666666663
40
0.67375886524822692
40
0.68085106382978722
40
0.68794326241134751
40
0.69503546099290781
40
0.7021276595744681
40
0.70921985815602839
40
0.71631205673758869
40
0.72340425531914887
40
0.73049645390070916
40
0.73758865248226946
40
0.74468085106382975
40
0.75177304964539005
40
0.75886524822695034
40
0.76595744680851063
40
0.77304964539007093
40
0.78014184397163122
40
0.78723404255319152
40
0.79432624113475181
40
0.80141843971631199
40
0.80851063829787229
40
0.81560283687943258
40
0.82269503546099287
40
0.82978723404255317
40
0.83687943262411346
40
0.84397163120567376
40
0.85106382978723405
40
0.85815602836879434
40
0.86524822695035464
40
0.87234042553191482
40
0.87943262411347511
40
0.88652482269503541
40
0.8936170212765957
40
0.900709219858156
40
0.90780141843971629
40
0.91489361702127658
40
0.92198581560283688
40
0.92907801418439717
40
0.93617021276595747
40
0.94326241134751776
40
0.95035460992907794
40
0.95744680851063824
40
0.96453900709219853
40
0.97163120567375882
40
0.97872340425531912
40
0.98581560283687941
40
0.99290780141843971
40
1
40
1
40
1
40
1
40
1
40
1
41
1
41
1
41
1
41
1
41
1
41
1
41
1
41
1
41
1
41
1
41
1
41
1
41
1
41
1
41
1
41
1
41
1
41
1
41
1
41
1
41
1
41
1
41
1
41
1
41
1
41
1
41
1
41
1
41
1
41
1
41
1
41
1
41
1
41
1
41
1
41
1
41
1
41
1
41
1
41
1
41
1
41
1
41
1
41
1
41
1
41
1
41
1
41
1
41
1
41
1
41
1
41
1
41
1
41
1
41
1
41
1
41
1
41
1
41
1
41
1
41
1
41
1
41
1
41
1
41
1
41
1
41
1
41
1
41
1
41
1
41
1
41
1
41
1
41
1
41
1
41
1
41
1
41
1
41
1
41
1
41
1
41
1
41
1
41
1
41
1
41
1
41
1
41
1
41
1
41
1
41
1
41
1
41
1
41
1
41
1
41
1
41
1
41
1
41
1
41
1
41
1
41
1
41
1
41
1
41
1
41
1
41
1
41
1
41
1
41
1
41
1
41
1
41
1
41
1
41
1
41
1
41
1
41
1
41
1
41
1
41
1
41
1
41
1
41
1
41
1
41
1
41
1
41
1
41
1
41
1
41
1
41
1
41
1
41
1
41
1
41
1
41
1
41
1
41
1
41
1
41
1
41
1
41
1
41
1
41
1
41
1
10
-1.499900058891297
20
-2.0614748472103881
30
0
10
-1.4520715287726547
20
-2.1021198843933493
30
0
10
-1.3219997147754348
20
-2.2305732029530074
30
0
10
-1.043975280609718
20
-2.5481350518303332
30
0
10
-0.67777462026701718
20
-2.9696463485394982
30
0
10
-0.28174505966064883
20
-3.4492012087178954
30
0
10
0.082894066026143409
20
-3.9372930278598695
30
0
10
0.37675370661323959
20
-4.3994549932747677
30
0
10
0.58941149460747122
20
-4.8222570733978767
30
0
10
0.72860706698037903
20
-5.206356369061008
30
0
10
0.81429352930939547
20
-5.5630209085080597
30
0
10
0.87044289547223996
20
-5.9091188420336538
30
0
10
0.91844617740544587
20
-6.26305275875366
30
0
10
0.96826134580165601
20
-6.6395791795625936
30
0
10
1.0170091435591928
20
-7.0480390042900654
30
0
10
1.0538806922736592
20
-7.4934092627176909
30
0
10
1.0632293275670888
20
-7.9765699738956677
30
0
10
1.0285126581530744
20
-8.4948866821758422
30
0
10
0.935620299824105
20
-9.0426668414163238
30
0
10
0.77707284076994065
20
-9.6116443331385302
30
0
10
0.55375886599083135
20
-10.191537430733373
30
0
10
0.27249440155031079
20
-10.770792211778312
30
0
10
-0.055477873467583351
20
-11.337280404102927
30
0
10
-0.41637018514795981
20
-11.879017860056988
30
0
10
-0.7955556828896182
20
-12.384868599815723
30
0
10
-1.1793767306567
20
-12.845268243131587
30
0
10
-1.5568459355407518
20
-13.252909377855975
30
0
10
-1.9215453863367105
20
-13.603516095820307
30
0
10
-2.2729937108897174
20
-13.896367339252498
30
0
10
-2.614603393658101
20
-14.133183483006794
30
0
10
-2.9520448959181715
20
-14.317214503347746
30
0
10
-3.2913922547886139
20
-14.452209143629503
30
0
10
-3.6375052775248577
20
-14.541530829771776
30
0
10
-3.9919608528129458
20
-14.586977249180732
30
0
10
-4.352409179105754
20
-14.588547926239626
30
0
10
-4.7140534852738973
20
-14.545606144776841
30
0
10
-5.0706690082817083
20
-14.457767104851751
30
0
10
-5.4157171407526441
20
-14.325775795793669
30
0
10
-5.7436367687218839
20
-14.15268164558773
30
0
10
-6.0502609239077634
20
-13.943819861053155
30
0
10
-6.3320750987999759
20
-13.705281045463273
30
0
10
-6.5857244179263352
20
-13.442669853164411
30
0
10
-6.8075174603489224
20
-13.159946894713039
30
0
10
-6.9926962009570124
20
-12.857751326524621
30
0
10
-7.1356280459355679
20
-12.533632396257467
30
0
10
-7.2313881111282718
20
-12.185113247210641
30
0
10
-7.2771103987737433
20
-11.812303660313182
30
0
10
-7.2732210679544167
20
-11.420223608858693
30
0
10
-7.2252348939307787
20
-11.022391720435538
30
0
10
-7.1434600262996248
20
-10.639759414714936
30
0
10
-7.039986763085655
20
-10.293686965563243
30
0
10
-6.9261842608371005
20
-9.9999259397465146
30
0
10
-6.810355507701324
20
-9.7632214358991494
30
0
10
-6.694434814556347
20
-9.5691341368920408
30
0
10
-6.5745825061433081
20
-9.3869001547942545
30
0
10
-6.4457906085192533
20
-9.1835722771687838
30
0
10
-6.3054536074604695
20
-8.9353003675503864
30
0
10
-6.1572302527542364
20
-8.639292073793218
30
0
10
-6.0093639408577566
20
-8.3066656515324873
30
0
10
-5.8732282302841963
20
-7.955840478651881
30
0
10
-5.7617887910483292
20
-7.6061054935832129
30
0
10
-5.6880916491224811
20
-7.2701983117060101
30
0
10
-5.6637775131528123
20
-6.9502495848460804
30
0
10
-5.6977854869366906
20
-6.642360060291379
30
0
10
-5.7949424751407408
20
-6.3396274332568971
30
0
10
-5.9547578576397511
20
-6.0355697693266395
30
0
10
-6.1697148881865633
20
-5.7279388750397322
30
0
10
-6.4270728455637229
20
-5.4178907728556593
30
0
10
-6.7114050246355887
20
-5.1080758367620192
30
0
10
-7.0069759030285024
20
-4.8010280343737683
30
0
10
-7.2999778174965169
20
-4.497600511632271
30
0
10
-7.5813297184322614
20
-4.1949656495548142
30
0
10
-7.8475490843165785
20
-3.8861971518168188
30
0
10
-8.0975446193412264
20
-3.5632221323351976
30
0
10
-8.3303929817747129
20
-3.218972834973584
30
0
10
-8.542470148873246
20
-2.850038166082272
30
0
10
-8.7254400829625425
20
-2.458687998140249
30
0
10
-8.8624098857777209
20
-2.0562122441287176
30
0
10
-8.9318941082775183
20
-1.6606603259734454
30
0
10
-8.9158093894138961
20
-1.2915959642732686
30
0
10
-8.8068159133849271
20
-0.96550964071639322
30
0
10
-8.6146392191507353
20
-0.69153248473895745
30
0
10
-8.3760376480928151
20
-0.46559751238015173
30
0
10
-8.1494346076893791
20
-0.27133571112359672
30
0
10
-7.9959913572996104
20
-0.086773405114317942
30
0
10
-7.9660910250883434
20
0.11101883360683698
30
0
10
-8.0800113455029337
20
0.33953499443662333
30
0
10
-8.326703761172249
20
0.60911422697701867
30
0
10
-8.6750615555690267
20
0.92430585649703301
30
0
10
-9.0815562106050294
20
1.2843479455680609
30
0
10
-9.4993876970327502
20
1.6840072228298297
30
0
10
-9.8869252540253072
20
2.1142649427380382
30
0
10
-10.21661605000954
20
2.5630606533298694
30
0
10
-10.47283936149041
20
3.0166723305231828
30
0
10
-10.649600962233867
20
3.4611409645952462
30
0
10
-10.748304825687576
20
3.883639045150983
30
0
10
-10.775453492257403
20
4.2739506175881594
30
0
10
-10.740477745314621
20
4.6256998981617041
30
0
10
-10.65327036574778
20
4.9382003420599423
30
0
10
-10.522907837443285
20
5.2157646070057497
30
0
10
-10.357190718733859
20
5.4651353763820767
30
0
10
-10.161995444496295
20
5.6935518861371968
30
0
10
-9.9405860300524314
20
5.9063661841012829
30
0
10
-9.6933009667829317
20
6.1054324501901149
30
0
10
-9.4187057467899393
20
6.2898602495524747
30
0
10
-9.1145344565963384
20
6.4563904435845041
30
0
10
-8.7786518650863297
20
6.599935521477863
30
0
10
-8.4101621476086201
20
6.7140046029057077
30
0
10
-8.0096324508204138
20
6.7914154163495608
30
0
10
-7.5788843889124262
20
6.8251225914909153
30
0
10
-7.1209232012068231
20
6.8090022000833379
30
0
10
-6.6398108980834669
20
6.7386728220696952
30
0
10
-6.1405618370689572
20
6.6122589151208766
30
0
10
-5.6290342654316206
20
6.431293433589226
30
0
10
-5.1117551397784791
20
6.2000879722992108
30
0
10
-4.5957347548808638
20
5.9249275622226341
30
0
10
-4.0882854201691723
20
5.6133246438702962
30
0
10
-3.5968383079908839
20
5.2732573713943545
30
0
10
-3.1287616797328646
20
4.9123945872620975
30
0
10
-2.6911772600235602
20
4.5373738212945387
30
0
10
-2.2907803368091777
20
4.1529427502118255
30
0
10
-1.9336488908837834
20
3.7615067898190579
30
0
10
-1.6250112183780396
20
3.3642101212505309
30
0
10
-1.3690197314376895
20
2.9618008019484336
30
0
10
-1.1685218789269816
20
2.5555396950823388
30
0
10
-1.0248321293041629
20
2.1481832012214115
30
0
10
-0.93750242105672332
20
1.7447186932065666
30
0
10
-0.90409292437968802
20
1.3537502625955733
30
0
10
-0.91997587485265775
20
0.98601412522039245
30
0
10
-0.97827206705858383
20
0.65140569842828522
30
0
10
-1.0695613766097365
20
0.35621621194262798
30
0
10
-1.13985489115378
20
0.13232072572116033
30
0
10
-1.2499999720603228
20
-0.099999997764825821
30
0
10
-1.3219903397957744
20
-0.22675285540412829
30
0
10
-1.4499999675899744
20
-0.44999998994171619
30
0
10
-1.5999999642372131
20
-0.59999998658895493
30
0
10
-1.7773926254596983
20
-0.78050804340655922
30
0
10
-1.954610613266039
20
-0.9372716896158938
30
0
10
-2.2159963947199883
20
-1.0791858198993181
30
0
10
-2.3883633636850248
20
-1.1671361486931402
30
0
10
-2.3803936178836
20
-1.3192412372725273
30
0
10
-2.16807957727349
20
-1.5425438138591163
30
0
10
-1.8622001522850464
20
-1.7729990360101464
30
0
10
-1.699999962002039
20
-1.8999999575316906
30
0
10
-1.5578943925203583
20
-2.01371939902078
30
0
10
-1.499900058891297
20
-2.0614748472103881
30
0
0
ENDSEC
0
SECTION
2
OBJECTS
0
DICTIONARY
5
C
100
AcDbDictionary
3
ACAD_GROUP
350
D
3
ACAD_MLINESTYLE
350
17
0
DICTIONARY
5
D
100
AcDbDictionary
0
DICTIONARY
5
1A
330
C
100
AcDbDictionary
0
DICTIONARY
5
17
100
AcDbDictionary
0
ENDSEC
0
EOF
