0
SECTION
2
HEADER
9
$INSUNITS
70
4
9
$ACADVER
1
AC1014
9
$HANDSEED
5
FFFF
0
ENDSEC
0
SECTION
2
TABLES
0
TABLE
2
VPORT
5
8
100
AcDbSymbolTable
0
ENDTAB
0
TABLE
2
LTYPE
5
5
100
AcDbSymbolTable
0
LTYPE
5
14
100
AcDbSymbolTableRecord
100
AcDbLinetypeTableRecord
2
BYBLOCK
70
0
0
LTYPE
5
15
100
AcDbSymbolTableRecord
100
AcDbLinetypeTableRecord
2
BYLAYER
70
0
0
ENDTAB
0
TABLE
2
LAYER
5
2
100
AcDbSymbolTable
70
2
0
LAYER
5
50
100
AcDbSymbolTableRecord
100
AcDbLayerTableRecord
2
0
70
0
6
CONTINUOUS
0
ENDTAB
0
TABLE
2
STYLE
5
3
100
AcDbSymbolTable
70
1
0
STYLE
5
11
100
AcDbSymbolTableRecord
100
AcDbTextStyleTableRecord
2
STANDARD
70
0
0
ENDTAB
0
TABLE
2
VIEW
5
6
100
AcDbSymbolTable
70
0
0
ENDTAB
0
TABLE
2
UCS
5
7
100
AcDbSymbolTable
70
0
0
ENDTAB
0
TABLE
2
APPID
5
9
100
AcDbSymbolTable
70
2
0
APPID
5
12
100
AcDbSymbolTableRecord
100
AcDbRegAppTableRecord
2
ACAD
70
0
0
ENDTAB
0
TABLE
2
DIMSTYLE
5
A
100
AcDbSymbolTable
70
1
0
ENDTAB
0
TABLE
2
BLOCK_RECORD
5
1
100
AcDbSymbolTable
70
1
0
BLOCK_RECORD
5
1F
100
AcDbSymbolTableRecord
100
AcDbBlockTableRecord
2
*MODEL_SPACE
0
BLOCK_RECORD
5
1B
100
AcDbSymbolTableRecord
100
AcDbBlockTableRecord
2
*PAPER_SPACE
0
ENDTAB
0
ENDSEC
0
SECTION
2
BLOCKS
0
BLOCK
5
20
100
AcDbEntity
100
AcDbBlockBegin
2
*MODEL_SPACE
0
ENDBLK
5
21
100
AcDbEntity
100
AcDbBlockEnd
0
BLOCK
5
1C
100
AcDbEntity
100
AcDbBlockBegin
2
*PAPER_SPACE
0
ENDBLK
5
1D
100
AcDbEntity
100
AcDbBlockEnd
0
ENDSEC
0
SECTION
2
ENTITIES
0
SPLINE
5
100
100
AcDbEntity
8
0
100
AcDbSpline
70
6
71
5
72
156
73
150
74
0
42
0.000000001
43
0.0000000001
44
0.0000000001
40
0
40
0
40
0
40
0
40
0
40
0
40
0.0068965517241379309
40
0.013793103448275862
40
0.020689655172413793
40
0.027586206896551724
40
0.034482758620689655
40
0.041379310344827586
40
0.048275862068965517
40
0.055172413793103448
40
0.062068965517241378
40
0.068965517241379309
40
0.07586206896551724
40
0.082758620689655171
40
0.089655172413793102
40
0.096551724137931033
40
0.10344827586206896
40
0.1103448275862069
40
0.11724137931034483
40
0.12413793103448276
40
0.13103448275862067
40
0.13793103448275862
40
0.14482758620689656
40
0.15172413793103451
40
0.15862068965517245
40
0.1655172413793104
40
0.17241379310344834
40
0.17931034482758629
40
0.18620689655172423
40
0.19310344827586218
40
0.20000000000000012
40
0.20689655172413807
40
0.21379310344827601
40
0.22068965517241396
40
0.2275862068965519
40
0.23448275862068985
40
0.24137931034482779
40
0.24827586206896574
40
0.25517241379310368
40
0.26206896551724163
40
0.26896551724137957
40
0.27586206896551752
40
0.28275862068965546
40
0.2896551724137934
40
0.29655172413793135
40
0.30344827586206929
40
0.31034482758620724
40
0.31724137931034518
40
0.32413793103448313
40
0.33103448275862107
40
0.33793103448275902
40
0.34482758620689696
40
0.35172413793103491
40
0.35862068965517285
40
0.3655172413793108
40
0.37241379310344874
40
0.37931034482758669
40
0.38620689655172463
40
0.39310344827586258
40
0.40000000000000052
40
0.40689655172413847
40
0.41379310344827641
40
0.42068965517241436
40
0.4275862068965523
40
0.43448275862069025
40
0.44137931034482819
40
0.44827586206896614
40
0.45517241379310408
40
0.46206896551724203
40
0.46896551724137997
40
0.47586206896551791
40
0.48275862068965586
40
0.4896551724137938
40
0.49655172413793175
40
0.50344827586206964
40
0.51034482758620758
40
0.51724137931034553
40
0.52413793103448347
40
0.53103448275862142
40
0.53793103448275936
40
0.54482758620689731
40
0.55172413793103525
40
0.5586206896551732
40
0.56551724137931114
40
0.57241379310344909
40
0.57931034482758703
40
0.58620689655172498
40
0.59310344827586292
40
0.60000000000000087
40
0.60689655172413881
40
0.61379310344827676
40
0.6206896551724147
40
0.62758620689655265
40
0.63448275862069059
40
0.64137931034482853
40
0.64827586206896648
40
0.65517241379310442
40
0.66206896551724237
40
0.66896551724138031
40
0.67586206896551826
40
0.6827586206896562
40
0.68965517241379415
40
0.69655172413793209
40
0.70344827586207004
40
0.71034482758620798
40
0.71724137931034593
40
0.72413793103448387
40
0.73103448275862182
40
0.73793103448275976
40
0.74482758620689771
40
0.75172413793103565
40
0.7586206896551736
40
0.76551724137931154
40
0.77241379310344949
40
0.77931034482758743
40
0.78620689655172538
40
0.79310344827586332
40
0.80000000000000127
40
0.80689655172413921
40
0.81379310344827716
40
0.8206896551724151
40
0.82758620689655304
40
0.83448275862069099
40
0.84137931034482893
40
0.84827586206896688
40
0.85517241379310482
40
0.86206896551724277
40
0.86896551724138071
40
0.87586206896551866
40
0.8827586206896566
40
0.88965517241379455
40
0.89655172413793249
40
0.90344827586207044
40
0.91034482758620838
40
0.91724137931034633
40
0.92413793103448427
40
0.93103448275862222
40
0.93793103448276016
40
0.94482758620689811
40
0.95172413793103605
40
0.958620689655174
40
0.96551724137931194
40
0.97241379310344989
40
0.97931034482758783
40
0.98620689655172578
40
0.99310344827586372
40
1
40
1
40
1
40
1
40
1
40
1
41
1
41
1
41
1
41
1
41
1
41
1
41
1
41
1
41
1
41
1
41
1
41
1
41
1
41
1
41
1
41
1
41
1
41
1
41
1
41
1
41
1
41
1
41
1
41
1
41
1
41
1
41
1
41
1
41
1
41
1
41
1
41
1
41
1
41
1
41
1
41
1
41
1
41
1
41
1
41
1
41
1
41
1
41
1
41
1
41
1
41
1
41
1
41
1
41
1
41
1
41
1
41
1
41
1
41
1
41
1
41
1
41
1
41
1
41
1
41
1
41
1
41
1
41
1
41
1
41
1
41
1
41
1
41
1
41
1
41
1
41
1
41
1
41
1
41
1
41
1
41
1
41
1
41
1
41
1
41
1
41
1
41
1
41
1
41
1
41
1
41
1
41
1
41
1
41
1
41
1
41
1
41
1
41
1
41
1
41
1
41
1
41
1
41
1
41
1
41
1
41
1
41
1
41
1
41
1
41
1
41
1
41
1
41
1
41
1
41
1
41
1
41
1
41
1
41
1
41
1
41
1
41
1
41
1
41
1
41
1
41
1
41
1
41
1
41
1
41
1
41
1
41
1
41
1
41
1
41
1
41
1
41
1
41
1
41
1
41
1
41
1
41
1
41
1
41
1
41
1
41
1
41
1
41
1
41
1
41
1
41
1
41
1
41
1
41
1
41
1
10
-1.5000000223517418
20
-2.0000000298023224
30
0
10
-1.4955983994024293
20
-2.0069890742771319
30
0
10
-1.4835891274049131
20
-2.0265949704816562
30
0
10
-1.4443411398343331
20
-2.082093585058038
30
0
10
-1.3219997147754348
20
-2.2305732029530074
30
0
10
-1.043975280609718
20
-2.5481350518303332
30
0
10
-0.67777462026701718
20
-2.9696463485394977
30
0
10
-0.28174505966064883
20
-3.4492012087178949
30
0
10
0.082894066026143409
20
-3.9372930278598695
30
0
10
0.37675370661323959
20
-4.399454993274766
30
0
10
0.58941149460747122
20
-4.8222570733978767
30
0
10
0.72860706698037914
20
-5.206356369061008
30
0
10
0.81429352930939547
20
-5.563020908508058
30
0
10
0.87044289547224007
20
-5.9091188420336538
30
0
10
0.91844617740544587
20
-6.2630527587536591
30
0
10
0.9682613458016559
20
-6.6395791795625927
30
0
10
1.0170091435591926
20
-7.0480390042900645
30
0
10
1.053880692273659
20
-7.4934092627176891
30
0
10
1.0632293275670888
20
-7.9765699738956686
30
0
10
1.0285126581530744
20
-8.4948866821758422
30
0
10
0.93562029982410488
20
-9.0426668414163238
30
0
10
0.77707284076994076
20
-9.6116443331385302
30
0
10
0.55375886599083146
20
-10.191537430733373
30
0
10
0.27249440155031079
20
-10.770792211778312
30
0
10
-0.055477873467583344
20
-11.337280404102925
30
0
10
-0.41637018514795976
20
-11.87901786005699
30
0
10
-0.7955556828896182
20
-12.384868599815723
30
0
10
-1.1793767306567
20
-12.845268243131585
30
0
10
-1.556845935540752
20
-13.252909377855975
30
0
10
-1.9215453863367105
20
-13.603516095820304
30
0
10
-2.2729937108897174
20
-13.896367339252498
30
0
10
-2.6146033936581006
20
-14.133183483006796
30
0
10
-2.9520448959181715
20
-14.317214503347744
30
0
10
-3.2913922547886134
20
-14.452209143629499
30
0
10
-3.6375052775248577
20
-14.541530829771773
30
0
10
-3.9919608528129462
20
-14.586977249180732
30
0
10
-4.352409179105754
20
-14.588547926239626
30
0
10
-4.7140534852738973
20
-14.545606144776841
30
0
10
-5.0706690082817083
20
-14.457767104851751
30
0
10
-5.415717140752645
20
-14.325775795793668
30
0
10
-5.7436367687218839
20
-14.15268164558773
30
0
10
-6.0502609239077625
20
-13.943819861053155
30
0
10
-6.3320750987999759
20
-13.705281045463272
30
0
10
-6.5857244179263343
20
-13.442669853164409
30
0
10
-6.8075174603489224
20
-13.159946894713041
30
0
10
-6.9926962009570124
20
-12.857751326524621
30
0
10
-7.1356280459355679
20
-12.533632396257463
30
0
10
-7.2313881111282718
20
-12.185113247210639
30
0
10
-7.2771103987737433
20
-11.812303660313182
30
0
10
-7.2732210679544149
20
-11.420223608858691
30
0
10
-7.2252348939307787
20
-11.022391720435538
30
0
10
-7.143460026299624
20
-10.639759414714934
30
0
10
-7.0399867630856541
20
-10.293686965563243
30
0
10
-6.9261842608370996
20
-9.9999259397465163
30
0
10
-6.810355507701324
20
-9.7632214358991476
30
0
10
-6.694434814556347
20
-9.5691341368920426
30
0
10
-6.5745825061433081
20
-9.3869001547942545
30
0
10
-6.4457906085192533
20
-9.1835722771687838
30
0
10
-6.3054536074604686
20
-8.9353003675503864
30
0
10
-6.1572302527542364
20
-8.639292073793218
30
0
10
-6.0093639408577566
20
-8.3066656515324873
30
0
10
-5.8732282302841963
20
-7.9558404786518802
30
0
10
-5.7617887910483301
20
-7.606105493583212
30
0
10
-5.6880916491224802
20
-7.2701983117060092
30
0
10
-5.6637775131528123
20
-6.9502495848460786
30
0
10
-5.6977854869366906
20
-6.642360060291379
30
0
10
-5.7949424751407408
20
-6.3396274332568954
30
0
10
-5.9547578576397502
20
-6.0355697693266386
30
0
10
-6.1697148881865633
20
-5.7279388750397322
30
0
10
-6.4270728455637229
20
-5.4178907728556585
30
0
10
-6.711405024635587
20
-5.1080758367620192
30
0
10
-7.0069759030285024
20
-4.8010280343737683
30
0
10
-7.299977817496516
20
-4.497600511632271
30
0
10
-7.5813297184322614
20
-4.1949656495548142
30
0
10
-7.8475490843165776
20
-3.8861971518168188
30
0
10
-8.0975446193412264
20
-3.5632221323351976
30
0
10
-8.3303929817747129
20
-3.2189728349735836
30
0
10
-8.5424701488732477
20
-2.8500381660822716
30
0
10
-8.7254400829625425
20
-2.458687998140249
30
0
10
-8.8624098857777209
20
-2.0562122441287176
30
0
10
-8.9318941082775183
20
-1.6606603259734454
30
0
10
-8.9158093894138961
20
-1.2915959642732686
30
0
10
-8.8068159133849271
20
-0.96550964071639311
30
0
10
-8.6146392191507353
20
-0.69153248473895745
30
0
10
-8.3760376480928151
20
-0.46559751238015168
30
0
10
-8.1494346076893791
20
-0.27133571112359667
30
0
10
-7.9959913572996104
20
-0.086773405114317942
30
0
10
-7.9660910250883434
20
0.11101883360683697
30
0
10
-8.0800113455029337
20
0.33953499443662327
30
0
10
-8.326703761172249
20
0.60911422697701867
30
0
10
-8.6750615555690249
20
0.92430585649703301
30
0
10
-9.0815562106050276
20
1.2843479455680609
30
0
10
-9.4993876970327502
20
1.6840072228298297
30
0
10
-9.886925254025309
20
2.1142649427380382
30
0
10
-10.21661605000954
20
2.563060653329869
30
0
10
-10.472839361490408
20
3.0166723305231828
30
0
10
-10.649600962233869
20
3.4611409645952458
30
0
10
-10.748304825687576
20
3.8836390451509821
30
0
10
-10.775453492257402
20
4.2739506175881585
30
0
10
-10.740477745314621
20
4.6256998981617032
30
0
10
-10.65327036574778
20
4.9382003420599423
30
0
10
-10.522907837443283
20
5.2157646070057497
30
0
10
-10.357190718733861
20
5.4651353763820767
30
0
10
-10.161995444496291
20
5.6935518861371968
30
0
10
-9.9405860300524331
20
5.9063661841012829
30
0
10
-9.6933009667829335
20
6.1054324501901149
30
0
10
-9.4187057467899411
20
6.2898602495524747
30
0
10
-9.1145344565963402
20
6.4563904435845041
30
0
10
-8.7786518650863297
20
6.599935521477863
30
0
10
-8.4101621476086201
20
6.7140046029057068
30
0
10
-8.0096324508204155
20
6.7914154163495608
30
0
10
-7.5788843889124262
20
6.8251225914909153
30
0
10
-7.1209232012068231
20
6.8090022000833379
30
0
10
-6.639810898083466
20
6.7386728220696952
30
0
10
-6.1405618370689572
20
6.6122589151208766
30
0
10
-5.6290342654316206
20
6.4312934335892251
30
0
10
-5.1117551397784791
20
6.2000879722992108
30
0
10
-4.5957347548808638
20
5.9249275622226341
30
0
10
-4.0882854201691723
20
5.6133246438702962
30
0
10
-3.5968383079908839
20
5.2732573713943545
30
0
10
-3.1287616797328637
20
4.9123945872620975
30
0
10
-2.6911772600235602
20
4.5373738212945387
30
0
10
-2.2907803368091777
20
4.1529427502118264
30
0
10
-1.9336488908837832
20
3.7615067898190579
30
0
10
-1.6250112183780396
20
3.3642101212505309
30
0
10
-1.3690197314376897
20
2.9618008019484336
30
0
10
-1.1685218789269816
20
2.5555396950823388
30
0
10
-1.0248321293041629
20
2.1481832012214115
30
0
10
-0.9375024210567231
20
1.7447186932065666
30
0
10
-0.90409292437968802
20
1.3537502625955731
30
0
10
-0.91997587485265786
20
0.98601412522039245
30
0
10
-0.97827206705858383
20
0.65140569842828522
30
0
10
-1.0695613766097365
20
0.35621621194262798
30
0
10
-1.1820958623766034
20
0.10083110232401125
30
0
10
-1.3007598353769523
20
-0.12417114560162634
30
0
10
-1.412897205372539
20
-0.33231112514576366
30
0
10
-1.5152411808826891
20
-0.53322839748242856
30
0
10
-1.6222866191000254
20
-0.72420198717720585
30
0
10
-1.7688530587593532
20
-0.88549486944002354
30
0
10
-1.9748400697577111
20
-1.0017091891542478
30
0
10
-2.2159963947199883
20
-1.0791858198993181
30
0
10
-2.3883633636850252
20
-1.1671361486931402
30
0
10
-2.3803936178835996
20
-1.3192412372725273
30
0
10
-2.16807957727349
20
-1.5425438138591163
30
0
10
-1.8622001522850464
20
-1.772999036010146
30
0
10
-1.6036321950555013
20
-1.9373531717090788
30
0
10
-1.5203926177813321
20
-1.9798123543505974
30
0
10
-1.5099988651007854
20
-1.9846607036328061
30
0
10
-1.5044016453010525
20
-1.9930109853275157
30
0
10
-1.5000000223517418
20
-2.0000000298023224
30
0
0
ENDSEC
0
SECTION
2
OBJECTS
0
DICTIONARY
5
C
100
AcDbDictionary
3
ACAD_GROUP
350
D
3
ACAD_MLINESTYLE
350
17
0
DICTIONARY
5
D
100
AcDbDictionary
0
DICTIONARY
5
1A
330
C
100
AcDbDictionary
0
DICTIONARY
5
17
100
AcDbDictionary
0
ENDSEC
0
EOF
