0
SECTION
2
HEADER
9
$INSUNITS
70
4
9
$ACADVER
1
AC1014
9
$HANDSEED
5
FFFF
0
ENDSEC
0
SECTION
2
TABLES
0
TABLE
2
VPORT
5
8
100
AcDbSymbolTable
0
ENDTAB
0
TABLE
2
LTYPE
5
5
100
AcDbSymbolTable
0
LTYPE
5
14
100
AcDbSymbolTableRecord
100
AcDbLinetypeTableRecord
2
BYBLOCK
70
0
0
LTYPE
5
15
100
AcDbSymbolTableRecord
100
AcDbLinetypeTableRecord
2
BYLAYER
70
0
0
ENDTAB
0
TABLE
2
LAYER
5
2
100
AcDbSymbolTable
70
2
0
LAYER
5
50
100
AcDbSymbolTableRecord
100
AcDbLayerTableRecord
2
0
70
0
6
CONTINUOUS
0
ENDTAB
0
TABLE
2
STYLE
5
3
100
AcDbSymbolTable
70
1
0
STYLE
5
11
100
AcDbSymbolTableRecord
100
AcDbTextStyleTableRecord
2
STANDARD
70
0
0
ENDTAB
0
TABLE
2
VIEW
5
6
100
AcDbSymbolTable
70
0
0
ENDTAB
0
TABLE
2
UCS
5
7
100
AcDbSymbolTable
70
0
0
ENDTAB
0
TABLE
2
APPID
5
9
100
AcDbSymbolTable
70
2
0
APPID
5
12
100
AcDbSymbolTableRecord
100
AcDbRegAppTableRecord
2
ACAD
70
0
0
ENDTAB
0
TABLE
2
DIMSTYLE
5
A
100
AcDbSymbolTable
70
1
0
ENDTAB
0
TABLE
2
BLOCK_RECORD
5
1
100
AcDbSymbolTable
70
1
0
BLOCK_RECORD
5
1F
100
AcDbSymbolTableRecord
100
AcDbBlockTableRecord
2
*MODEL_SPACE
0
BLOCK_RECORD
5
1B
100
AcDbSymbolTableRecord
100
AcDbBlockTableRecord
2
*PAPER_SPACE
0
ENDTAB
0
ENDSEC
0
SECTION
2
BLOCKS
0
BLOCK
5
20
100
AcDbEntity
100
AcDbBlockBegin
2
*MODEL_SPACE
0
ENDBLK
5
21
100
AcDbEntity
100
AcDbBlockEnd
0
BLOCK
5
1C
100
AcDbEntity
100
AcDbBlockBegin
2
*PAPER_SPACE
0
ENDBLK
5
1D
100
AcDbEntity
100
AcDbBlockEnd
0
ENDSEC
0
SECTION
2
ENTITIES
0
SPLINE
5
100
100
AcDbEntity
8
0
100
AcDbSpline
70
6
71
5
72
71
73
65
74
0
42
0.000000001
43
0.0000000001
44
0.0000000001
40
0
40
0
40
0
40
0
40
0
40
0
40
0.016666666666666666
40
0.033333333333333333
40
0.050000000000000003
40
0.066666666666666666
40
0.083333333333333329
40
0.099999999999999992
40
0.11666666666666665
40
0.13333333333333333
40
0.14999999999999999
40
0.16666666666666666
40
0.18333333333333332
40
0.19999999999999998
40
0.21666666666666665
40
0.23333333333333331
40
0.24999999999999997
40
0.26666666666666666
40
0.28333333333333333
40
0.29999999999999999
40
0.31666666666666665
40
0.33333333333333331
40
0.34999999999999998
40
0.36666666666666664
40
0.3833333333333333
40
0.39999999999999997
40
0.41666666666666663
40
0.43333333333333329
40
0.44999999999999996
40
0.46666666666666662
40
0.48333333333333328
40
0.49999999999999994
40
0.51666666666666661
40
0.53333333333333333
40
0.55000000000000004
40
0.56666666666666676
40
0.58333333333333348
40
0.6000000000000002
40
0.61666666666666692
40
0.63333333333333364
40
0.65000000000000036
40
0.66666666666666707
40
0.68333333333333379
40
0.70000000000000051
40
0.71666666666666723
40
0.73333333333333395
40
0.75000000000000067
40
0.76666666666666738
40
0.7833333333333341
40
0.80000000000000082
40
0.81666666666666754
40
0.83333333333333426
40
0.85000000000000098
40
0.8666666666666677
40
0.88333333333333441
40
0.90000000000000113
40
0.91666666666666785
40
0.93333333333333457
40
0.95000000000000129
40
0.96666666666666801
40
0.98333333333333472
40
1
40
1
40
1
40
1
40
1
40
1
41
1
41
1
41
1
41
1
41
1
41
1
41
1
41
1
41
1
41
1
41
1
41
1
41
1
41
1
41
1
41
1
41
1
41
1
41
1
41
1
41
1
41
1
41
1
41
1
41
1
41
1
41
1
41
1
41
1
41
1
41
1
41
1
41
1
41
1
41
1
41
1
41
1
41
1
41
1
41
1
41
1
41
1
41
1
41
1
41
1
41
1
41
1
41
1
41
1
41
1
41
1
41
1
41
1
41
1
41
1
41
1
41
1
41
1
41
1
41
1
41
1
41
1
41
1
41
1
41
1
10
1.6702395037067042
20
-3.7584782931775278
30
0
10
1.7162233585891435
20
-3.6884476637315764
30
0
10
1.8146223068281579
20
-3.5513792504278614
30
0
10
1.9804462530494862
20
-3.3552828757244675
30
0
10
2.232333105788658
20
-3.1151269061216542
30
0
10
2.5811351817475598
20
-2.8566072679477879
30
0
10
2.9472102014930739
20
-2.6458647256143002
30
0
10
3.3180958509347604
20
-2.488459939846877
30
0
10
3.6900169002732301
20
-2.3888958246441252
30
0
10
4.0693906987540371
20
-2.3502139816088601
30
0
10
4.4673878374494489
20
-2.3738744754865198
30
0
10
4.8957275644362834
20
-2.459561391669236
30
0
10
5.362289092178381
20
-2.605046239296771
30
0
10
5.8660162411398717
20
-2.8059388859174823
30
0
10
6.3979901640143835
20
-3.056110619788734
30
0
10
6.9441242353650683
20
-3.3482837568807824
30
0
10
7.4872619438043708
20
-3.6745563593943569
30
0
10
8.0095854731806053
20
-4.0269640506395996
30
0
10
8.4947311584026579
20
-4.3979970490573441
30
0
10
8.9304196362294554
20
-4.7812053738970182
30
0
10
9.309383937574788
20
-5.1715037419780945
30
0
10
9.6284653693743802
20
-5.5651544415102592
30
0
10
9.8881895759138114
20
-5.959831094041574
30
0
10
10.092176922697181
20
-6.3546654366266289
30
0
10
10.246579748319588
20
-6.7502728923399165
30
0
10
10.359653877628576
20
-7.1488742198850188
30
0
10
10.439274856107495
20
-7.5532567151668895
30
0
10
10.490057583087911
20
-7.9655651649674759
30
0
10
10.510881729275713
20
-8.386211272640141
30
0
10
10.491615622480438
20
-8.8125947919166379
30
0
10
10.412046292725341
20
-9.2383126149432329
30
0
10
10.249366792242927
20
-9.6543100204549273
30
0
10
9.9846773489884928
20
-10.049748642419928
30
0
10
9.6092916588935555
20
-10.412966352412901
30
0
10
9.1325328660331486
20
-10.73243150557143
30
0
10
8.5843646793792843
20
-10.997584849436619
30
0
10
8.0056561017687713
20
-11.19938119610997
30
0
10
7.4411132151513737
20
-11.330880133496823
30
0
10
6.9308090396532496
20
-11.387855056312617
30
0
10
6.5031161639575288
20
-11.369323256292756
30
0
10
6.1650452240142126
20
-11.278304358007947
30
0
10
5.9006803506142083
20
-11.121830200326222
30
0
10
5.6825387873466386
20
-10.909814752401592
30
0
10
5.4792177698360618
20
-10.654164036469655
30
0
10
5.2660231008747687
20
-10.367874967657935
30
0
10
5.0276551657156876
20
-10.063767744518168
30
0
10
4.756056592138119
20
-9.7528566322050132
30
0
10
4.449677611791004
20
-9.4429193503007376
30
0
10
4.1121762709313572
20
-9.1367740757688782
30
0
10
3.7513574023424558
20
-8.8312868699911888
30
0
10
3.3779140355765302
20
-8.5198416569776843
30
0
10
3.004241857920817
20
-8.194323340585667
30
0
10
2.6432069114525114
20
-7.847329637078845
30
0
10
2.3069822991772519
20
-7.474185270507042
30
0
10
2.0057289514964012
20
-7.0753125749711181
30
0
10
1.7478490773416424
20
-6.655205036995115
30
0
10
1.540406515208196
20
-6.2210161501979924
30
0
10
1.3895329465383206
20
-5.7812410292728416
30
0
10
1.3007282275087091
20
-5.3444738097843549
30
0
10
1.2794771780571221
20
-4.9178550514842696
30
0
10
1.3304592007785268
20
-4.5069443535346458
30
0
10
1.4307763775768563
20
-4.1945950120951343
30
0
10
1.5387191775335256
20
-3.9715630271035551
30
0
10
1.6242556488242683
20
-3.8285089226234743
30
0
10
1.6702395037067042
20
-3.7584782931775278
30
0
0
ENDSEC
0
SECTION
2
OBJECTS
0
DICTIONARY
5
C
100
AcDbDictionary
3
ACAD_GROUP
350
D
3
ACAD_MLINESTYLE
350
17
0
DICTIONARY
5
D
100
AcDbDictionary
0
DICTIONARY
5
1A
330
C
100
AcDbDictionary
0
DICTIONARY
5
17
100
AcDbDictionary
0
ENDSEC
0
EOF
