0
SECTION
2
HEADER
9
$INSUNITS
70
4
9
$ACADVER
1
AC1014
9
$HANDSEED
5
FFFF
0
ENDSEC
0
SECTION
2
TABLES
0
TABLE
2
VPORT
5
8
100
AcDbSymbolTable
0
ENDTAB
0
TABLE
2
LTYPE
5
5
100
AcDbSymbolTable
0
LTYPE
5
14
100
AcDbSymbolTableRecord
100
AcDbLinetypeTableRecord
2
BYBLOCK
70
0
0
LTYPE
5
15
100
AcDbSymbolTableRecord
100
AcDbLinetypeTableRecord
2
BYLAYER
70
0
0
ENDTAB
0
TABLE
2
LAYER
5
2
100
AcDbSymbolTable
70
2
0
LAYER
5
50
100
AcDbSymbolTableRecord
100
AcDbLayerTableRecord
2
0
70
0
6
CONTINUOUS
0
ENDTAB
0
TABLE
2
STYLE
5
3
100
AcDbSymbolTable
70
1
0
STYLE
5
11
100
AcDbSymbolTableRecord
100
AcDbTextStyleTableRecord
2
STANDARD
70
0
0
ENDTAB
0
TABLE
2
VIEW
5
6
100
AcDbSymbolTable
70
0
0
ENDTAB
0
TABLE
2
UCS
5
7
100
AcDbSymbolTable
70
0
0
ENDTAB
0
TABLE
2
APPID
5
9
100
AcDbSymbolTable
70
2
0
APPID
5
12
100
AcDbSymbolTableRecord
100
AcDbRegAppTableRecord
2
ACAD
70
0
0
ENDTAB
0
TABLE
2
DIMSTYLE
5
A
100
AcDbSymbolTable
70
1
0
ENDTAB
0
TABLE
2
BLOCK_RECORD
5
1
100
AcDbSymbolTable
70
1
0
BLOCK_RECORD
5
1F
100
AcDbSymbolTableRecord
100
AcDbBlockTableRecord
2
*MODEL_SPACE
0
BLOCK_RECORD
5
1B
100
AcDbSymbolTableRecord
100
AcDbBlockTableRecord
2
*PAPER_SPACE
0
ENDTAB
0
ENDSEC
0
SECTION
2
BLOCKS
0
BLOCK
5
20
100
AcDbEntity
100
AcDbBlockBegin
2
*MODEL_SPACE
0
ENDBLK
5
21
100
AcDbEntity
100
AcDbBlockEnd
0
BLOCK
5
1C
100
AcDbEntity
100
AcDbBlockBegin
2
*PAPER_SPACE
0
ENDBLK
5
1D
100
AcDbEntity
100
AcDbBlockEnd
0
ENDSEC
0
SECTION
2
ENTITIES
0
SPLINE
5
100
100
AcDbEntity
8
0
100
AcDbSpline
70
6
71
5
72
111
73
105
74
0
42
0.000000001
43
0.0000000001
44
0.0000000001
40
0
40
0
40
0
40
0
40
0
40
0
40
0.01
40
0.02
40
0.029999999999999999
40
0.040000000000000001
40
0.050000000000000003
40
0.060000000000000005
40
0.070000000000000007
40
0.080000000000000002
40
0.089999999999999997
40
0.099999999999999992
40
0.10999999999999999
40
0.11999999999999998
40
0.12999999999999998
40
0.13999999999999999
40
0.14999999999999999
40
0.16
40
0.17000000000000001
40
0.18000000000000002
40
0.19000000000000003
40
0.20000000000000004
40
0.21000000000000005
40
0.22000000000000006
40
0.23000000000000007
40
0.24000000000000007
40
0.25000000000000006
40
0.26000000000000006
40
0.27000000000000007
40
0.28000000000000008
40
0.29000000000000009
40
0.3000000000000001
40
0.31000000000000011
40
0.32000000000000012
40
0.33000000000000013
40
0.34000000000000014
40
0.35000000000000014
40
0.36000000000000015
40
0.37000000000000016
40
0.38000000000000017
40
0.39000000000000018
40
0.40000000000000019
40
0.4100000000000002
40
0.42000000000000021
40
0.43000000000000022
40
0.44000000000000022
40
0.45000000000000023
40
0.46000000000000024
40
0.47000000000000025
40
0.48000000000000026
40
0.49000000000000027
40
0.50000000000000022
40
0.51000000000000023
40
0.52000000000000024
40
0.53000000000000025
40
0.54000000000000026
40
0.55000000000000027
40
0.56000000000000028
40
0.57000000000000028
40
0.58000000000000029
40
0.5900000000000003
40
0.60000000000000031
40
0.61000000000000032
40
0.62000000000000033
40
0.63000000000000034
40
0.64000000000000035
40
0.65000000000000036
40
0.66000000000000036
40
0.67000000000000037
40
0.68000000000000038
40
0.69000000000000039
40
0.7000000000000004
40
0.71000000000000041
40
0.72000000000000042
40
0.73000000000000043
40
0.74000000000000044
40
0.75000000000000044
40
0.76000000000000045
40
0.77000000000000046
40
0.78000000000000047
40
0.79000000000000048
40
0.80000000000000049
40
0.8100000000000005
40
0.82000000000000051
40
0.83000000000000052
40
0.84000000000000052
40
0.85000000000000053
40
0.86000000000000054
40
0.87000000000000055
40
0.88000000000000056
40
0.89000000000000057
40
0.90000000000000058
40
0.91000000000000059
40
0.9200000000000006
40
0.9300000000000006
40
0.94000000000000061
40
0.95000000000000062
40
0.96000000000000063
40
0.97000000000000064
40
0.98000000000000065
40
0.99000000000000066
40
1
40
1
40
1
40
1
40
1
40
1
41
1
41
1
41
1
41
1
41
1
41
1
41
1
41
1
41
1
41
1
41
1
41
1
41
1
41
1
41
1
41
1
41
1
41
1
41
1
41
1
41
1
41
1
41
1
41
1
41
1
41
1
41
1
41
1
41
1
41
1
41
1
41
1
41
1
41
1
41
1
41
1
41
1
41
1
41
1
41
1
41
1
41
1
41
1
41
1
41
1
41
1
41
1
41
1
41
1
41
1
41
1
41
1
41
1
41
1
41
1
41
1
41
1
41
1
41
1
41
1
41
1
41
1
41
1
41
1
41
1
41
1
41
1
41
1
41
1
41
1
41
1
41
1
41
1
41
1
41
1
41
1
41
1
41
1
41
1
41
1
41
1
41
1
41
1
41
1
41
1
41
1
41
1
41
1
41
1
41
1
41
1
41
1
41
1
41
1
41
1
41
1
41
1
41
1
41
1
41
1
41
1
41
1
41
1
41
1
41
1
10
-0.37636213000354801
20
2.8228441593456748
30
0
10
-0.32844172026862806
20
2.7693840953515858
30
0
10
-0.22828647400029534
20
2.6636850161814545
30
0
10
-0.065525932665855088
20
2.5086677950393907
30
0
10
0.17439848241579803
20
2.3087385861825864
30
0
10
0.50538898014249156
20
2.0703294906255651
30
0
10
0.85930819895330268
20
1.8445250234434383
30
0
10
1.2276089783868691
20
1.6331663216253909
30
0
10
1.602049302982621
20
1.4387110161926304
30
0
10
1.9753181795488493
20
1.2641008189314844
30
0
10
2.3418329238969302
20
1.1126531657390561
30
0
10
2.6979518704895664
20
0.98787117273310343
30
0
10
3.0413948316213064
20
0.89313553671759138
30
0
10
3.3708570724737159
20
0.83143478727839881
30
0
10
3.6855520043328722
20
0.80505977400135498
30
0
10
3.9847702238782006
20
0.81535916668498121
30
0
10
4.2674683806541314
20
0.86235226372424179
30
0
10
4.5316766994036231
20
0.94493245319192942
30
0
10
4.7737779919477523
20
1.0614600356994262
30
0
10
4.987827418234656
20
1.2102361018809935
30
0
10
5.164847968707825
20
1.3900299435440808
30
0
10
5.2921396380686083
20
1.6005772544974515
30
0
10
5.3590445301858853
20
1.8399302246369458
30
0
10
5.3631734024631363
20
2.1015522019897008
30
0
10
5.315688711834361
20
2.371936269745806
30
0
10
5.2489755540100997
20
2.6268976565689952
30
0
10
5.2069910666988779
20
2.8374878380751674
30
0
10
5.2319623685384906
20
2.9779359116409849
30
0
10
5.3521941325497844
20
3.0329786968044581
30
0
10
5.5697919252012609
20
3.0052270502489375
30
0
10
5.8686511304713704
20
2.9102823250951633
30
0
10
6.2222239811779056
20
2.7720391396991504
30
0
10
6.6008249863518618
20
2.6181388218928632
30
0
10
6.9804386282347055
20
2.4748381462546463
30
0
10
7.345462922439089
20
2.3642950372453067
30
0
10
7.6861757368685382
20
2.3039447768446544
30
0
10
7.9977019044154272
20
2.3053107648739841
30
0
10
8.2783489960849828
20
2.3729838170943482
30
0
10
8.5282607947682969
20
2.5036639105716239
30
0
10
8.7478159155612829
20
2.6847937914033624
30
0
10
8.9377474592370252
20
2.8985214141538913
30
0
10
9.0994636908582898
20
3.1264428998499021
30
0
10
9.2352456653857082
20
3.35377184222365
30
0
10
9.3486213512660861
20
3.5744343458627643
30
0
10
9.4442830552776442
20
3.7936661318757805
30
0
10
9.5264957401888992
20
4.0221461943313734
30
0
10
9.5977116720641984
20
4.2714171562410099
30
0
10
9.6571795022140279
20
4.5489706989444851
30
0
10
9.6993526897709774
20
4.8530287670939369
30
0
10
9.7157682899253697
20
5.1750655692736922
30
0
10
9.6971676009788474
20
5.5029532673557142
30
0
10
9.6356202391472721
20
5.8239793394672912
30
0
10
9.5264382096992115
20
6.1276844641160997
30
0
10
9.3707185041515331
20
6.4093758931477378
30
0
10
9.1742374217281117
20
6.6695722524584564
30
0
10
8.9451617814752495
20
6.9120928933011587
30
0
10
8.6920861732516776
20
7.1425728055202251
30
0
10
8.4220858227407227
20
7.3668597702256218
30
0
10
8.138399369666061
20
7.5893220766196334
30
0
10
7.8394437933883179
20
7.8116501387941426
30
0
10
7.5212025005777221
20
8.0329915078680862
30
0
10
7.1789731556890404
20
8.2498139841336631
30
0
10
6.8093342960966101
20
8.4558941609498426
30
0
10
6.41209890139179
20
8.6422069360425304
30
0
10
5.9920877958136254
20
8.7969582206593895
30
0
10
5.5614786764329303
20
8.9052832119335434
30
0
10
5.137396721142844
20
8.9515864582324927
30
0
10
4.7385511122410904
20
8.9224372388463848
30
0
10
4.3822868855438886
20
8.8091730312858232
30
0
10
4.0812777736243184
20
8.6108531001113935
30
0
10
3.8407997161640566
20
8.3365431509422923
30
0
10
3.6546681082590657
20
8.0092139681148211
30
0
10
3.5069760426606851
20
7.6625743884020494
30
0
10
3.3771161323447654
20
7.3339082814282675
30
0
10
3.2438419153696247
20
7.0580614389504239
30
0
10
3.0896164305882361
20
6.8611244279593944
30
0
10
2.9050977961201614
20
6.7538323718521243
30
0
10
2.6928121415597071
20
6.7262769378938341
30
0
10
2.4620681130347695
20
6.7565066445787458
30
0
10
2.2248842217461005
20
6.817503654147882
30
0
10
1.9909910231683592
20
6.8856772830397359
30
0
10
1.7649651483723781
20
6.945812914133831
30
0
10
1.5478176269359309
20
6.9885704466825702
30
0
10
1.3377021638653304
20
7.0094747235830628
30
0
10
1.1309458055333597
20
7.0073171669470753
30
0
10
0.92303199120387558
20
6.9827926229602832
30
0
10
0.71006866091394827
20
6.9367414228320232
30
0
10
0.48998475334243535
20
6.8687394352635351
30
0
10
0.26420116635686497
20
6.7749980935482537
30
0
10
0.037673335216011711
20
6.6487107394838842
30
0
10
-0.18265227300011277
20
6.4828024690431025
30
0
10
-0.38894286143038082
20
6.2720076401124549
30
0
10
-0.57377795479847871
20
6.0152650644034757
30
0
10
-0.7313217294009412
20
5.717861626959964
30
0
10
-0.8570071196515251
20
5.3894178509310109
30
0
10
-0.94726385383252842
20
5.0420236341866174
30
0
10
-0.99921434885767124
20
4.6882519810547185
30
0
10
-1.010423024247407
20
4.33938221126391
30
0
10
-0.97852695437341752
20
4.0031477985069905
30
0
10
-0.9012789000203747
20
3.6831323950716972
30
0
10
-0.77708290455374929
20
3.3801356800539439
30
0
10
-0.63973963255742461
20
3.1504520606472042
30
0
10
-0.51580893240980863
20
2.9844454001459821
30
0
10
-0.42428253973846475
20
2.8763042233397607
30
0
10
-0.37636213000354801
20
2.8228441593456748
30
0
0
ENDSEC
0
SECTION
2
OBJECTS
0
DICTIONARY
5
C
100
AcDbDictionary
3
ACAD_GROUP
350
D
3
ACAD_MLINESTYLE
350
17
0
DICTIONARY
5
D
100
AcDbDictionary
0
DICTIONARY
5
1A
330
C
100
AcDbDictionary
0
DICTIONARY
5
17
100
AcDbDictionary
0
ENDSEC
0
EOF
