0
SECTION
2
HEADER
9
$INSUNITS
70
4
9
$ACADVER
1
AC1014
9
$HANDSEED
5
FFFF
0
ENDSEC
0
SECTION
2
TABLES
0
TABLE
2
VPORT
5
8
100
AcDbSymbolTable
0
ENDTAB
0
TABLE
2
LTYPE
5
5
100
AcDbSymbolTable
0
LTYPE
5
14
100
AcDbSymbolTableRecord
100
AcDbLinetypeTableRecord
2
BYBLOCK
70
0
0
LTYPE
5
15
100
AcDbSymbolTableRecord
100
AcDbLinetypeTableRecord
2
BYLAYER
70
0
0
ENDTAB
0
TABLE
2
LAYER
5
2
100
AcDbSymbolTable
70
2
0
LAYER
5
50
100
AcDbSymbolTableRecord
100
AcDbLayerTableRecord
2
0
70
0
6
CONTINUOUS
0
ENDTAB
0
TABLE
2
STYLE
5
3
100
AcDbSymbolTable
70
1
0
STYLE
5
11
100
AcDbSymbolTableRecord
100
AcDbTextStyleTableRecord
2
STANDARD
70
0
0
ENDTAB
0
TABLE
2
VIEW
5
6
100
AcDbSymbolTable
70
0
0
ENDTAB
0
TABLE
2
UCS
5
7
100
AcDbSymbolTable
70
0
0
ENDTAB
0
TABLE
2
APPID
5
9
100
AcDbSymbolTable
70
2
0
APPID
5
12
100
AcDbSymbolTableRecord
100
AcDbRegAppTableRecord
2
ACAD
70
0
0
ENDTAB
0
TABLE
2
DIMSTYLE
5
A
100
AcDbSymbolTable
70
1
0
ENDTAB
0
TABLE
2
BLOCK_RECORD
5
1
100
AcDbSymbolTable
70
1
0
BLOCK_RECORD
5
1F
100
AcDbSymbolTableRecord
100
AcDbBlockTableRecord
2
*MODEL_SPACE
0
BLOCK_RECORD
5
1B
100
AcDbSymbolTableRecord
100
AcDbBlockTableRecord
2
*PAPER_SPACE
0
ENDTAB
0
ENDSEC
0
SECTION
2
BLOCKS
0
BLOCK
5
20
100
AcDbEntity
100
AcDbBlockBegin
2
*MODEL_SPACE
0
ENDBLK
5
21
100
AcDbEntity
100
AcDbBlockEnd
0
BLOCK
5
1C
100
AcDbEntity
100
AcDbBlockBegin
2
*PAPER_SPACE
0
ENDBLK
5
1D
100
AcDbEntity
100
AcDbBlockEnd
0
ENDSEC
0
SECTION
2
ENTITIES
0
SPLINE
5
100
100
AcDbEntity
8
0
100
AcDbSpline
70
4
71
5
72
161
73
155
74
0
42
0.000000001
43
0.0000000001
44
0.0000000001
40
0
40
0
40
0
40
0
40
0
40
0
40
0.0066666666666666671
40
0.013333333333333334
40
0.02
40
0.026666666666666668
40
0.033333333333333333
40
0.040000000000000001
40
0.046666666666666669
40
0.053333333333333337
40
0.060000000000000005
40
0.066666666666666666
40
0.073333333333333334
40
0.080000000000000002
40
0.08666666666666667
40
0.093333333333333338
40
0.10000000000000001
40
0.10666666666666667
40
0.11333333333333334
40
0.12000000000000001
40
0.12666666666666668
40
0.13333333333333333
40
0.13999999999999999
40
0.14666666666666664
40
0.15333333333333329
40
0.15999999999999995
40
0.1666666666666666
40
0.17333333333333326
40
0.17999999999999991
40
0.18666666666666656
40
0.19333333333333322
40
0.19999999999999987
40
0.20666666666666653
40
0.21333333333333318
40
0.21999999999999983
40
0.22666666666666649
40
0.23333333333333314
40
0.2399999999999998
40
0.24666666666666645
40
0.25333333333333313
40
0.25999999999999979
40
0.26666666666666644
40
0.2733333333333331
40
0.27999999999999975
40
0.2866666666666664
40
0.29333333333333306
40
0.29999999999999971
40
0.30666666666666637
40
0.31333333333333302
40
0.31999999999999967
40
0.32666666666666633
40
0.33333333333333298
40
0.33999999999999964
40
0.34666666666666629
40
0.35333333333333294
40
0.3599999999999996
40
0.36666666666666625
40
0.37333333333333291
40
0.37999999999999956
40
0.38666666666666621
40
0.39333333333333287
40
0.39999999999999952
40
0.40666666666666618
40
0.41333333333333283
40
0.41999999999999948
40
0.42666666666666614
40
0.43333333333333279
40
0.43999999999999945
40
0.4466666666666661
40
0.45333333333333276
40
0.45999999999999941
40
0.46666666666666606
40
0.47333333333333272
40
0.47999999999999937
40
0.48666666666666603
40
0.49333333333333268
40
0.49999999999999933
40
0.50666666666666604
40
0.51333333333333275
40
0.51999999999999946
40
0.52666666666666617
40
0.53333333333333288
40
0.53999999999999959
40
0.5466666666666663
40
0.55333333333333301
40
0.55999999999999972
40
0.56666666666666643
40
0.57333333333333314
40
0.57999999999999985
40
0.58666666666666656
40
0.59333333333333327
40
0.59999999999999998
40
0.60666666666666669
40
0.6133333333333334
40
0.62000000000000011
40
0.62666666666666682
40
0.63333333333333353
40
0.64000000000000024
40
0.64666666666666694
40
0.65333333333333365
40
0.66000000000000036
40
0.66666666666666707
40
0.67333333333333378
40
0.68000000000000049
40
0.6866666666666672
40
0.69333333333333391
40
0.70000000000000062
40
0.70666666666666733
40
0.71333333333333404
40
0.72000000000000075
40
0.72666666666666746
40
0.73333333333333417
40
0.74000000000000088
40
0.74666666666666759
40
0.7533333333333343
40
0.76000000000000101
40
0.76666666666666772
40
0.77333333333333443
40
0.78000000000000114
40
0.78666666666666785
40
0.79333333333333456
40
0.80000000000000127
40
0.80666666666666798
40
0.81333333333333468
40
0.82000000000000139
40
0.8266666666666681
40
0.83333333333333481
40
0.84000000000000152
40
0.84666666666666823
40
0.85333333333333494
40
0.86000000000000165
40
0.86666666666666836
40
0.87333333333333507
40
0.88000000000000178
40
0.88666666666666849
40
0.8933333333333352
40
0.90000000000000191
40
0.90666666666666862
40
0.91333333333333533
40
0.92000000000000204
40
0.92666666666666875
40
0.93333333333333546
40
0.94000000000000217
40
0.94666666666666888
40
0.95333333333333559
40
0.9600000000000023
40
0.96666666666666901
40
0.97333333333333572
40
0.98000000000000242
40
0.98666666666666913
40
0.99333333333333584
40
1
40
1
40
1
40
1
40
1
40
1
41
1
41
1
41
1
41
1
41
1
41
1
41
1
41
1
41
1
41
1
41
1
41
1
41
1
41
1
41
1
41
1
41
1
41
1
41
1
41
1
41
1
41
1
41
1
41
1
41
1
41
1
41
1
41
1
41
1
41
1
41
1
41
1
41
1
41
1
41
1
41
1
41
1
41
1
41
1
41
1
41
1
41
1
41
1
41
1
41
1
41
1
41
1
41
1
41
1
41
1
41
1
41
1
41
1
41
1
41
1
41
1
41
1
41
1
41
1
41
1
41
1
41
1
41
1
41
1
41
1
41
1
41
1
41
1
41
1
41
1
41
1
41
1
41
1
41
1
41
1
41
1
41
1
41
1
41
1
41
1
41
1
41
1
41
1
41
1
41
1
41
1
41
1
41
1
41
1
41
1
41
1
41
1
41
1
41
1
41
1
41
1
41
1
41
1
41
1
41
1
41
1
41
1
41
1
41
1
41
1
41
1
41
1
41
1
41
1
41
1
41
1
41
1
41
1
41
1
41
1
41
1
41
1
41
1
41
1
41
1
41
1
41
1
41
1
41
1
41
1
41
1
41
1
41
1
41
1
41
1
41
1
41
1
41
1
41
1
41
1
41
1
41
1
41
1
41
1
41
1
41
1
41
1
41
1
41
1
41
1
41
1
41
1
41
1
41
1
41
1
41
1
41
1
41
1
41
1
41
1
10
-12.499999720603228
20
-7.9999998211860657
30
0
10
-12.566706339695763
20
-8.0963097142455975
30
0
10
-12.697191388277346
20
-8.2853722722055014
30
0
10
-12.884134395296185
20
-8.5582944383294262
30
0
10
-13.115821309587165
20
-8.9008456554575428
30
0
10
-13.376247726234089
20
-9.2938371150260775
30
0
10
-13.607809643472287
20
-9.652776675899835
30
0
10
-13.811152968422046
20
-9.9799713829654131
30
0
10
-13.987361089690292
20
-10.279268966026812
30
0
10
-14.138071429222435
20
-10.556470637135998
30
0
10
-14.265572641021169
20
-10.819652326215817
30
0
10
-14.372559330699479
20
-11.077680393020355
30
0
10
-14.461899002344943
20
-11.338841727549783
30
0
10
-14.536402817926497
20
-11.609372260985339
30
0
10
-14.598570628139475
20
-11.892192097942393
30
0
10
-14.649911649577952
20
-12.188148242653105
30
0
10
-14.690315570076464
20
-12.497073177939878
30
0
10
-14.717357819525908
20
-12.818959024011551
30
0
10
-14.72576060822683
20
-13.154953579557919
30
0
10
-14.708533017658167
20
-13.506645421742263
30
0
10
-14.658028108774023
20
-13.875443541158358
30
0
10
-14.566963655284653
20
-14.261962808277627
30
0
10
-14.429620004221766
20
-14.665307482703028
30
0
10
-14.242377049253816
20
-15.082757420591184
30
0
10
-14.003327332363156
20
-15.510022080716389
30
0
10
-13.712117809208877
20
-15.941354484581268
30
0
10
-13.369698605094039
20
-16.369720161640803
30
0
10
-12.978114089094761
20
-16.786945122040976
30
0
10
-12.540271183950093
20
-17.183865438253246
30
0
10
-12.05973183609836
20
-17.550495859190349
30
0
10
-11.540889371664383
20
-17.876746736492802
30
0
10
-10.98912709973375
20
-18.153113963854409
30
0
10
-10.410991265028841
20
-18.371387533346834
30
0
10
-9.814341388928927
20
-18.525333753638503
30
0
10
-9.2085498460373838
20
-18.611432886100683
30
0
10
-8.6045894718049389
20
-18.629492189117521
30
0
10
-8.0153916167693797
20
-18.583560422806865
30
0
10
-7.4553319147689496
20
-18.481870901184351
30
0
10
-6.9381525205045786
20
-18.335032700994031
30
0
10
-6.4752087028425676
20
-18.154598511918575
30
0
10
-6.0736320571033708
20
-17.951508493457105
30
0
10
-5.7344195637245923
20
-17.734525827507767
30
0
10
-5.4508083032068209
20
-17.50881940788782
30
0
10
-5.2058488269977072
20
-17.274101242645791
30
0
10
-4.9769073345838333
20
-17.026649420605125
30
0
10
-4.7414445262229803
20
-16.762033005872894
30
0
10
-4.4822175865887415
20
-16.477546700810322
30
0
10
-4.1930257211931217
20
-16.174870132093297
30
0
10
-3.8833623100793386
20
-15.862340765250107
30
0
10
-3.5719346293228633
20
-15.553689447632195
30
0
10
-3.2811003609394289
20
-15.266980316237346
30
0
10
-3.0307623953660463
20
-15.023582836596459
30
0
10
-2.8329421660055063
20
-14.846881615792569
30
0
10
-2.6848874459206846
20
-14.761778429488073
30
0
10
-2.5721179215537782
20
-14.787290509000542
30
0
10
-2.4739672281975826
20
-14.925821148938303
30
0
10
-2.3678616345221859
20
-15.157626962784068
30
0
10
-2.2324101573016093
20
-15.45247961940585
30
0
10
-2.0504272288630014
20
-15.778315240181
30
0
10
-1.8123717150879686
20
-16.111992416585533
30
0
10
-1.5152645310979118
20
-16.438563219319789
30
0
10
-1.1609846569515967
20
-16.749227600151968
30
0
10
-0.75478590672259127
20
-17.039739908450926
30
0
10
-0.30372437378499423
20
-17.308629846520805
30
0
10
0.18488089522653237
20
-17.555498078754404
30
0
10
0.70498491660404949
20
-17.779297083743415
30
0
10
1.251573085877151
20
-17.978435153913118
30
0
10
1.820440654602278
20
-18.150854848329608
30
0
10
2.4079622549783193
20
-18.294120258891514
30
0
10
3.0108690043840785
20
-18.405502520434194
30
0
10
3.6260151538843841
20
-18.482061091850564
30
0
10
4.2501663790320094
20
-18.520738221637647
30
0
10
4.8797370102505786
20
-18.518419790267092
30
0
10
5.5106972495194295
20
-18.472109862307843
30
0
10
6.1387379364997798
20
-18.379279644279489
30
0
10
6.759373948692148
20
-18.23817296460582
30
0
10
7.3680725464586319
20
-18.048134137370852
30
0
10
7.9603704743422785
20
-17.80991600550292
30
0
10
8.5319971917344581
20
-17.526021473533206
30
0
10
9.078992540272278
20
-17.200973931304326
30
0
10
9.5978341080222442
20
-16.841757456791409
30
0
10
10.085536758963604
20
-16.457726893694765
30
0
10
10.539692030674608
20
-16.059349304999689
30
0
10
10.958519601109195
20
-15.657185724968468
30
0
10
11.340914833024971
20
-15.260774192240532
30
0
10
11.686496632896146
20
-14.877561705800495
30
0
10
11.995659071567426
20
-14.511798398742322
30
0
10
12.269612992221077
20
-14.163485295021147
30
0
10
12.51045535374185
20
-13.827194443086334
30
0
10
12.720590468573803
20
-13.493931643555221
30
0
10
12.902139908450305
20
-13.153090966043282
30
0
10
13.056324765257134
20
-12.794447651218736
30
0
10
13.182931581179441
20
-12.409969923095378
30
0
10
13.279560805379653
20
-11.99612264182128
30
0
10
13.341828750189544
20
-11.553995320013668
30
0
10
13.364143723246571
20
-11.088115674844097
30
0
10
13.340306323941252
20
-10.605669987119306
30
0
10
13.264184133100841
20
-10.115543012562622
30
0
10
13.130350111068347
20
-9.6274662247139862
30
0
10
12.934747976050849
20
-9.1510424802361783
30
0
10
12.675282742688022
20
-8.6952498196803845
30
0
10
12.352378728109992
20
-8.2681444244048894
30
0
10
11.969557085154163
20
-7.8764975869353435
30
0
10
11.533986939584322
20
-7.5254655428572459
30
0
10
11.057093330366403
20
-7.2182313053821687
30
0
10
10.555037321543361
20
-6.9556895979927926
30
0
10
10.04953447461004
20
-6.7360273974255556
30
0
10
9.5645028043778808
20
-6.5555589489833253
30
0
10
9.1222038878558713
20
-6.4097091517883023
30
0
10
8.7396802678033829
20
-6.2939152482038967
30
0
10
8.4248069129978393
20
-6.2046267080657422
30
0
10
8.1731140095426387
20
-6.1401135971630607
30
0
10
7.9626912227690427
20
-6.1017490890633761
30
0
10
7.7647487658610999
20
-6.091311389030249
30
0
10
7.5552342775372434
20
-6.1079096500317913
30
0
10
7.3289110338738039
20
-6.1445291163185454
30
0
10
7.0970675294408627
20
-6.187839398730512
30
0
10
6.8784970124071734
20
-6.2201375481978189
30
0
10
6.6920966017343968
20
-6.2192979068551129
30
0
10
6.5510718282422831
20
-6.1647972112044425
30
0
10
6.4596739381954462
20
-6.0487582824467871
30
0
10
6.40912880016299
20
-5.8853183164036063
30
0
10
6.3830418398751512
20
-5.6958954793885628
30
0
10
6.3637236245884345
20
-5.4890111241907178
30
0
10
6.3350260280550934
20
-5.258923046006684
30
0
10
6.2826038921494778
20
-4.9972177629973027
30
0
10
6.1948145329055473
20
-4.7022614458172862
30
0
10
6.0637133083637309
20
-4.3841575621950071
30
0
10
5.8867305974265296
20
-4.0599467332485943
30
0
10
5.6682314194893184
20
-3.7513433022621756
30
0
10
5.4209732174642333
20
-3.4813110444307735
30
0
10
5.1680113427333305
20
-3.2714786534471201
30
0
10
4.9388537387497404
20
-3.1343784214855859
30
0
10
4.7651663936379265
20
-3.0653332503468751
30
0
10
4.6763766949332473
20
-3.0342820180789003
30
0
10
4.6958231160486026
20
-2.9787028954694046
30
0
10
4.8275762786717005
20
-2.8500499603103089
30
0
10
5.0547268015778277
20
-2.6291007976432876
30
0
10
5.3489998849436562
20
-2.3140553423667689
30
0
10
5.6770603223816432
20
-1.9159813926704277
30
0
10
6.0088041844870119
20
-1.4508011064965542
30
0
10
6.3228285239375595
20
-0.93422690741350511
30
0
10
6.6043862575365573
20
-0.38191884670661547
30
0
10
6.8445252858603203
20
0.19107603122041261
30
0
10
7.0387619285443588
20
0.77061452398180719
30
0
10
7.1859673888948077
20
1.3438546758414676
30
0
10
7.2871333868453565
20
1.8996270389779664
30
0
10
7.3442617875888603
20
2.4287723848404235
30
0
10
7.3590201528638381
20
2.9246096962385848
30
0
10
7.3324678412063342
20
3.3827318165583713
30
0
10
7.2652701035089597
20
3.8004874708183478
30
0
10
7.1792597722709282
20
4.1013485174722142
30
0
10
7.0966638663458745
20
4.3080434397900618
30
0
10
7.0335611481667994
20
4.4374181756450852
30
0
10
7.0000001043081284
20
4.5000000670552254
30
0
0
CIRCLE
5
101
100
AcDbEntity
8
0
100
AcDbCircle
10
2.9044643134829329
20
9.8843579421683625
30
0
40
1.9024875903702272
210
0
220
0
230
1
0
ARC
5
102
100
AcDbEntity
8
0
100
AcDbCircle
10
2.9044643134829329
20
9.8843579421683625
30
0
40
3.8377029331531656
210
0
220
0
230
1
100
AcDbArc
50
-36.294059962639274
51
195.40116685178296
0
ARC
5
103
100
AcDbEntity
8
0
100
AcDbCircle
10
-2.375712073499729
20
8.5449107765597514
30
0
40
1.612408120393146
210
0
220
0
230
1
100
AcDbArc
50
-54.868412687570206
51
14.939038473983249
0
SPLINE
5
104
100
AcDbEntity
8
0
100
AcDbSpline
70
4
71
5
72
31
73
25
74
0
42
0.000000001
43
0.0000000001
44
0.0000000001
40
0
40
0
40
0
40
0
40
0
40
0
40
0.033333333333333333
40
0.066666666666666666
40
0.10000000000000001
40
0.13333333333333333
40
0.16666666666666666
40
0.19999999999999998
40
0.23333333333333331
40
0.26666666666666666
40
0.29999999999999999
40
0.33333333333333331
40
0.36666666666666664
40
0.39999999999999997
40
0.43333333333333329
40
0.46666666666666662
40
0.49999999999999994
40
0.53333333333333333
40
0.56666666666666665
40
0.59999999999999998
40
0.6333333333333333
40
0.66591118620649525
40
0.66591118620649525
40
0.66591118620649525
40
0.66591118620649525
40
0.66591118620649525
40
0.66591118620649525
41
1
41
1
41
1
41
1
41
1
41
1
41
1
41
1
41
1
41
1
41
1
41
1
41
1
41
1
41
1
41
1
41
1
41
1
41
1
41
1
41
1
41
1
41
1
41
1
41
1
10
-12.499999720603228
20
-7.9999998211860657
30
0
10
-12.289155825583467
20
-7.702173948174476
30
0
10
-11.875549073514961
20
-7.1155535099499101
30
0
10
-11.279381986280722
20
-6.2627167540089062
30
0
10
-10.533067051429521
20
-5.1798871907558599
30
0
10
-9.681180110719934
20
-3.9172527581366587
30
0
10
-8.9095659123735675
20
-2.7458049540302376
30
0
10
-8.2160493036505677
20
-1.6653444965359414
30
0
10
-7.596401734989918
20
-0.67484225317551894
30
0
10
-7.0435541872791543
20
0.22795339993153477
30
0
10
-6.5471371150734949
20
1.0468652656579276
30
0
10
-6.0921210685274287
20
1.7878168350894743
30
0
10
-5.6608757309312638
20
2.4587539675683967
30
0
10
-5.2378513610161797
20
3.0690930450502636
30
0
10
-4.8135756801963172
20
3.6293374046529978
30
0
10
-4.3888125656078003
20
4.150633547921756
30
0
10
-3.9791108053536965
20
4.6444059335307628
30
0
10
-3.6012572697272107
20
5.1204429666527265
30
0
10
-3.2605555571456328
20
5.5850682291108793
30
0
10
-2.9354751200904201
20
6.039044221047968
30
0
10
-2.5717529411172535
20
6.4742218153388666
30
0
10
-2.1987605324093034
20
6.7995273420816469
30
0
10
-1.8502043650671656
20
7.0234978445282952
30
0
10
-1.586204689508365
20
7.1611854520869231
30
0
10
-1.4478418031987816
20
7.2262308653601446
30
0
0
ARC
5
105
100
AcDbEntity
8
0
100
AcDbCircle
10
7.074085225796952
20
6.9268458661285459
30
0
40
1.2764007221918563
210
0
220
0
230
1
100
AcDbArc
50
141.80663492382402
51
216.14157712028492
0
SPLINE
5
106
100
AcDbEntity
8
0
100
AcDbSpline
70
4
71
5
72
13
73
7
74
0
42
0.000000001
43
0.0000000001
44
0.0000000001
40
0.93749874640749209
40
0.93749874640749209
40
0.93749874640749209
40
0.93749874640749209
40
0.93749874640749209
40
0.93749874640749209
40
0.96666666666666656
40
1
40
1
40
1
40
1
40
1
40
1
41
1
41
1
41
1
41
1
41
1
41
1
41
1
10
6.0432729653616937
20
6.1740922746469504
30
0
10
6.155613354250149
20
6.0450445320641633
30
0
10
6.384953766719633
20
5.7549131469794821
30
0
10
6.5896530284048271
20
5.4356109446684266
30
0
10
6.7694611202546735
20
5.0871651536896421
30
0
10
6.9244228300610002
20
4.7096256656500808
30
0
10
7.0000001043081284
20
4.5000000670552254
30
0
0
ENDSEC
0
SECTION
2
OBJECTS
0
DICTIONARY
5
C
100
AcDbDictionary
3
ACAD_GROUP
350
D
3
ACAD_MLINESTYLE
350
17
0
DICTIONARY
5
D
100
AcDbDictionary
0
DICTIONARY
5
1A
330
C
100
AcDbDictionary
0
DICTIONARY
5
17
100
AcDbDictionary
0
ENDSEC
0
EOF
