0
SECTION
2
HEADER
9
$INSUNITS
70
4
9
$ACADVER
1
AC1014
9
$HANDSEED
5
FFFF
0
ENDSEC
0
SECTION
2
TABLES
0
TABLE
2
VPORT
5
8
100
AcDbSymbolTable
0
ENDTAB
0
TABLE
2
LTYPE
5
5
100
AcDbSymbolTable
0
LTYPE
5
14
100
AcDbSymbolTableRecord
100
AcDbLinetypeTableRecord
2
BYBLOCK
70
0
0
LTYPE
5
15
100
AcDbSymbolTableRecord
100
AcDbLinetypeTableRecord
2
BYLAYER
70
0
0
ENDTAB
0
TABLE
2
LAYER
5
2
100
AcDbSymbolTable
70
2
0
LAYER
5
50
100
AcDbSymbolTableRecord
100
AcDbLayerTableRecord
2
0
70
0
6
CONTINUOUS
0
ENDTAB
0
TABLE
2
STYLE
5
3
100
AcDbSymbolTable
70
1
0
STYLE
5
11
100
AcDbSymbolTableRecord
100
AcDbTextStyleTableRecord
2
STANDARD
70
0
0
ENDTAB
0
TABLE
2
VIEW
5
6
100
AcDbSymbolTable
70
0
0
ENDTAB
0
TABLE
2
UCS
5
7
100
AcDbSymbolTable
70
0
0
ENDTAB
0
TABLE
2
APPID
5
9
100
AcDbSymbolTable
70
2
0
APPID
5
12
100
AcDbSymbolTableRecord
100
AcDbRegAppTableRecord
2
ACAD
70
0
0
ENDTAB
0
TABLE
2
DIMSTYLE
5
A
100
AcDbSymbolTable
70
1
0
ENDTAB
0
TABLE
2
BLOCK_RECORD
5
1
100
AcDbSymbolTable
70
1
0
BLOCK_RECORD
5
1F
100
AcDbSymbolTableRecord
100
AcDbBlockTableRecord
2
*MODEL_SPACE
0
BLOCK_RECORD
5
1B
100
AcDbSymbolTableRecord
100
AcDbBlockTableRecord
2
*PAPER_SPACE
0
ENDTAB
0
ENDSEC
0
SECTION
2
BLOCKS
0
BLOCK
5
20
100
AcDbEntity
100
AcDbBlockBegin
2
*MODEL_SPACE
0
ENDBLK
5
21
100
AcDbEntity
100
AcDbBlockEnd
0
BLOCK
5
1C
100
AcDbEntity
100
AcDbBlockBegin
2
*PAPER_SPACE
0
ENDBLK
5
1D
100
AcDbEntity
100
AcDbBlockEnd
0
ENDSEC
0
SECTION
2
ENTITIES
0
SPLINE
5
100
100
AcDbEntity
8
0
100
AcDbSpline
70
6
71
5
72
216
73
210
74
0
42
0.000000001
43
0.0000000001
44
0.0000000001
40
0
40
0
40
0
40
0
40
0
40
0
40
0.0048780487804878049
40
0.0097560975609756097
40
0.014634146341463414
40
0.019512195121951219
40
0.024390243902439025
40
0.029268292682926831
40
0.034146341463414637
40
0.039024390243902439
40
0.043902439024390241
40
0.048780487804878044
40
0.053658536585365846
40
0.058536585365853648
40
0.06341463414634145
40
0.06829268292682926
40
0.073170731707317069
40
0.078048780487804878
40
0.082926829268292687
40
0.087804878048780496
40
0.092682926829268306
40
0.097560975609756115
40
0.10243902439024392
40
0.10731707317073173
40
0.11219512195121954
40
0.11707317073170735
40
0.12195121951219516
40
0.12682926829268296
40
0.13170731707317077
40
0.13658536585365857
40
0.14146341463414638
40
0.14634146341463419
40
0.151219512195122
40
0.15609756097560981
40
0.16097560975609762
40
0.16585365853658543
40
0.17073170731707324
40
0.17560975609756105
40
0.18048780487804886
40
0.18536585365853667
40
0.19024390243902448
40
0.19512195121951229
40
0.20000000000000009
40
0.2048780487804879
40
0.20975609756097571
40
0.21463414634146352
40
0.21951219512195133
40
0.22439024390243914
40
0.22926829268292695
40
0.23414634146341476
40
0.23902439024390257
40
0.24390243902439038
40
0.24878048780487819
40
0.25365853658536597
40
0.25853658536585378
40
0.26341463414634159
40
0.2682926829268294
40
0.2731707317073172
40
0.27804878048780501
40
0.28292682926829282
40
0.28780487804878063
40
0.29268292682926844
40
0.29756097560975625
40
0.30243902439024406
40
0.30731707317073187
40
0.31219512195121968
40
0.31707317073170749
40
0.3219512195121953
40
0.32682926829268311
40
0.33170731707317092
40
0.33658536585365872
40
0.34146341463414653
40
0.34634146341463434
40
0.35121951219512215
40
0.35609756097560996
40
0.36097560975609777
40
0.36585365853658558
40
0.37073170731707339
40
0.3756097560975612
40
0.38048780487804901
40
0.38536585365853682
40
0.39024390243902463
40
0.39512195121951244
40
0.40000000000000024
40
0.40487804878048805
40
0.40975609756097586
40
0.41463414634146367
40
0.41951219512195148
40
0.42439024390243929
40
0.4292682926829271
40
0.43414634146341491
40
0.43902439024390272
40
0.44390243902439053
40
0.44878048780487834
40
0.45365853658536615
40
0.45853658536585395
40
0.46341463414634176
40
0.46829268292682957
40
0.47317073170731738
40
0.47804878048780519
40
0.482926829268293
40
0.48780487804878081
40
0.49268292682926862
40
0.49756097560975643
40
0.50243902439024424
40
0.50731707317073205
40
0.51219512195121986
40
0.51707317073170767
40
0.52195121951219547
40
0.52682926829268328
40
0.53170731707317109
40
0.5365853658536589
40
0.54146341463414671
40
0.54634146341463452
40
0.55121951219512233
40
0.55609756097561014
40
0.56097560975609795
40
0.56585365853658576
40
0.57073170731707357
40
0.57560975609756138
40
0.58048780487804919
40
0.58536585365853699
40
0.5902439024390248
40
0.59512195121951261
40
0.60000000000000042
40
0.60487804878048823
40
0.60975609756097604
40
0.61463414634146385
40
0.61951219512195166
40
0.62439024390243947
40
0.62926829268292728
40
0.63414634146341509
40
0.6390243902439029
40
0.6439024390243907
40
0.64878048780487851
40
0.65365853658536632
40
0.65853658536585413
40
0.66341463414634194
40
0.66829268292682975
40
0.67317073170731756
40
0.67804878048780537
40
0.68292682926829318
40
0.68780487804878099
40
0.6926829268292688
40
0.69756097560975661
40
0.70243902439024442
40
0.70731707317073222
40
0.71219512195122003
40
0.71707317073170784
40
0.72195121951219565
40
0.72682926829268346
40
0.73170731707317127
40
0.73658536585365908
40
0.74146341463414689
40
0.7463414634146347
40
0.75121951219512251
40
0.75609756097561032
40
0.76097560975609813
40
0.76585365853658594
40
0.77073170731707374
40
0.77560975609756155
40
0.78048780487804936
40
0.78536585365853717
40
0.79024390243902498
40
0.79512195121951279
40
0.8000000000000006
40
0.80487804878048841
40
0.80975609756097622
40
0.81463414634146403
40
0.81951219512195184
40
0.82439024390243965
40
0.82926829268292745
40
0.83414634146341526
40
0.83902439024390307
40
0.84390243902439088
40
0.84878048780487869
40
0.8536585365853665
40
0.85853658536585431
40
0.86341463414634212
40
0.86829268292682993
40
0.87317073170731774
40
0.87804878048780555
40
0.88292682926829336
40
0.88780487804878117
40
0.89268292682926897
40
0.89756097560975678
40
0.90243902439024459
40
0.9073170731707324
40
0.91219512195122021
40
0.91707317073170802
40
0.92195121951219583
40
0.92682926829268364
40
0.93170731707317145
40
0.93658536585365926
40
0.94146341463414707
40
0.94634146341463488
40
0.95121951219512269
40
0.95609756097561049
40
0.9609756097560983
40
0.96585365853658611
40
0.97073170731707392
40
0.97560975609756173
40
0.98048780487804954
40
0.98536585365853735
40
0.99024390243902516
40
0.99512195121951297
40
1
40
1
40
1
40
1
40
1
40
1
41
1
41
1
41
1
41
1
41
1
41
1
41
1
41
1
41
1
41
1
41
1
41
1
41
1
41
1
41
1
41
1
41
1
41
1
41
1
41
1
41
1
41
1
41
1
41
1
41
1
41
1
41
1
41
1
41
1
41
1
41
1
41
1
41
1
41
1
41
1
41
1
41
1
41
1
41
1
41
1
41
1
41
1
41
1
41
1
41
1
41
1
41
1
41
1
41
1
41
1
41
1
41
1
41
1
41
1
41
1
41
1
41
1
41
1
41
1
41
1
41
1
41
1
41
1
41
1
41
1
41
1
41
1
41
1
41
1
41
1
41
1
41
1
41
1
41
1
41
1
41
1
41
1
41
1
41
1
41
1
41
1
41
1
41
1
41
1
41
1
41
1
41
1
41
1
41
1
41
1
41
1
41
1
41
1
41
1
41
1
41
1
41
1
41
1
41
1
41
1
41
1
41
1
41
1
41
1
41
1
41
1
41
1
41
1
41
1
41
1
41
1
41
1
41
1
41
1
41
1
41
1
41
1
41
1
41
1
41
1
41
1
41
1
41
1
41
1
41
1
41
1
41
1
41
1
41
1
41
1
41
1
41
1
41
1
41
1
41
1
41
1
41
1
41
1
41
1
41
1
41
1
41
1
41
1
41
1
41
1
41
1
41
1
41
1
41
1
41
1
41
1
41
1
41
1
41
1
41
1
41
1
41
1
41
1
41
1
41
1
41
1
41
1
41
1
41
1
41
1
41
1
41
1
41
1
41
1
41
1
41
1
41
1
41
1
41
1
41
1
41
1
41
1
41
1
41
1
41
1
41
1
41
1
41
1
41
1
41
1
41
1
41
1
41
1
41
1
41
1
41
1
41
1
41
1
41
1
41
1
41
1
41
1
41
1
41
1
41
1
41
1
41
1
41
1
41
1
41
1
41
1
41
1
41
1
41
1
41
1
10
-4.4568515831304776
20
-0.049495371186374509
30
0
10
-4.5234923388336981
20
-0.14929118553099777
30
0
10
-4.6586634089466008
20
-0.35217463789987336
30
0
10
-4.8667152901981066
20
-0.665686285919172
30
0
10
-5.1516699169566502
20
-1.0969712260327267
30
0
10
-5.5078021727331175
20
-1.6378436159467771
30
0
10
-5.848835814316617
20
-2.1566721978899457
30
0
10
-6.1600335303059861
20
-2.6303616227633215
30
0
10
-6.4295804852178415
20
-3.0405971351111614
30
0
10
-6.6513655692492879
20
-3.378166950873855
30
0
10
-6.8273902008063274
20
-3.6466841699411856
30
0
10
-6.9711391405211343
20
-3.8678592630772024
30
0
10
-7.103319133717104
20
-4.0744865505660801
30
0
10
-7.2463263233313269
20
-4.301400530512776
30
0
10
-7.4188835049516131
20
-4.5766693100153946
30
0
10
-7.6313765675191725
20
-4.9140148142122273
30
0
10
-7.8875989151600265
20
-5.3162416215470056
30
0
10
-8.1858086394288936
20
-5.7774955687609575
30
0
10
-8.5200438653496562
20
-6.2859471280627846
30
0
10
-8.8813428963947914
20
-6.8263528075395072
30
0
10
-9.2589685237909407
20
-7.3825279571932567
30
0
10
-9.6417225945607719
20
-7.9402154836663872
30
0
10
-10.018708755183624
20
-8.4877998144954301
30
0
10
-10.379848459472809
20
-9.0160805715329779
30
0
10
-10.71647942179947
20
-9.5183495018912563
30
0
10
-11.021913767109838
20
-9.9903401812006418
30
0
10
-11.292028005516851
20
-10.430235863152991
30
0
10
-11.525806611859231
20
-10.838645402548103
30
0
10
-11.725984719280426
20
-11.218610710311921
30
0
10
-11.89942464343501
20
-11.575551254387511
30
0
10
-12.054238487980522
20
-11.916467041204246
30
0
10
-12.197092637216221
20
-12.249190191361723
30
0
10
-12.330504882365878
20
-12.581617093924557
30
0
10
-12.450001068455192
20
-12.920951567332661
30
0
10
-12.541733708903005
20
-13.27293724506678
30
0
10
-12.58679985660385
20
-13.641142397207238
30
0
10
-12.565287106864595
20
-14.02619159182295
30
0
10
-12.460194204899516
20
-14.425115857087306
30
0
10
-12.261942931369944
20
-14.830418975361791
30
0
10
-11.97089517397484
20
-15.230018884398431
30
0
10
-11.594901707086681
20
-15.609322636356289
30
0
10
-11.147816136679587
20
-15.952900515117607
30
0
10
-10.64763287671607
20
-16.246290377220578
30
0
10
-10.114771525419924
20
-16.477812358977026
30
0
10
-9.5703337562394477
20
-16.640224821145914
30
0
10
-9.034281220907312
20
-16.732852798783824
30
0
10
-8.5243281759335172
20
-16.760442479737357
30
0
10
-8.0550050890287785
20
-16.731191952542666
30
0
10
-7.6366889103935831
20
-16.655082365782278
30
0
10
-7.2745889798824335
20
-16.542040826051675
30
0
10
-6.967886400952418
20
-16.400275580335901
30
0
10
-6.708448969955418
20
-16.234273535083336
30
0
10
-6.4830755277116054
20
-16.045365777840598
30
0
10
-6.2764655336547435
20
-15.832769743417991
30
0
10
-6.073809892283462
20
-15.594456083480015
30
0
10
-5.8638588617488354
20
-15.328113249353418
30
0
10
-5.6392424181692347
20
-15.031868207587527
30
0
10
-5.3961854054943981
20
-14.704961048433949
30
0
10
-5.1344438782945678
20
-14.348452785807407
30
0
10
-4.8571158641531671
20
-13.965877954249999
30
0
10
-4.5705958571496721
20
-13.564031955127104
30
0
10
-4.2832972683762129
20
-13.152274769081526
30
0
10
-4.0042240014011714
20
-12.741659481157875
30
0
10
-3.7416223976457679
20
-12.344125278448754
30
0
10
-3.5015384853878895
20
-11.971659271501906
30
0
10
-3.2865578753576581
20
-11.635481350362939
30
0
10
-3.0940971214950093
20
-11.345198892387621
30
0
10
-2.9176008275301077
20
-11.107920449646658
30
0
10
-2.7484119564387957
20
-10.927065513715144
30
0
10
-2.5775278374400368
20
-10.801804137717383
30
0
10
-2.3971201310767003
20
-10.724932479116857
30
0
10
-2.2038824332870668
20
-10.689171705415603
30
0
10
-2.0031826217386186
20
-10.696689878173135
30
0
10
-1.8128224833693118
20
-10.767461486457732
30
0
10
-1.6526513861153873
20
-10.925874035579033
30
0
10
-1.5323339482762544
20
-11.184943595417971
30
0
10
-1.4441846956152939
20
-11.536669151079726
30
0
10
-1.3708461226766631
20
-11.960169170555053
30
0
10
-1.2904977669507975
20
-12.426817636945387
30
0
10
-1.1827741025272434
20
-12.906351640868735
30
0
10
-1.0350024895088692
20
-13.373058409036014
30
0
10
-0.84638791343790432
20
-13.810408972445632
30
0
10
-0.62353382243297206
20
-14.208849968406271
30
0
10
-0.37739471070791919
20
-14.564684251525129
30
0
10
-0.11951565409232646
20
-14.87851013847839
30
0
10
0.14107460685098477
20
-15.15388298687907
30
0
10
0.40211891153613599
20
-15.395798974370793
30
0
10
0.66826265493698911
20
-15.609602376624549
30
0
10
0.94778639133353615
20
-15.800205548184213
30
0
10
1.2502986028613683
20
-15.971221144378561
30
0
10
1.5840379712568964
20
-16.124132673589198
30
0
10
1.9533341789344951
20
-16.257441671121427
30
0
10
2.3592266570832749
20
-16.367586251355
30
0
10
2.8001175283539537
20
-16.449845694437744
30
0
10
3.2724213651545941
20
-16.499281389287955
30
0
10
3.7711891357936471
20
-16.511591208116482
30
0
10
4.2908097402084087
20
-16.484177581434935
30
0
10
4.8253949206734745
20
-16.416376835916481
30
0
10
5.3689040846333125
20
-16.309009048170267
30
0
10
5.915346185700221
20
-16.164121655057436
30
0
10
6.4589440678347465
20
-15.984655033498171
30
0
10
6.9943284314729421
20
-15.774138540859447
30
0
10
7.5166875188367417
20
-15.536380918914357
30
0
10
8.0220149979733435
20
-15.275144741784683
30
0
10
8.5069633740387154
20
-14.993911096002089
30
0
10
8.9684262369118848
20
-14.695714126559782
30
0
10
9.4031945363867653
20
-14.38294908928472
30
0
10
9.8075954226586681
20
-14.057203626434447
30
0
10
10.177108344663747
20
-13.719050416810532
30
0
10
10.506061564213764
20
-13.367923250916117
30
0
10
10.787111808372085
20
-13.001784775201358
30
0
10
11.011953213070939
20
-12.6179553851196
30
0
10
11.172439332705412
20
-12.21432525175253
30
0
10
11.261582053348299
20
-11.790462956482486
30
0
10
11.274572507483981
20
-11.348716351639625
30
0
10
11.209863000524997
20
-10.895438645997714
30
0
10
11.070016403518618
20
-10.441801817567134
30
0
10
10.86102969900206
20
-10.001913933654533
30
0
10
10.591820440054288
20
-9.5912520627996241
30
0
10
10.273667829978166
20
-9.2249440576887451
30
0
10
9.9196347379077547
20
-8.9161824354167312
30
0
10
9.5440910653612505
20
-8.6744187680184002
30
0
10
9.1619096486847074
20
-8.5041570942255635
30
0
10
8.7866363081481484
20
-8.4057241091157895
30
0
10
8.428738385988277
20
-8.3757301148152425
30
0
10
8.0940106037537625
20
-8.4076194044854144
30
0
10
7.7814665438055606
20
-8.492256215655539
30
0
10
7.4828673741818763
20
-8.6182600404722933
30
0
10
7.1868980427903857
20
-8.7715735542212201
30
0
10
6.8825331531577918
20
-8.9351536762750055
30
0
10
6.5626559125095891
20
-9.088651416465618
30
0
10
6.2277503523998403
20
-9.2079852121370411
30
0
10
5.8842126637614918
20
-9.2695128499430712
30
0
10
5.542374566510226
20
-9.2547456258556107
30
0
10
5.2146681371443755
20
-9.1542257895465724
30
0
10
4.9136496093895881
20
-8.9733030844480055
30
0
10
4.6504149427037698
20
-8.7306212594769192
30
0
10
4.4332732420587888
20
-8.4503938740858562
30
0
10
4.2664173082126124
20
-8.1566451427818567
30
0
10
4.1484389308264715
20
-7.8661891012155447
30
0
10
4.0713704090169571
20
-7.5834886372037271
30
0
10
4.0232979009482017
20
-7.3055417661899238
30
0
10
3.9904712443129147
20
-7.0255260652143168
30
0
10
3.9598255062129759
20
-6.7372683928106785
30
0
10
3.920645367481467
20
-6.4382762394191193
30
0
10
3.8639655095998227
20
-6.1293191067717148
30
0
10
3.7824171409198786
20
-5.8145562940043334
30
0
10
3.6698037772331613
20
-5.5015775107508382
30
0
10
3.5210910352597189
20
-5.2010826837945139
30
0
10
3.3333478572981261
20
-4.9252120170528837
30
0
10
3.1065190970037455
20
-4.6861334038152087
30
0
10
2.8442722568163408
20
-4.4945246259666058
30
0
10
2.5547958128283494
20
-4.3581049473458169
30
0
10
2.2514239985465285
20
-4.2785036314473022
30
0
10
1.9531552405390951
20
-4.2482561965030179
30
0
10
1.6854138918708286
20
-4.2475424615355823
30
0
10
1.4802482094773806
20
-4.2415091814752417
30
0
10
1.3609551401115538
20
-4.1980953511411698
30
0
10
1.3236812954239163
20
-4.1089329669466998
30
0
10
1.3291439084474788
20
-4.0000045964056303
30
0
10
1.3625392996297438
20
-3.8748255940862237
30
0
10
1.4369039797819494
20
-3.7122600337157818
30
0
10
1.5631621080863678
20
-3.4967311108917665
30
0
10
1.744468140472252
20
-3.2234908415833918
30
0
10
1.9788206696869315
20
-2.8947294282299585
30
0
10
2.2597092403762247
20
-2.517964687330545
30
0
10
2.5775744395402493
20
-2.1034127693809777
30
0
10
2.9208247205972464
20
-1.6621232278780895
30
0
10
3.2766070758709587
20
-1.2052804511565121
30
0
10
3.6315835669498564
20
-0.74335224048329085
30
0
10
3.9726989579392806
20
-0.28531041301777876
30
0
10
4.2879721491334557
20
0.16221305884849857
30
0
10
4.5672307511458001
20
0.5956642253495803
30
0
10
4.8029826663873667
20
1.0155392901078395
30
0
10
4.9908824097299389
20
1.4266759818878398
30
0
10
5.1285922298836626
20
1.8358534944019018
30
0
10
5.2149215162180909
20
2.2498615552786254
30
0
10
5.2487886768968304
20
2.673264459805853
30
0
10
5.2284170757813211
20
3.1065743354074589
30
0
10
5.1500346671899688
20
3.543549560183398
30
0
10
5.0085542630242941
20
3.9719874481531985
30
0
10
4.7996406160711738
20
4.3769605189867971
30
0
10
4.5213605812741244
20
4.7433231833756393
30
0
10
4.1760238458833978
20
5.058538968165017
30
0
10
3.7718995229895214
20
5.3153239299252553
30
0
10
3.3251046926516548
20
5.5144975313967812
30
0
10
2.8563569470417844
20
5.6622370790302865
30
0
10
2.3876001863281058
20
5.7671957800307583
30
0
10
1.9386471793180444
20
5.8376430628217282
30
0
10
1.523882040430409
20
5.878658101027991
30
0
10
1.1487774706817258
20
5.8891524245941129
30
0
10
0.80693500659202089
20
5.8593775481215271
30
0
10
0.4848715832803791
20
5.7754979468680734
30
0
10
0.16658506598679651
20
5.6240011401704599
30
0
10
-0.16218927622371837
20
5.3957345392296565
30
0
10
-0.50864550956330767
20
5.0911497226688907
30
0
10
-0.87175707053949669
20
4.7209034057444228
30
0
10
-1.2453610975544538
20
4.3017716628016096
30
0
10
-1.6201144468907493
20
3.8538053579178251
30
0
10
-1.9858666158173626
20
3.397043256890631
30
0
10
-2.3339541952489293
20
2.9482669075059356
30
0
10
-2.6592940678820898
20
2.5180836488745739
30
0
10
-2.9631655006206481
20
2.1069808393363516
30
0
10
-3.2522327327989076
20
1.7069251492549498
30
0
10
-3.5360533278307411
20
1.3051903314759181
30
0
10
-3.8250781367387594
20
0.8874617013148568
30
0
10
-4.0677730218210559
20
0.53048548307088428
30
0
10
-4.2588188747272948
20
0.24660024816783532
30
0
10
-4.3902108274272686
20
0.050300443158232899
30
0
10
-4.4568515831304776
20
-0.049495371186374509
30
0
0
ENDSEC
0
SECTION
2
OBJECTS
0
DICTIONARY
5
C
100
AcDbDictionary
3
ACAD_GROUP
350
D
3
ACAD_MLINESTYLE
350
17
0
DICTIONARY
5
D
100
AcDbDictionary
0
DICTIONARY
5
1A
330
C
100
AcDbDictionary
0
DICTIONARY
5
17
100
AcDbDictionary
0
ENDSEC
0
EOF
