0
SECTION
2
HEADER
9
$INSUNITS
70
4
9
$ACADVER
1
AC1014
9
$HANDSEED
5
FFFF
0
ENDSEC
0
SECTION
2
TABLES
0
TABLE
2
VPORT
5
8
100
AcDbSymbolTable
0
ENDTAB
0
TABLE
2
LTYPE
5
5
100
AcDbSymbolTable
0
LTYPE
5
14
100
AcDbSymbolTableRecord
100
AcDbLinetypeTableRecord
2
BYBLOCK
70
0
0
LTYPE
5
15
100
AcDbSymbolTableRecord
100
AcDbLinetypeTableRecord
2
BYLAYER
70
0
0
ENDTAB
0
TABLE
2
LAYER
5
2
100
AcDbSymbolTable
70
2
0
LAYER
5
50
100
AcDbSymbolTableRecord
100
AcDbLayerTableRecord
2
0
70
0
6
CONTINUOUS
0
ENDTAB
0
TABLE
2
STYLE
5
3
100
AcDbSymbolTable
70
1
0
STYLE
5
11
100
AcDbSymbolTableRecord
100
AcDbTextStyleTableRecord
2
STANDARD
70
0
0
ENDTAB
0
TABLE
2
VIEW
5
6
100
AcDbSymbolTable
70
0
0
ENDTAB
0
TABLE
2
UCS
5
7
100
AcDbSymbolTable
70
0
0
ENDTAB
0
TABLE
2
APPID
5
9
100
AcDbSymbolTable
70
2
0
APPID
5
12
100
AcDbSymbolTableRecord
100
AcDbRegAppTableRecord
2
ACAD
70
0
0
ENDTAB
0
TABLE
2
DIMSTYLE
5
A
100
AcDbSymbolTable
70
1
0
ENDTAB
0
TABLE
2
BLOCK_RECORD
5
1
100
AcDbSymbolTable
70
1
0
BLOCK_RECORD
5
1F
100
AcDbSymbolTableRecord
100
AcDbBlockTableRecord
2
*MODEL_SPACE
0
BLOCK_RECORD
5
1B
100
AcDbSymbolTableRecord
100
AcDbBlockTableRecord
2
*PAPER_SPACE
0
ENDTAB
0
ENDSEC
0
SECTION
2
BLOCKS
0
BLOCK
5
20
100
AcDbEntity
100
AcDbBlockBegin
2
*MODEL_SPACE
0
ENDBLK
5
21
100
AcDbEntity
100
AcDbBlockEnd
0
BLOCK
5
1C
100
AcDbEntity
100
AcDbBlockBegin
2
*PAPER_SPACE
0
ENDBLK
5
1D
100
AcDbEntity
100
AcDbBlockEnd
0
ENDSEC
0
SECTION
2
ENTITIES
0
CIRCLE
5
100
100
AcDbEntity
8
0
100
AcDbCircle
10
2.0000000298023228
20
10.400000158697367
30
0
40
2.0656808624119627
210
0
220
0
230
1
0
ARC
5
101
100
AcDbEntity
8
0
100
AcDbCircle
10
2.0000000298023228
20
10.400000158697367
30
0
40
4.4464571125235679
210
0
220
0
230
1
100
AcDbArc
50
-4.4974458457604536
51
207.66380178524918
0
ARC
5
102
100
AcDbEntity
8
0
100
AcDbCircle
10
-2.6494989890762644
20
7.9627044082719864
30
0
40
0.80313827280211481
210
0
220
0
230
1
100
AcDbArc
50
-70.317310471955395
51
27.663806407250444
0
ARC
5
103
100
AcDbEntity
8
0
100
AcDbCircle
10
7.0962089603196512
20
9.9991484047234387
30
0
40
0.66549237785175763
210
0
220
0
230
1
100
AcDbArc
50
175.5025541542397
51
256.39149756481754
0
SPLINE
5
104
100
AcDbEntity
8
0
100
AcDbSpline
70
4
71
5
72
192
73
186
74
0
42
0.000000001
43
0.0000000001
44
0.0000000001
40
0.40203258073335424
40
0.40203258073335424
40
0.40203258073335424
40
0.40203258073335424
40
0.40203258073335424
40
0.40203258073335424
40
0.4052631578947371
40
0.41052631578947396
40
0.41578947368421082
40
0.42105263157894768
40
0.42631578947368454
40
0.4315789473684214
40
0.43684210526315825
40
0.44210526315789511
40
0.44736842105263197
40
0.45263157894736883
40
0.45789473684210569
40
0.46315789473684255
40
0.4684210526315794
40
0.47368421052631626
40
0.47894736842105312
40
0.48421052631578998
40
0.48947368421052684
40
0.4947368421052637
40
0.50000000000000056
40
0.50526315789473741
40
0.51052631578947427
40
0.51578947368421113
40
0.52105263157894799
40
0.52631578947368485
40
0.53157894736842171
40
0.53684210526315856
40
0.54210526315789542
40
0.54736842105263228
40
0.55263157894736914
40
0.557894736842106
40
0.56315789473684286
40
0.56842105263157972
40
0.57368421052631657
40
0.57894736842105343
40
0.58421052631579029
40
0.58947368421052715
40
0.59473684210526401
40
0.60000000000000087
40
0.60526315789473772
40
0.61052631578947458
40
0.61578947368421144
40
0.6210526315789483
40
0.62631578947368516
40
0.63157894736842202
40
0.63684210526315888
40
0.64210526315789573
40
0.64736842105263259
40
0.65263157894736945
40
0.65789473684210631
40
0.66315789473684317
40
0.66842105263158003
40
0.67368421052631688
40
0.67894736842105374
40
0.6842105263157906
40
0.68947368421052746
40
0.69473684210526432
40
0.70000000000000118
40
0.70526315789473804
40
0.71052631578947489
40
0.71578947368421175
40
0.72105263157894861
40
0.72631578947368547
40
0.73157894736842233
40
0.73684210526315919
40
0.74210526315789604
40
0.7473684210526329
40
0.75263157894736976
40
0.75789473684210662
40
0.76315789473684348
40
0.76842105263158034
40
0.7736842105263172
40
0.77894736842105405
40
0.78421052631579091
40
0.78947368421052777
40
0.79473684210526463
40
0.80000000000000149
40
0.80526315789473835
40
0.8105263157894752
40
0.81578947368421206
40
0.82105263157894892
40
0.82631578947368578
40
0.83157894736842264
40
0.8368421052631595
40
0.84210526315789636
40
0.84736842105263321
40
0.85263157894737007
40
0.85789473684210693
40
0.86315789473684379
40
0.86842105263158065
40
0.87368421052631751
40
0.87894736842105436
40
0.88421052631579122
40
0.88947368421052808
40
0.89473684210526494
40
0.9000000000000018
40
0.90526315789473866
40
0.91052631578947552
40
0.91578947368421237
40
0.92105263157894923
40
0.92631578947368609
40
0.93157894736842295
40
0.93684210526315981
40
0.94210526315789667
40
0.94736842105263352
40
0.95263157894737038
40
0.95789473684210724
40
0.9631578947368441
40
0.96842105263158096
40
0.97368421052631782
40
0.97894736842105468
40
0.98421052631579153
40
0.98947368421052839
40
0.99473684210526525
40
1
40
1
40
1
40
1
40
1
40
1.0052631578947369
40
1.0105263157894737
40
1.0157894736842106
40
1.0210526315789474
40
1.0263157894736843
40
1.0315789473684212
40
1.0368421052631578
40
1.0421052631578946
40
1.0473684210526315
40
1.0526315789473684
40
1.0578947368421052
40
1.0631578947368421
40
1.0684210526315789
40
1.0736842105263158
40
1.0789473684210527
40
1.0842105263157895
40
1.0894736842105264
40
1.0947368421052632
40
1.1000000000000001
40
1.1052631578947369
40
1.1105263157894738
40
1.1157894736842107
40
1.1210526315789475
40
1.1263157894736842
40
1.131578947368421
40
1.1368421052631579
40
1.1421052631578947
40
1.1473684210526316
40
1.1526315789473685
40
1.1578947368421053
40
1.1631578947368419
40
1.1684210526315788
40
1.1736842105263157
40
1.1789473684210525
40
1.1842105263157894
40
1.1894736842105262
40
1.1947368421052631
40
1.2
40
1.2052631578947368
40
1.2105263157894735
40
1.2157894736842103
40
1.2210526315789472
40
1.226315789473684
40
1.2315789473684209
40
1.2368421052631577
40
1.2421052631578946
40
1.2473684210526312
40
1.2526315789473683
40
1.257894736842105
40
1.263157894736842
40
1.2684210526315787
40
1.2736842105263158
40
1.2789473684210524
40
1.2842105263157895
40
1.2894736842105261
40
1.2947368421052632
40
1.2999999999999998
40
1.3052631578947369
40
1.3105263157894735
40
1.3157894736842106
40
1.3210526315789473
40
1.3263157894736843
40
1.3282685057638433
40
1.3282685057638433
40
1.3282685057638433
40
1.3282685057638433
40
1.3282685057638433
40
1.3282685057638433
41
1
41
1
41
1
41
1
41
1
41
1
41
1
41
1
41
1
41
1
41
1
41
1
41
1
41
1
41
1
41
1
41
1
41
1
41
1
41
1
41
1
41
1
41
1
41
1
41
1
41
1
41
1
41
1
41
1
41
1
41
1
41
1
41
1
41
1
41
1
41
1
41
1
41
1
41
1
41
1
41
1
41
1
41
1
41
1
41
1
41
1
41
1
41
1
41
1
41
1
41
1
41
1
41
1
41
1
41
1
41
1
41
1
41
1
41
1
41
1
41
1
41
1
41
1
41
1
41
1
41
1
41
1
41
1
41
1
41
1
41
1
41
1
41
1
41
1
41
1
41
1
41
1
41
1
41
1
41
1
41
1
41
1
41
1
41
1
41
1
41
1
41
1
41
1
41
1
41
1
41
1
41
1
41
1
41
1
41
1
41
1
41
1
41
1
41
1
41
1
41
1
41
1
41
1
41
1
41
1
41
1
41
1
41
1
41
1
41
1
41
1
41
1
41
1
41
1
41
1
41
1
41
1
41
1
41
1
41
1
41
1
41
1
41
1
41
1
41
1
41
1
41
1
41
1
41
1
41
1
41
1
41
1
41
1
41
1
41
1
41
1
41
1
41
1
41
1
41
1
41
1
41
1
41
1
41
1
41
1
41
1
41
1
41
1
41
1
41
1
41
1
41
1
41
1
41
1
41
1
41
1
41
1
41
1
41
1
41
1
41
1
41
1
41
1
41
1
41
1
41
1
41
1
41
1
41
1
41
1
41
1
41
1
41
1
41
1
41
1
41
1
41
1
41
1
41
1
41
1
41
1
41
1
41
1
41
1
41
1
41
1
10
6.9396276880413286
20
9.3523389838128939
30
0
10
7.0074353971233849
20
9.3445190759830332
30
0
10
7.184072618061581
20
9.3207199203086297
30
0
10
7.4630007112018664
20
9.2685003080043309
30
0
10
7.8316304048621932
20
9.1670075243114724
30
0
10
8.2700378542153707
20
8.9944252211783375
30
0
10
8.7041444213154797
20
8.7714891446281786
30
0
10
9.0953666029483564
20
8.5280171937823432
30
0
10
9.4420658689077044
20
8.2751103363702221
30
0
10
9.7424947306274081
20
8.0148961353136112
30
0
10
9.9949442909585073
20
7.7383678947126064
30
0
10
10.200458428714033
20
7.4354443719502434
30
0
10
10.364915109694341
20
7.1025703321362323
30
0
10
10.501926295386077
20
6.7527971932213768
30
0
10
10.63360543455768
20
6.4201000013954381
30
0
10
10.782786895010823
20
6.1420658926093763
30
0
10
10.967542559370951
20
5.9477163141449507
30
0
10
11.19267363256284
20
5.8394240647563764
30
0
10
11.452433337164443
20
5.7957545313893437
30
0
10
11.738869977945903
20
5.7852513594647306
30
0
10
12.049540731545207
20
5.7777882594984575
30
0
10
12.385501907905299
20
5.7480324364060875
30
0
10
12.747622974700203
20
5.6764990107216953
30
0
10
13.132819202150056
20
5.5520508778682984
30
0
10
13.532725023429553
20
5.3718803983657439
30
0
10
13.936384770978474
20
5.1385684690355147
30
0
10
14.331991047055679
20
4.8577753632561382
30
0
10
14.708904572325514
20
4.5357898861344843
30
0
10
15.05982710510108
20
4.176848592044208
30
0
10
15.380262181263756
20
3.7833804734454435
30
0
10
15.667486886802067
20
3.356773232963397
30
0
10
15.919663526997898
20
2.897969524938464
30
0
10
16.134969206209387
20
2.4081025789554724
30
0
10
16.310526178411116
20
1.8891951569530225
30
0
10
16.442301686388777
20
1.3444612799212405
30
0
10
16.525639516905791
20
0.77834014505959515
30
0
10
16.555610209415271
20
0.19660705933311756
30
0
10
16.527415898646581
20
-0.39353752863017566
30
0
10
16.436819059376024
20
-0.98339198572034381
30
0
10
16.280436348326489
20
-1.5626123441978028
30
0
10
16.057183511109038
20
-2.119595436755044
30
0
10
15.769995512167974
20
-2.6419615801928704
30
0
10
15.427392464828632
20
-3.1170216765724525
30
0
10
15.045244827990105
20
-3.5322081440956881
30
0
10
14.648140156422604
20
-3.87562216781552
30
0
10
14.271784141798747
20
-4.1362448266446359
30
0
10
13.951923336661167
20
-4.3093283260443203
30
0
10
13.710824234035506
20
-4.4031213317624625
30
0
10
13.546404611382229
20
-4.4436833377663438
30
0
10
13.415553842798873
20
-4.4843468044410688
30
0
10
13.274198000803333
20
-4.5655360845414128
30
0
10
13.133787478248669
20
-4.6570943195400458
30
0
10
13.028094989813416
20
-4.7271532296581622
30
0
10
12.97346805429541
20
-4.8272561340219742
30
0
10
12.967501986532346
20
-5.0124035838435868
30
0
10
12.991958896328907
20
-5.2988504769302214
30
0
10
13.024181393798893
20
-5.6856178542730245
30
0
10
13.048093480778366
20
-6.1632293049120799
30
0
10
13.05494975863602
20
-6.7188255868105422
30
0
10
13.04075931888036
20
-7.3363753306752022
30
0
10
13.004884424184205
20
-7.9987567387770078
30
0
10
12.948113099094128
20
-8.6890689438841058
30
0
10
12.871034958245829
20
-9.3922136840614598
30
0
10
12.772082213411775
20
-10.096522939779621
30
0
10
12.64804189864476
20
-10.793516931293677
30
0
10
12.49488240015615
20
-11.477368396396647
30
0
10
12.308477896499523
20
-12.144473209650348
30
0
10
12.08535802153335
20
-12.792976743397347
30
0
10
11.823487641481563
20
-13.422319180068595
30
0
10
11.522937976111622
20
-14.032773969890989
30
0
10
11.186852664910941
20
-14.624986743057068
30
0
10
10.820661507369724
20
-15.199533339519251
30
0
10
10.43074935644305
20
-15.756487678572039
30
0
10
10.023296944417439
20
-16.29498143919799
30
0
10
9.6030717102810623
20
-16.81277764028188
30
0
10
9.1721893256487981
20
-17.305813446992392
30
0
10
8.7290065073364786
20
-17.767813771271477
30
0
10
8.2666394664890746
20
-18.189719986067185
30
0
10
7.7751440471896283
20
-18.560892015718746
30
0
10
7.2442793604516194
20
-18.870587509686231
30
0
10
6.665985058298256
20
-19.109313111961686
30
0
10
6.0371601420753818
20
-19.270297538137829
30
0
10
5.3618925326770439
20
-19.35075501297603
30
0
10
4.6549665218547673
20
-19.353629953193984
30
0
10
3.9406689621214603
20
-19.287576054187742
30
0
10
3.2470812744952187
20
-19.165234547053693
30
0
10
2.6015719790635403
20
-19.00197463484983
30
0
10
2.0258724392498935
20
-18.814452890038677
30
0
10
1.5311596259969886
20
-18.61923351528722
30
0
10
1.1135369932946255
20
-18.43142250529008
30
0
10
0.74824506723670903
20
-18.263189807006519
30
0
10
0.40013093179771392
20
-18.123639869561131
30
0
10
0.036848278045777227
20
-18.018783457120286
30
0
10
-0.36052564394721587
20
-17.951580648918949
30
0
10
-0.78183187212102989
20
-17.921685102650116
30
0
10
-1.1943932817499585
20
-17.926769534362219
30
0
10
-1.5625703896831951
20
-17.965069494700913
30
0
10
-1.8612733906663923
20
-18.036951460444524
30
0
10
-2.0967537042837878
20
-18.148291991307602
30
0
10
-2.3036528045326139
20
-18.30717125483925
30
0
10
-2.5271097658475234
20
-18.516915327252331
30
0
10
-2.8069190980376693
20
-18.768374076532798
30
0
10
-3.1705762938718198
20
-19.040224095621646
30
0
10
-3.6347118625126522
20
-19.305313193139114
30
0
10
-4.203798306059821
20
-19.535378944098451
30
0
10
-4.8702808982107531
20
-19.706012804704244
30
0
10
-5.6133649314317635
20
-19.802575711445343
30
0
10
-6.4015739604228461
20
-19.821076786367378
30
0
10
-7.1978212613341324
20
-19.765191475947361
30
0
10
-7.9638038008775212
20
-19.644406363636143
30
0
10
-8.6645737872104398
20
-19.471723881676724
30
0
10
-9.2732654930076173
20
-19.261503072315577
30
0
10
-9.7752183360412683
20
-19.027366693538244
30
0
10
-10.173665007603077
20
-18.779778332060857
30
0
10
-10.490446179229993
20
-18.524756493690774
30
0
10
-10.702670707783085
20
-18.317062634074205
30
0
10
-10.852365776034979
20
-18.15940428774136
30
0
10
-10.950859249071335
20
-18.053314541329165
30
0
10
-11.000000163912773
20
-18.000000268220901
30
0
10
-11.04914107875423
20
-17.946685995112617
30
0
10
-11.147211265083698
20
-17.839518649091698
30
0
10
-11.295001543075562
20
-17.67701110439139
30
0
10
-11.495263286017362
20
-17.45613559499591
30
0
10
-11.744790971317487
20
-17.170685469465358
30
0
10
-11.983085199611201
20
-16.872852510546803
30
0
10
-12.20204249751051
20
-16.558902610024575
30
0
10
-12.401986302847835
20
-16.224404499779958
30
0
10
-12.588326817304303
20
-15.865053191919294
30
0
10
-12.768590701011007
20
-15.477482806613503
30
0
10
-12.94948032978548
20
-15.060025736908297
30
0
10
-13.133488429944055
20
-14.613643208649012
30
0
10
-13.319505966061243
20
-14.141473506907351
30
0
10
-13.504207586569246
20
-13.648112102833929
30
0
10
-13.683206520445637
20
-13.138978525772716
30
0
10
-13.852214963257342
20
-12.619661736149881
30
0
10
-14.008428855604363
20
-12.095238101313551
30
0
10
-14.150818112711779
20
-11.569762559123816
30
0
10
-14.279594820443652
20
-11.045893939299194
30
0
10
-14.395923587280596
20
-10.524480910807423
30
0
10
-14.501532109499903
20
-10.004162646643863
30
0
10
-14.598365006426675
20
-9.4809656078438191
30
0
10
-14.688218114482401
20
-8.947893611685835
30
0
10
-14.772560871315113
20
-8.3962023165464146
30
0
10
-14.852355664813146
20
-7.8166866154861996
30
0
10
-14.927879695522082
20
-7.2009580709205423
30
0
10
-14.998542774303928
20
-6.5427379754115291
30
0
10
-15.062713471334053
20
-5.8391173633028721
30
0
10
-15.117523010744453
20
-5.0919046267243875
30
0
10
-15.159234079950492
20
-4.3067570754011548
30
0
10
-15.183635323332643
20
-3.4922143677164588
30
0
10
-15.186424463901503
20
-2.658770839402762
30
0
10
-15.163600461707897
20
-1.8179261883501099
30
0
10
-15.111841955134988
20
-0.98125874423716386
30
0
10
-15.028914666256203
20
-0.15945879800147975
30
0
10
-14.914012574930045
20
0.63854976826382315
30
0
10
-14.768268511989087
20
1.4067119539667703
30
0
10
-14.594118104939643
20
2.1414234709217612
30
0
10
-14.394394608641219
20
2.8407479195883099
30
0
10
-14.171499334256554
20
3.5037513126786206
30
0
10
-13.926576672483188
20
4.1298039847226704
30
0
10
-13.65860297593156
20
4.7178587948335213
30
0
10
-13.363708297698553
20
5.2658278215752743
30
0
10
-13.033913681215362
20
5.7696988016602289
30
0
10
-12.657984836141265
20
6.2236001368261267
30
0
10
-12.224691599186002
20
6.6209282976873274
30
0
10
-11.725354554450336
20
6.955184360396883
30
0
10
-11.156854293246212
20
7.2209528063522379
30
0
10
-10.524046789919971
20
7.4147647220042865
30
0
10
-9.8434015871166238
20
7.536144634514371
30
0
10
-9.1427462780889499
20
7.5881126224833508
30
0
10
-8.4546853568705753
20
7.5768113920530009
30
0
10
-7.8114659430201261
20
7.5113368058756924
30
0
10
-7.239288028215233
20
7.4034834927468118
30
0
10
-6.7527900189389545
20
7.2675356543984462
30
0
10
-6.3496019580429754
20
7.1200191822976748
30
0
10
-6.0044670940191782
20
6.9795257267429625
30
0
10
-5.6789977462190464
20
6.8642966052651193
30
0
10
-5.3320701878452361
20
6.7897010842077563
30
0
10
-4.9297984612095833
20
6.7658115674123787
30
0
10
-4.4561778897073587
20
6.7947816532854146
30
0
10
-3.9096163952745906
20
6.8726692248157741
30
0
10
-3.3756731897661356
20
6.9765133164259527
30
0
10
-2.9360105103593259
20
7.074081057630015
30
0
10
-2.6169058934612659
20
7.1490670482952332
30
0
10
-2.4298019028581486
20
7.1941668413055186
30
0
10
-2.3789933436922892
20
7.2064916200602553
30
0
0
ENDSEC
0
SECTION
2
OBJECTS
0
DICTIONARY
5
C
100
AcDbDictionary
3
ACAD_GROUP
350
D
3
ACAD_MLINESTYLE
350
17
0
DICTIONARY
5
D
100
AcDbDictionary
0
DICTIONARY
5
1A
330
C
100
AcDbDictionary
0
DICTIONARY
5
17
100
AcDbDictionary
0
ENDSEC
0
EOF
