0
SECTION
2
HEADER
9
$INSUNITS
70
4
9
$ACADVER
1
AC1014
9
$HANDSEED
5
FFFF
0
ENDSEC
0
SECTION
2
TABLES
0
TABLE
2
VPORT
5
8
100
AcDbSymbolTable
0
ENDTAB
0
TABLE
2
LTYPE
5
5
100
AcDbSymbolTable
0
LTYPE
5
14
100
AcDbSymbolTableRecord
100
AcDbLinetypeTableRecord
2
BYBLOCK
70
0
0
LTYPE
5
15
100
AcDbSymbolTableRecord
100
AcDbLinetypeTableRecord
2
BYLAYER
70
0
0
ENDTAB
0
TABLE
2
LAYER
5
2
100
AcDbSymbolTable
70
2
0
LAYER
5
50
100
AcDbSymbolTableRecord
100
AcDbLayerTableRecord
2
0
70
0
6
CONTINUOUS
0
ENDTAB
0
TABLE
2
STYLE
5
3
100
AcDbSymbolTable
70
1
0
STYLE
5
11
100
AcDbSymbolTableRecord
100
AcDbTextStyleTableRecord
2
STANDARD
70
0
0
ENDTAB
0
TABLE
2
VIEW
5
6
100
AcDbSymbolTable
70
0
0
ENDTAB
0
TABLE
2
UCS
5
7
100
AcDbSymbolTable
70
0
0
ENDTAB
0
TABLE
2
APPID
5
9
100
AcDbSymbolTable
70
2
0
APPID
5
12
100
AcDbSymbolTableRecord
100
AcDbRegAppTableRecord
2
ACAD
70
0
0
ENDTAB
0
TABLE
2
DIMSTYLE
5
A
100
AcDbSymbolTable
70
1
0
ENDTAB
0
TABLE
2
BLOCK_RECORD
5
1
100
AcDbSymbolTable
70
1
0
BLOCK_RECORD
5
1F
100
AcDbSymbolTableRecord
100
AcDbBlockTableRecord
2
*MODEL_SPACE
0
BLOCK_RECORD
5
1B
100
AcDbSymbolTableRecord
100
AcDbBlockTableRecord
2
*PAPER_SPACE
0
ENDTAB
0
ENDSEC
0
SECTION
2
BLOCKS
0
BLOCK
5
20
100
AcDbEntity
100
AcDbBlockBegin
2
*MODEL_SPACE
0
ENDBLK
5
21
100
AcDbEntity
100
AcDbBlockEnd
0
BLOCK
5
1C
100
AcDbEntity
100
AcDbBlockBegin
2
*PAPER_SPACE
0
ENDBLK
5
1D
100
AcDbEntity
100
AcDbBlockEnd
0
ENDSEC
0
SECTION
2
ENTITIES
0
SPLINE
5
100
100
AcDbEntity
8
0
100
AcDbSpline
70
6
71
5
72
141
73
135
74
0
42
0.000000001
43
0.0000000001
44
0.0000000001
40
0
40
0
40
0
40
0
40
0
40
0
40
0.0076923076923076927
40
0.015384615384615385
40
0.023076923076923078
40
0.030769230769230771
40
0.038461538461538464
40
0.046153846153846156
40
0.053846153846153849
40
0.061538461538461542
40
0.069230769230769235
40
0.076923076923076927
40
0.08461538461538462
40
0.092307692307692313
40
0.10000000000000001
40
0.1076923076923077
40
0.11538461538461539
40
0.12307692307692308
40
0.13076923076923078
40
0.13846153846153847
40
0.14615384615384616
40
0.15384615384615385
40
0.16153846153846155
40
0.16923076923076924
40
0.17692307692307693
40
0.18461538461538463
40
0.19230769230769232
40
0.20000000000000001
40
0.2076923076923077
40
0.2153846153846154
40
0.22307692307692309
40
0.23076923076923078
40
0.23846153846153847
40
0.24615384615384617
40
0.25384615384615383
40
0.2615384615384615
40
0.26923076923076916
40
0.27692307692307683
40
0.28461538461538449
40
0.29230769230769216
40
0.29999999999999982
40
0.30769230769230749
40
0.31538461538461515
40
0.32307692307692282
40
0.33076923076923048
40
0.33846153846153815
40
0.34615384615384581
40
0.35384615384615348
40
0.36153846153846114
40
0.36923076923076881
40
0.37692307692307647
40
0.38461538461538414
40
0.3923076923076918
40
0.39999999999999947
40
0.40769230769230713
40
0.4153846153846148
40
0.42307692307692246
40
0.43076923076923013
40
0.43846153846153779
40
0.44615384615384546
40
0.45384615384615312
40
0.46153846153846079
40
0.46923076923076845
40
0.47692307692307612
40
0.48461538461538378
40
0.49230769230769145
40
0.49999999999999911
40
0.50769230769230678
40
0.51538461538461444
40
0.52307692307692211
40
0.53076923076922977
40
0.53846153846153744
40
0.5461538461538451
40
0.55384615384615277
40
0.56153846153846043
40
0.5692307692307681
40
0.57692307692307576
40
0.58461538461538343
40
0.59230769230769109
40
0.59999999999999876
40
0.60769230769230642
40
0.61538461538461409
40
0.62307692307692175
40
0.63076923076922942
40
0.63846153846153708
40
0.64615384615384475
40
0.65384615384615241
40
0.66153846153846008
40
0.66923076923076774
40
0.67692307692307541
40
0.68461538461538307
40
0.69230769230769074
40
0.6999999999999984
40
0.70769230769230607
40
0.71538461538461373
40
0.7230769230769214
40
0.73076923076922906
40
0.73846153846153673
40
0.74615384615384439
40
0.75384615384615206
40
0.76153846153845972
40
0.76923076923076739
40
0.77692307692307505
40
0.78461538461538272
40
0.79230769230769038
40
0.79999999999999805
40
0.80769230769230571
40
0.81538461538461338
40
0.82307692307692104
40
0.83076923076922871
40
0.83846153846153637
40
0.84615384615384404
40
0.8538461538461517
40
0.86153846153845937
40
0.86923076923076703
40
0.8769230769230747
40
0.88461538461538236
40
0.89230769230769003
40
0.89999999999999769
40
0.90769230769230536
40
0.91538461538461302
40
0.92307692307692069
40
0.93076923076922835
40
0.93846153846153602
40
0.94615384615384368
40
0.95384615384615135
40
0.96153846153845901
40
0.96923076923076668
40
0.97692307692307434
40
0.98461538461538201
40
0.99230769230768967
40
1
40
1
40
1
40
1
40
1
40
1
41
1
41
1
41
1
41
1
41
1
41
1
41
1
41
1
41
1
41
1
41
1
41
1
41
1
41
1
41
1
41
1
41
1
41
1
41
1
41
1
41
1
41
1
41
1
41
1
41
1
41
1
41
1
41
1
41
1
41
1
41
1
41
1
41
1
41
1
41
1
41
1
41
1
41
1
41
1
41
1
41
1
41
1
41
1
41
1
41
1
41
1
41
1
41
1
41
1
41
1
41
1
41
1
41
1
41
1
41
1
41
1
41
1
41
1
41
1
41
1
41
1
41
1
41
1
41
1
41
1
41
1
41
1
41
1
41
1
41
1
41
1
41
1
41
1
41
1
41
1
41
1
41
1
41
1
41
1
41
1
41
1
41
1
41
1
41
1
41
1
41
1
41
1
41
1
41
1
41
1
41
1
41
1
41
1
41
1
41
1
41
1
41
1
41
1
41
1
41
1
41
1
41
1
41
1
41
1
41
1
41
1
41
1
41
1
41
1
41
1
41
1
41
1
41
1
41
1
41
1
41
1
41
1
41
1
41
1
41
1
41
1
41
1
41
1
41
1
41
1
41
1
41
1
41
1
41
1
41
1
41
1
41
1
41
1
41
1
41
1
10
-13.099999707192183
20
-2.4999999441206455
30
0
10
-13.104103118115376
20
-2.5903730373440492
30
0
10
-13.111425624119821
20
-2.7741777035385895
30
0
10
-13.119785782209872
20
-3.0590894485586286
30
0
10
-13.125976670272532
20
-3.4554739638421532
30
0
10
-13.126661466277717
20
-3.9670321383292744
30
0
10
-13.121591584379129
20
-4.4800090775703785
30
0
10
-13.1117586546428
20
-4.9800407383786807
30
0
10
-13.09748288056192
20
-5.4563383509762087
30
0
10
-13.077960986684678
20
-5.9055628809710594
30
0
10
-13.051075785860872
20
-6.3339348944141438
30
0
10
-13.014104510014153
20
-6.7532689179035641
30
0
10
-12.964285319143405
20
-7.1779789025355214
30
0
10
-12.899430124195648
20
-7.6217418687621086
30
0
10
-12.818539530161633
20
-8.094218482107518
30
0
10
-12.722355905668643
20
-8.5979997949796942
30
0
10
-12.612747226581307
20
-9.1303991384565926
30
0
10
-12.492149157206939
20
-9.6849876762872498
30
0
10
-12.362996146397521
20
-10.253201599667175
30
0
10
-12.2271327390857
20
-10.825972618334596
30
0
10
-12.085290631535269
20
-11.39521969645363
30
0
10
-11.936389931530766
20
-11.955729578900238
30
0
10
-11.777779543365622
20
-12.504939251052152
30
0
10
-11.605840941639569
20
-13.041905151393838
30
0
10
-11.416470485457848
20
-13.566544015721382
30
0
10
-11.205618245140611
20
-14.078747309470272
30
0
10
-10.969788393515081
20
-14.577581467985576
30
0
10
-10.706590081763682
20
-15.060375918217604
30
0
10
-10.415167018251971
20
-15.522081082671836
30
0
10
-10.095909630255582
20
-15.956223487062877
30
0
10
-9.7502486856598871
20
-16.355678947231841
30
0
10
-9.380417581592166
20
-16.713518548303067
30
0
10
-8.9892292437715042
20
-17.023816777079933
30
0
10
-8.5798448882066971
20
-17.282492562289079
30
0
10
-8.1555525628478165
20
-17.488090220757751
30
0
10
-7.7197575721010718
20
-17.640904500957365
30
0
10
-7.2759639666757607
20
-17.742183701154758
30
0
10
-6.8277641755364549
20
-17.793256878372631
30
0
10
-6.3788143351257665
20
-17.794801253740278
30
0
10
-5.9328433039610848
20
-17.745776254712602
30
0
10
-5.4935048953591998
20
-17.643935026748917
30
0
10
-5.0641652833572861
20
-17.487048821643377
30
0
10
-4.6476958602626919
20
-17.273954989747658
30
0
10
-4.2462968404879708
20
-17.005569450952823
30
0
10
-3.8612270823829116
20
-16.686179269283297
30
0
10
-3.4928533956977077
20
-16.323699303619556
30
0
10
-3.1412546215932728
20
-15.928125979329335
30
0
10
-2.8066852212380455
20
-15.510422511497236
30
0
10
-2.490124439224171
20
-15.081193194943088
30
0
10
-2.1937222103103098
20
-14.64953505802521
30
0
10
-1.9214521374685756
20
-14.221601460275345
30
0
10
-1.6791267066186799
20
-13.800002138622162
30
0
10
-1.4731747516724214
20
-13.384786431903144
30
0
10
-1.3097025168497687
20
-12.974088156343948
30
0
10
-1.1934065784949139
20
-12.564897747272054
30
0
10
-1.1266299409230505
20
-12.153796366119456
30
0
10
-1.1081416586950879
20
-11.737661554183962
30
0
10
-1.1349076178047788
20
-11.314945997513544
30
0
10
-1.20413828689716
20
-10.886993166081902
30
0
10
-1.315317671413786
20
-10.459399816300394
30
0
10
-1.4720584998729209
20
-10.043224902866214
30
0
10
-1.684519751989924
20
-9.6566282341755141
30
0
10
-1.9640547832328672
20
-9.3206831047793095
30
0
10
-2.3172613645988887
20
-9.0547208630583729
30
0
10
-2.7400383931752508
20
-8.8717308582400936
30
0
10
-3.2121100753690079
20
-8.7739923758046139
30
0
10
-3.6900532601647091
20
-8.7479061145843282
30
0
10
-4.1212457860758862
20
-8.769838556931175
30
0
10
-4.4610171582164719
20
-8.8135036358101075
30
0
10
-4.6866941270876108
20
-8.8560423180290559
30
0
10
-4.8175537187295134
20
-8.8864091941679
30
0
10
-4.9172778449913164
20
-8.9070137302502808
30
0
10
-5.0287180290213467
20
-8.9088541386554851
30
0
10
-5.1357169769714304
20
-8.8579364816125974
30
0
10
-5.2237432457163004
20
-8.7295333793061776
30
0
10
-5.3003039397357199
20
-8.5191445969259174
30
0
10
-5.376790308821036
20
-8.2291324389208924
30
0
10
-5.458868334347315
20
-7.8608613396065827
30
0
10
-5.5469843986098191
20
-7.4156289144999636
30
0
10
-5.6382584603810413
20
-6.8964437135357128
30
0
10
-5.7278196127495393
20
-6.30955129630191
30
0
10
-5.8102798732491578
20
-5.6658035582528576
30
0
10
-5.881399740684099
20
-4.9827613126949775
30
0
10
-5.9385925285838397
20
-4.2836410838768764
30
0
10
-5.9804633435439953
20
-3.5937771885986436
30
0
10
-6.0066261353988111
20
-2.9377676394805921
30
0
10
-6.0174142121768881
20
-2.3364148563674885
30
0
10
-6.0136193683932548
20
-1.8035778904693742
30
0
10
-5.9962594524759147
20
-1.3434684901563267
30
0
10
-5.9662358481067725
20
-0.94676464271491589
30
0
10
-5.924358946168172
20
-0.59047511410607501
30
0
10
-5.8721545012152596
20
-0.24588906622144832
30
0
10
-5.8125539876849128
20
0.11490253534543216
30
0
10
-5.750538728705191
20
0.5123978073849752
30
0
10
-5.6940433915544189
20
0.95187183473502135
30
0
10
-5.6528921670587433
20
1.4257920990104704
30
0
10
-5.637306265302044
20
1.9186186592152035
30
0
10
-5.6564937137639202
20
2.4109076649071368
30
0
10
-5.7173504184125825
20
2.8834190459010296
30
0
10
-5.8227589581311605
20
3.3219154501533565
30
0
10
-5.9712794400029789
20
3.7192612863912746
30
0
10
-6.1591161744532998
20
4.0729150529573275
30
0
10
-6.3816567725047246
20
4.3834279592337753
30
0
10
-6.6349776028168002
20
4.6526592099401105
30
0
10
-6.9178683206293821
20
4.8818173857511784
30
0
10
-7.2314928243622205
20
5.0708247223440974
30
0
10
-7.5770102753795952
20
5.2188616998528792
30
0
10
-7.953869975022192
20
5.3245685912251304
30
0
10
-8.3576283474754334
20
5.3863907093666175
30
0
10
-8.7785564104719107
20
5.402853484292006
30
0
10
-9.2041048149965849
20
5.3727873303301781
30
0
10
-9.6209927837292302
20
5.2955623333462114
30
0
10
-10.017307970825886
20
5.1712954601606089
30
0
10
-10.38491644856161
20
5.001127346908925
30
0
10
-10.720733830733904
20
4.7872865849641633
30
0
10
-11.024977876936257
20
4.532629350443778
30
0
10
-11.299945144823415
20
4.2402468564615434
30
0
10
-11.54868448944341
20
3.9131122235161353
30
0
10
-11.773459485526105
20
3.5535478804109957
30
0
10
-11.975440414501275
20
3.1634877292211079
30
0
10
-12.155292395125963
20
2.7452684202983697
30
0
10
-12.313511934864733
20
2.3023178092565826
30
0
10
-12.45083285343544
20
1.8397681274269551
30
0
10
-12.568685402147832
20
1.365386520554615
30
0
10
-12.669351995200461
20
0.88940511321379123
30
0
10
-12.755491374034662
20
0.42219050574581191
30
0
10
-12.829806565773147
20
-0.027582923085723215
30
0
10
-12.894645399170216
20
-0.45503291327155609
30
0
10
-12.951652525528701
20
-0.86088909682546555
30
0
10
-13.001338406139647
20
-1.2538739703685406
30
0
10
-13.043419340982217
20
-1.6475236578330521
30
0
10
-13.070486157832313
20
-1.9745537168927816
30
0
10
-13.086805158580638
20
-2.2319391441981051
30
0
10
-13.09589629626899
20
-2.4096268508972112
30
0
10
-13.099999707192183
20
-2.4999999441206455
30
0
0
ENDSEC
0
SECTION
2
OBJECTS
0
DICTIONARY
5
C
100
AcDbDictionary
3
ACAD_GROUP
350
D
3
ACAD_MLINESTYLE
350
17
0
DICTIONARY
5
D
100
AcDbDictionary
0
DICTIONARY
5
1A
330
C
100
AcDbDictionary
0
DICTIONARY
5
17
100
AcDbDictionary
0
ENDSEC
0
EOF
