0
SECTION
2
HEADER
9
$INSUNITS
70
4
9
$ACADVER
1
AC1014
9
$HANDSEED
5
FFFF
0
ENDSEC
0
SECTION
2
TABLES
0
TABLE
2
VPORT
5
8
100
AcDbSymbolTable
0
ENDTAB
0
TABLE
2
LTYPE
5
5
100
AcDbSymbolTable
0
LTYPE
5
14
100
AcDbSymbolTableRecord
100
AcDbLinetypeTableRecord
2
BYBLOCK
70
0
0
LTYPE
5
15
100
AcDbSymbolTableRecord
100
AcDbLinetypeTableRecord
2
BYLAYER
70
0
0
ENDTAB
0
TABLE
2
LAYER
5
2
100
AcDbSymbolTable
70
2
0
LAYER
5
50
100
AcDbSymbolTableRecord
100
AcDbLayerTableRecord
2
0
70
0
6
CONTINUOUS
0
ENDTAB
0
TABLE
2
STYLE
5
3
100
AcDbSymbolTable
70
1
0
STYLE
5
11
100
AcDbSymbolTableRecord
100
AcDbTextStyleTableRecord
2
STANDARD
70
0
0
ENDTAB
0
TABLE
2
VIEW
5
6
100
AcDbSymbolTable
70
0
0
ENDTAB
0
TABLE
2
UCS
5
7
100
AcDbSymbolTable
70
0
0
ENDTAB
0
TABLE
2
APPID
5
9
100
AcDbSymbolTable
70
2
0
APPID
5
12
100
AcDbSymbolTableRecord
100
AcDbRegAppTableRecord
2
ACAD
70
0
0
ENDTAB
0
TABLE
2
DIMSTYLE
5
A
100
AcDbSymbolTable
70
1
0
ENDTAB
0
TABLE
2
BLOCK_RECORD
5
1
100
AcDbSymbolTable
70
1
0
BLOCK_RECORD
5
1F
100
AcDbSymbolTableRecord
100
AcDbBlockTableRecord
2
*MODEL_SPACE
0
BLOCK_RECORD
5
1B
100
AcDbSymbolTableRecord
100
AcDbBlockTableRecord
2
*PAPER_SPACE
0
ENDTAB
0
ENDSEC
0
SECTION
2
BLOCKS
0
BLOCK
5
20
100
AcDbEntity
100
AcDbBlockBegin
2
*MODEL_SPACE
0
ENDBLK
5
21
100
AcDbEntity
100
AcDbBlockEnd
0
BLOCK
5
1C
100
AcDbEntity
100
AcDbBlockBegin
2
*PAPER_SPACE
0
ENDBLK
5
1D
100
AcDbEntity
100
AcDbBlockEnd
0
ENDSEC
0
SECTION
2
ENTITIES
0
SPLINE
5
100
100
AcDbEntity
8
0
100
AcDbSpline
70
6
71
5
72
211
73
205
74
0
42
0.000000001
43
0.0000000001
44
0.0000000001
40
0
40
0
40
0
40
0
40
0
40
0
40
0.0050000000000000001
40
0.01
40
0.014999999999999999
40
0.02
40
0.025000000000000001
40
0.030000000000000002
40
0.035000000000000003
40
0.040000000000000001
40
0.044999999999999998
40
0.049999999999999996
40
0.054999999999999993
40
0.059999999999999991
40
0.064999999999999988
40
0.069999999999999993
40
0.074999999999999997
40
0.080000000000000002
40
0.085000000000000006
40
0.090000000000000011
40
0.095000000000000015
40
0.10000000000000002
40
0.10500000000000002
40
0.11000000000000003
40
0.11500000000000003
40
0.12000000000000004
40
0.12500000000000003
40
0.13000000000000003
40
0.13500000000000004
40
0.14000000000000004
40
0.14500000000000005
40
0.15000000000000005
40
0.15500000000000005
40
0.16000000000000006
40
0.16500000000000006
40
0.17000000000000007
40
0.17500000000000007
40
0.18000000000000008
40
0.18500000000000008
40
0.19000000000000009
40
0.19500000000000009
40
0.20000000000000009
40
0.2050000000000001
40
0.2100000000000001
40
0.21500000000000011
40
0.22000000000000011
40
0.22500000000000012
40
0.23000000000000012
40
0.23500000000000013
40
0.24000000000000013
40
0.24500000000000013
40
0.25000000000000011
40
0.25500000000000012
40
0.26000000000000012
40
0.26500000000000012
40
0.27000000000000013
40
0.27500000000000013
40
0.28000000000000014
40
0.28500000000000014
40
0.29000000000000015
40
0.29500000000000015
40
0.30000000000000016
40
0.30500000000000016
40
0.31000000000000016
40
0.31500000000000017
40
0.32000000000000017
40
0.32500000000000018
40
0.33000000000000018
40
0.33500000000000019
40
0.34000000000000019
40
0.3450000000000002
40
0.3500000000000002
40
0.3550000000000002
40
0.36000000000000021
40
0.36500000000000021
40
0.37000000000000022
40
0.37500000000000022
40
0.38000000000000023
40
0.38500000000000023
40
0.39000000000000024
40
0.39500000000000024
40
0.40000000000000024
40
0.40500000000000025
40
0.41000000000000025
40
0.41500000000000026
40
0.42000000000000026
40
0.42500000000000027
40
0.43000000000000027
40
0.43500000000000028
40
0.44000000000000028
40
0.44500000000000028
40
0.45000000000000029
40
0.45500000000000029
40
0.4600000000000003
40
0.4650000000000003
40
0.47000000000000031
40
0.47500000000000031
40
0.48000000000000032
40
0.48500000000000032
40
0.49000000000000032
40
0.49500000000000033
40
0.50000000000000033
40
0.50500000000000034
40
0.51000000000000034
40
0.51500000000000035
40
0.52000000000000035
40
0.52500000000000036
40
0.53000000000000036
40
0.53500000000000036
40
0.54000000000000037
40
0.54500000000000037
40
0.55000000000000038
40
0.55500000000000038
40
0.56000000000000039
40
0.56500000000000039
40
0.5700000000000004
40
0.5750000000000004
40
0.5800000000000004
40
0.58500000000000041
40
0.59000000000000041
40
0.59500000000000042
40
0.60000000000000042
40
0.60500000000000043
40
0.61000000000000043
40
0.61500000000000044
40
0.62000000000000044
40
0.62500000000000044
40
0.63000000000000045
40
0.63500000000000045
40
0.64000000000000046
40
0.64500000000000046
40
0.65000000000000047
40
0.65500000000000047
40
0.66000000000000048
40
0.66500000000000048
40
0.67000000000000048
40
0.67500000000000049
40
0.68000000000000049
40
0.6850000000000005
40
0.6900000000000005
40
0.69500000000000051
40
0.70000000000000051
40
0.70500000000000052
40
0.71000000000000052
40
0.71500000000000052
40
0.72000000000000053
40
0.72500000000000053
40
0.73000000000000054
40
0.73500000000000054
40
0.74000000000000055
40
0.74500000000000055
40
0.75000000000000056
40
0.75500000000000056
40
0.76000000000000056
40
0.76500000000000057
40
0.77000000000000057
40
0.77500000000000058
40
0.78000000000000058
40
0.78500000000000059
40
0.79000000000000059
40
0.7950000000000006
40
0.8000000000000006
40
0.8050000000000006
40
0.81000000000000061
40
0.81500000000000061
40
0.82000000000000062
40
0.82500000000000062
40
0.83000000000000063
40
0.83500000000000063
40
0.84000000000000064
40
0.84500000000000064
40
0.85000000000000064
40
0.85500000000000065
40
0.86000000000000065
40
0.86500000000000066
40
0.87000000000000066
40
0.87500000000000067
40
0.88000000000000067
40
0.88500000000000068
40
0.89000000000000068
40
0.89500000000000068
40
0.90000000000000069
40
0.90500000000000069
40
0.9100000000000007
40
0.9150000000000007
40
0.92000000000000071
40
0.92500000000000071
40
0.93000000000000071
40
0.93500000000000072
40
0.94000000000000072
40
0.94500000000000073
40
0.95000000000000073
40
0.95500000000000074
40
0.96000000000000074
40
0.96500000000000075
40
0.97000000000000075
40
0.97500000000000075
40
0.98000000000000076
40
0.98500000000000076
40
0.99000000000000077
40
0.99500000000000077
40
1
40
1
40
1
40
1
40
1
40
1
41
1
41
1
41
1
41
1
41
1
41
1
41
1
41
1
41
1
41
1
41
1
41
1
41
1
41
1
41
1
41
1
41
1
41
1
41
1
41
1
41
1
41
1
41
1
41
1
41
1
41
1
41
1
41
1
41
1
41
1
41
1
41
1
41
1
41
1
41
1
41
1
41
1
41
1
41
1
41
1
41
1
41
1
41
1
41
1
41
1
41
1
41
1
41
1
41
1
41
1
41
1
41
1
41
1
41
1
41
1
41
1
41
1
41
1
41
1
41
1
41
1
41
1
41
1
41
1
41
1
41
1
41
1
41
1
41
1
41
1
41
1
41
1
41
1
41
1
41
1
41
1
41
1
41
1
41
1
41
1
41
1
41
1
41
1
41
1
41
1
41
1
41
1
41
1
41
1
41
1
41
1
41
1
41
1
41
1
41
1
41
1
41
1
41
1
41
1
41
1
41
1
41
1
41
1
41
1
41
1
41
1
41
1
41
1
41
1
41
1
41
1
41
1
41
1
41
1
41
1
41
1
41
1
41
1
41
1
41
1
41
1
41
1
41
1
41
1
41
1
41
1
41
1
41
1
41
1
41
1
41
1
41
1
41
1
41
1
41
1
41
1
41
1
41
1
41
1
41
1
41
1
41
1
41
1
41
1
41
1
41
1
41
1
41
1
41
1
41
1
41
1
41
1
41
1
41
1
41
1
41
1
41
1
41
1
41
1
41
1
41
1
41
1
41
1
41
1
41
1
41
1
41
1
41
1
41
1
41
1
41
1
41
1
41
1
41
1
41
1
41
1
41
1
41
1
41
1
41
1
41
1
41
1
41
1
41
1
41
1
41
1
41
1
41
1
41
1
41
1
41
1
41
1
41
1
41
1
41
1
41
1
41
1
41
1
41
1
41
1
41
1
41
1
41
1
41
1
41
1
10
10.700689805763417
20
-8.7141627948330367
30
0
10
10.698984041936715
20
-8.7613644134502096
30
0
10
10.694771166089279
20
-8.8594160486512727
30
0
10
10.685770665173933
20
-9.019849691071208
30
0
10
10.667402306986869
20
-9.2657369428746499
30
0
10
10.631790959684803
20
-9.6233880321275773
30
0
10
10.58193030146278
20
-10.017784814872947
30
0
10
10.516622874808359
20
-10.430618476110332
30
0
10
10.435036977106066
20
-10.844255209089413
30
0
10
10.336664522438292
20
-11.248037470196115
30
0
10
10.221333273495452
20
-11.637696991994609
30
0
10
10.089230619247338
20
-12.013468470584661
30
0
10
9.9409208799921167
20
-12.378664125561464
30
0
10
9.7773710631055
20
-12.738035390888555
30
0
10
9.5999597600518811
20
-13.096272794313172
30
0
10
9.4105290787506632
20
-13.456322491668033
30
0
10
9.2109510931354937
20
-13.819355177381734
30
0
10
9.0026275733233447
20
-14.184922677334018
30
0
10
8.7860295086295004
20
-14.5510513754601
30
0
10
8.560183476254501
20
-14.914354430550725
30
0
10
8.3222654147355879
20
-15.270153305648416
30
0
10
8.0669284354326081
20
-15.612549387124389
30
0
10
7.7872139634854056
20
-15.934823715774494
30
0
10
7.475964394180715
20
-16.229944199906729
30
0
10
7.1270404196917134
20
-16.491027810047598
30
0
10
6.736682212528847
20
-16.71184159768692
30
0
10
6.3046650839340037
20
-16.887240717483756
30
0
10
5.8358985169710422
20
-17.01374785344192
30
0
10
5.3404947087775643
20
-17.089640841733864
30
0
10
4.832066263548354
20
-17.114473640604679
30
0
10
4.3264755776730563
20
-17.088737330096141
30
0
10
3.8404171638028552
20
-17.013479391980752
30
0
10
3.3900343807701976
20
-16.889906348607898
30
0
10
2.9896084908553338
20
-16.719074459525768
30
0
10
2.6500005851575077
20
-16.501342481571907
30
0
10
2.3780622956972737
20
-16.23672478558251
30
0
10
2.1769938981349486
20
-15.926108143210907
30
0
10
2.0464387161896043
20
-15.572245586132624
30
0
10
1.9826925803185809
20
-15.180812797068182
30
0
10
1.9788450666920219
20
-14.761506257754535
30
0
10
2.0250018070345202
20
-14.328930084159406
30
0
10
2.1094946476840253
20
-13.899790723577823
30
0
10
2.2200364534485924
20
-13.49030878256425
30
0
10
2.3449063595525339
20
-13.113519515640606
30
0
10
2.4740996703909737
20
-12.776686464734484
30
0
10
2.6005463787417287
20
-12.478508722702815
30
0
10
2.721150499504541
20
-12.206857254077745
30
0
10
2.8354867328646991
20
-11.943309003947959
30
0
10
2.9445903923981058
20
-11.667443870202183
30
0
10
3.0498070873883831
20
-11.360889624342569
30
0
10
3.1513894076850582
20
-11.012294232255011
30
0
10
3.2480673899128982
20
-10.61878459919197
30
0
10
3.3377443239734421
20
-10.183375734690653
30
0
10
3.4178977221183353
20
-9.7134406834317879
30
0
10
3.4861008000309459
20
-9.2187477942459051
30
0
10
3.540491150230467
20
-8.7096871798522475
30
0
10
3.5802650682649526
20
-8.1954078157563277
30
0
10
3.6061530599733862
20
-7.6820158832648708
30
0
10
3.6199960147246673
20
-7.1734921405041376
30
0
10
3.6243285429540242
20
-6.6725815650648901
30
0
10
3.6219605332760123
20
-6.1817048695806935
30
0
10
3.6155580722093568
20
-5.703833125673528
30
0
10
3.6072280124364369
20
-5.2434421205944917
30
0
10
3.5980929919745845
20
-4.8072826052441142
30
0
10
3.5878902474307668
20
-4.4056205389956746
30
0
10
3.5744418817705932
20
-4.0503206944265662
30
0
10
3.5531406075906564
20
-3.7522279180938205
30
0
10
3.5163456145243037
20
-3.5186743576501915
30
0
10
3.4530064411558263
20
-3.3511902034446432
30
0
10
3.3476797365697908
20
-3.2424475680484219
30
0
10
3.1846540131894345
20
-3.1797171657782592
30
0
10
2.9537102530273747
20
-3.1501212824054514
30
0
10
2.6539332782928367
20
-3.1442132780741057
30
0
10
2.2909311371223957
20
-3.1546259681388915
30
0
10
1.8749346492846166
20
-3.1753566806734126
30
0
10
1.4185880482867341
20
-3.2008258482649445
30
0
10
0.93480025271108746
20
-3.224990096387959
30
0
10
0.43477624593483022
20
-3.2405529119789893
30
0
10
-0.071579505897736054
20
-3.2395727265899703
30
0
10
-0.57546178792189795
20
-3.2139506147024748
30
0
10
-1.0688855018932126
20
-3.1559646826339876
30
0
10
-1.5444406968711177
20
-3.0587836957482377
30
0
10
-1.9950309681005978
20
-2.916991941814016
30
0
10
-2.4136239473580741
20
-2.7271043419927947
30
0
10
-2.7929831515708652
20
-2.4881000340710955
30
0
10
-3.1260478805360603
20
-2.2013490250453209
30
0
10
-3.4063353393173945
20
-1.870527706321695
30
0
10
-3.62832582568055
20
-1.5015287185297057
30
0
10
-3.7878753161966321
20
-1.1023964448013155
30
0
10
-3.8825694804021604
20
-0.68319838629351703
30
0
10
-3.9122250244557701
20
-0.25606311967049289
30
0
10
-3.8784948942487807
20
0.16580261343994007
30
0
10
-3.7842047687492224
20
0.56940601827641435
30
0
10
-3.6327881837223401
20
0.94314250492644081
30
0
10
-3.42766188095827
20
1.2780511122557938
30
0
10
-3.1716705913641565
20
1.5689612042263557
30
0
10
-2.8663845057786927
20
1.815885742983538
30
0
10
-2.5130255849452423
20
2.0226632253394654
30
0
10
-2.1136019220614157
20
2.195254574885749
30
0
10
-1.6719287449080311
20
2.3402169293738733
30
0
10
-1.1947861441233889
20
2.4629823339566133
30
0
10
-0.69281169800981435
20
2.5665017343659047
30
0
10
-0.18202854359815468
20
2.6490215311808618
30
0
10
0.31737293461630239
20
2.70563137581735
30
0
10
0.78394319305811211
20
2.7322224376111843
30
0
10
1.1973233022852128
20
2.7285067771006704
30
0
10
1.5409249945062915
20
2.7018810956662054
30
0
10
1.8042400059392962
20
2.6698764199181952
30
0
10
1.985863076113441
20
2.6657454211007323
30
0
10
2.094440029493462
20
2.7348433145250555
30
0
10
2.1445774507072692
20
2.9120338771264125
30
0
10
2.1534386012808744
20
3.1975678206997022
30
0
10
2.1385526728517466
20
3.561421227481504
30
0
10
2.1164050907358867
20
3.9591186956523283
30
0
10
2.1007013263507921
20
4.3440180313712426
30
0
10
2.1008882321182591
20
4.6804100463534217
30
0
10
2.120244439114721
20
4.9580284909231969
30
0
10
2.1578428488416104
20
5.1856856000605731
30
0
10
2.2110517169481909
20
5.3817818285948924
30
0
10
2.2778085543841651
20
5.5661104000455897
30
0
10
2.3590902630944726
20
5.7506509907757239
30
0
10
2.4587752302748993
20
5.940621261016096
30
0
10
2.5832145487209512
20
6.1360660525893103
30
0
10
2.7412046105683125
20
6.3333042926610315
30
0
10
2.9420772578623837
20
6.5261851905926251
30
0
10
3.1928363486276821
20
6.7072247736487469
30
0
10
3.495937503374154
20
6.8687348825787069
30
0
10
3.8460003836422501
20
7.0040727720987528
30
0
10
4.2303092649890086
20
7.1083514378821002
30
0
10
4.6324436803272055
20
7.1787012468926195
30
0
10
5.0349918308476322
20
7.2146395755762267
30
0
10
5.4227087998810042
20
7.2184404321110556
30
0
10
5.7853239513345498
20
7.1954017978420168
30
0
10
6.1209286005324817
20
7.1544329319050215
30
0
10
6.4336806954817574
20
7.1049463289231216
30
0
10
6.7308182708205164
20
7.0532428520322714
30
0
10
7.0199548554374491
20
6.9991835822520656
30
0
10
7.3061723394083788
20
6.9324949796915014
30
0
10
7.5894378200439778
20
6.8299157832846671
30
0
10
7.8662374244699826
20
6.6639929501722772
30
0
10
8.1310053943808605
20
6.4114798541010085
30
0
10
8.3775848546274396
20
6.061397867585594
30
0
10
8.6007798144480692
20
5.6243802645166694
30
0
10
8.7975518692445451
20
5.1380465700883065
30
0
10
8.9664197155207148
20
4.6532422396108428
30
0
10
9.1071211145675655
20
4.2228673382416542
30
0
10
9.2201333833181689
20
3.8896669161820885
30
0
10
9.3063444339884853
20
3.6745367418521329
30
0
10
9.3664505600969221
20
3.564433011247921
30
0
10
9.4009500189523916
20
3.5008243895007762
30
0
10
9.4293109957047267
20
3.4335451628066482
30
0
10
9.512690567443661
20
3.3782576340833832
30
0
10
9.6989793568718312
20
3.3608672037909999
30
0
10
9.9904294755048344
20
3.3822585887095249
30
0
10
10.364202868721449
20
3.4314777293571064
30
0
10
10.782724622300726
20
3.4893741938133367
30
0
10
11.207217159052135
20
3.5356417035157421
30
0
10
11.612090488183371
20
3.5554191675036124
30
0
10
11.985615028097868
20
3.539980111649971
30
0
10
12.325048082558316
20
3.4847325486275982
30
0
10
12.633509305553394
20
3.3880864699768436
30
0
10
12.916358023771775
20
3.2500604157602715
30
0
10
13.177221090990569
20
3.0707523099798806
30
0
10
13.416163387636821
20
2.8497442297016713
30
0
10
13.631367572015932
20
2.5870412725787983
30
0
10
13.820023283707952
20
2.2836791302990838
30
0
10
13.979420882128316
20
1.9423837811849201
30
0
10
14.10823761829899
20
1.5684088919589945
30
0
10
14.206663223201911
20
1.1695305663581372
30
0
10
14.27510048451783
20
0.75505184870623621
30
0
10
14.313296052364333
20
0.33508383118691598
30
0
10
14.319185572728674
20
-0.080316070480753246
30
0
10
14.288115439580764
20
-0.48187480789460935
30
0
10
14.211271468828805
20
-0.86206387490273928
30
0
10
14.07701359113306
20
-1.2152576735116236
30
0
10
13.874898509240388
20
-1.5371597576698783
30
0
10
13.598915688259623
20
-1.8244396527485764
30
0
10
13.251139678830697
20
-2.0742659808420525
30
0
10
12.844986803416303
20
-2.2839253308720449
30
0
10
12.409227647545215
20
-2.4502953548492505
30
0
10
11.980636145659627
20
-2.5713125379514166
30
0
10
11.596192401780591
20
-2.6474654913091173
30
0
10
11.284852407492775
20
-2.6834828502206705
30
0
10
11.060842281692375
20
-2.6894804670359864
30
0
10
10.913079188202751
20
-2.683440283107112
30
0
10
10.806330024684563
20
-2.6897092170111083
30
0
10
10.71128348880104
20
-2.7282652707118746
30
0
10
10.633117301282066
20
-2.8037551799025602
30
0
10
10.58875125461266
20
-2.9210436894685765
30
0
10
10.578207247183819
20
-3.1036742336238099
30
0
10
10.591990879942571
20
-3.3797353752385559
30
0
10
10.616820618574769
20
-3.7696517165900452
30
0
10
10.642992952330177
20
-4.2705579948687262
30
0
10
10.665155694783675
20
-4.8584236053802021
30
0
10
10.680992312333029
20
-5.4961666483727081
30
0
10
10.690588209881602
20
-6.13977435209648
30
0
10
10.695509782414415
20
-6.7452992017601776
30
0
10
10.698014812592142
20
-7.2753753267071275
30
0
10
10.700188438935951
20
-7.706182794799795
30
0
10
10.703153749299979
20
-8.0336539100451159
30
0
10
10.706136625974978
20
-8.2815213083588208
30
0
10
10.706794116188814
20
-8.4486082762044443
30
0
10
10.705005749049477
20
-8.5762063369482391
30
0
10
10.702395569590115
20
-8.6669611762158709
30
0
10
10.700689805763417
20
-8.7141627948330367
30
0
0
ENDSEC
0
SECTION
2
OBJECTS
0
DICTIONARY
5
C
100
AcDbDictionary
3
ACAD_GROUP
350
D
3
ACAD_MLINESTYLE
350
17
0
DICTIONARY
5
D
100
AcDbDictionary
0
DICTIONARY
5
1A
330
C
100
AcDbDictionary
0
DICTIONARY
5
17
100
AcDbDictionary
0
ENDSEC
0
EOF
