0
SECTION
2
HEADER
9
$INSUNITS
70
4
9
$ACADVER
1
AC1014
9
$HANDSEED
5
FFFF
0
ENDSEC
0
SECTION
2
TABLES
0
TABLE
2
VPORT
5
8
100
AcDbSymbolTable
0
ENDTAB
0
TABLE
2
LTYPE
5
5
100
AcDbSymbolTable
0
LTYPE
5
14
100
AcDbSymbolTableRecord
100
AcDbLinetypeTableRecord
2
BYBLOCK
70
0
0
LTYPE
5
15
100
AcDbSymbolTableRecord
100
AcDbLinetypeTableRecord
2
BYLAYER
70
0
0
ENDTAB
0
TABLE
2
LAYER
5
2
100
AcDbSymbolTable
70
2
0
LAYER
5
50
100
AcDbSymbolTableRecord
100
AcDbLayerTableRecord
2
0
70
0
6
CONTINUOUS
0
ENDTAB
0
TABLE
2
STYLE
5
3
100
AcDbSymbolTable
70
1
0
STYLE
5
11
100
AcDbSymbolTableRecord
100
AcDbTextStyleTableRecord
2
STANDARD
70
0
0
ENDTAB
0
TABLE
2
VIEW
5
6
100
AcDbSymbolTable
70
0
0
ENDTAB
0
TABLE
2
UCS
5
7
100
AcDbSymbolTable
70
0
0
ENDTAB
0
TABLE
2
APPID
5
9
100
AcDbSymbolTable
70
2
0
APPID
5
12
100
AcDbSymbolTableRecord
100
AcDbRegAppTableRecord
2
ACAD
70
0
0
ENDTAB
0
TABLE
2
DIMSTYLE
5
A
100
AcDbSymbolTable
70
1
0
ENDTAB
0
TABLE
2
BLOCK_RECORD
5
1
100
AcDbSymbolTable
70
1
0
BLOCK_RECORD
5
1F
100
AcDbSymbolTableRecord
100
AcDbBlockTableRecord
2
*MODEL_SPACE
0
BLOCK_RECORD
5
1B
100
AcDbSymbolTableRecord
100
AcDbBlockTableRecord
2
*PAPER_SPACE
0
ENDTAB
0
ENDSEC
0
SECTION
2
BLOCKS
0
BLOCK
5
20
100
AcDbEntity
100
AcDbBlockBegin
2
*MODEL_SPACE
0
ENDBLK
5
21
100
AcDbEntity
100
AcDbBlockEnd
0
BLOCK
5
1C
100
AcDbEntity
100
AcDbBlockBegin
2
*PAPER_SPACE
0
ENDBLK
5
1D
100
AcDbEntity
100
AcDbBlockEnd
0
ENDSEC
0
SECTION
2
ENTITIES
0
CIRCLE
5
100
100
AcDbEntity
8
0
100
AcDbCircle
10
-0.79536890490259693
20
5.8047321399739165
30
0
40
1.96747128451469
210
0
220
0
230
1
0
ARC
5
101
100
AcDbEntity
8
0
100
AcDbCircle
10
-0.79536890490259693
20
5.8047321399739165
30
0
40
4.054985124978387
210
0
220
0
230
1
100
AcDbArc
50
-17.0699564548448
51
160.56097439102336
0
ARC
5
102
100
AcDbEntity
8
0
100
AcDbCircle
10
-5.4465215733369545
20
7.4462233036128005
30
0
40
0.87732816448430584
210
0
220
0
230
1
100
AcDbArc
50
243.09492264887541
51
340.56097439081532
0
ARC
5
103
100
AcDbEntity
8
0
100
AcDbCircle
10
3.5360716438933375
20
4.4746928175185943
30
0
40
0.47606131343195335
210
0
220
0
230
1
100
AcDbArc
50
162.93004354515605
51
265.65448262779921
0
SPLINE
5
104
100
AcDbEntity
8
0
100
AcDbSpline
70
4
71
5
72
149
73
143
74
0
42
0.000000001
43
0.0000000001
44
0.0000000001
40
0
40
0
40
0
40
0
40
0
40
0
40
0.0071428571428571426
40
0.014285714285714285
40
0.021428571428571429
40
0.028571428571428571
40
0.035714285714285712
40
0.042857142857142858
40
0.050000000000000003
40
0.057142857142857148
40
0.064285714285714293
40
0.071428571428571438
40
0.078571428571428584
40
0.085714285714285729
40
0.092857142857142874
40
0.10000000000000002
40
0.10714285714285716
40
0.11428571428571431
40
0.12142857142857146
40
0.12857142857142859
40
0.13571428571428573
40
0.14285714285714288
40
0.15000000000000002
40
0.15714285714285717
40
0.16428571428571431
40
0.17142857142857146
40
0.1785714285714286
40
0.18571428571428575
40
0.19285714285714289
40
0.20000000000000004
40
0.20714285714285718
40
0.21428571428571433
40
0.22142857142857147
40
0.22857142857142862
40
0.23571428571428577
40
0.24285714285714291
40
0.25000000000000006
40
0.25714285714285717
40
0.26428571428571429
40
0.27142857142857141
40
0.27857142857142853
40
0.28571428571428564
40
0.29285714285714276
40
0.29999999999999988
40
0.307142857142857
40
0.31428571428571411
40
0.32142857142857123
40
0.32857142857142835
40
0.33571428571428547
40
0.34285714285714258
40
0.3499999999999997
40
0.35714285714285682
40
0.36428571428571394
40
0.37142857142857105
40
0.37857142857142817
40
0.38571428571428529
40
0.39285714285714241
40
0.39999999999999952
40
0.40714285714285664
40
0.41428571428571376
40
0.42142857142857088
40
0.42857142857142799
40
0.43571428571428511
40
0.44285714285714223
40
0.44999999999999934
40
0.45714285714285646
40
0.46428571428571358
40
0.4714285714285707
40
0.47857142857142781
40
0.48571428571428493
40
0.49285714285714205
40
0.49999999999999917
40
0.50714285714285634
40
0.51428571428571346
40
0.52142857142857058
40
0.52857142857142769
40
0.53571428571428481
40
0.54285714285714193
40
0.54999999999999905
40
0.55714285714285616
40
0.56428571428571328
40
0.5714285714285704
40
0.57857142857142752
40
0.58571428571428463
40
0.59285714285714175
40
0.59999999999999887
40
0.60714285714285599
40
0.6142857142857131
40
0.62142857142857022
40
0.62857142857142734
40
0.63571428571428445
40
0.64285714285714157
40
0.64999999999999869
40
0.65714285714285581
40
0.66428571428571292
40
0.67142857142857004
40
0.67857142857142716
40
0.68571428571428428
40
0.69285714285714139
40
0.69999999999999851
40
0.70714285714285563
40
0.71428571428571275
40
0.72142857142856986
40
0.72857142857142698
40
0.7357142857142841
40
0.74285714285714122
40
0.74999999999999833
40
0.75714285714285545
40
0.76428571428571257
40
0.77142857142856969
40
0.7785714285714268
40
0.78571428571428392
40
0.79285714285714104
40
0.79999999999999816
40
0.80714285714285527
40
0.81428571428571239
40
0.82142857142856951
40
0.82857142857142663
40
0.83571428571428374
40
0.84285714285714086
40
0.84999999999999798
40
0.8571428571428551
40
0.86428571428571221
40
0.87142857142856933
40
0.87857142857142645
40
0.88571428571428357
40
0.89285714285714068
40
0.8999999999999978
40
0.90714285714285492
40
0.91428571428571204
40
0.92142857142856915
40
0.92857142857142627
40
0.93571428571428339
40
0.94285714285714051
40
0.94999999999999762
40
0.95714285714285474
40
0.96428571428571186
40
0.97142857142856898
40
0.97857142857142609
40
0.98152043651980381
40
0.98152043651980381
40
0.98152043651980381
40
0.98152043651980381
40
0.98152043651980381
40
0.98152043651980381
41
1
41
1
41
1
41
1
41
1
41
1
41
1
41
1
41
1
41
1
41
1
41
1
41
1
41
1
41
1
41
1
41
1
41
1
41
1
41
1
41
1
41
1
41
1
41
1
41
1
41
1
41
1
41
1
41
1
41
1
41
1
41
1
41
1
41
1
41
1
41
1
41
1
41
1
41
1
41
1
41
1
41
1
41
1
41
1
41
1
41
1
41
1
41
1
41
1
41
1
41
1
41
1
41
1
41
1
41
1
41
1
41
1
41
1
41
1
41
1
41
1
41
1
41
1
41
1
41
1
41
1
41
1
41
1
41
1
41
1
41
1
41
1
41
1
41
1
41
1
41
1
41
1
41
1
41
1
41
1
41
1
41
1
41
1
41
1
41
1
41
1
41
1
41
1
41
1
41
1
41
1
41
1
41
1
41
1
41
1
41
1
41
1
41
1
41
1
41
1
41
1
41
1
41
1
41
1
41
1
41
1
41
1
41
1
41
1
41
1
41
1
41
1
41
1
41
1
41
1
41
1
41
1
41
1
41
1
41
1
41
1
41
1
41
1
41
1
41
1
41
1
41
1
41
1
41
1
41
1
41
1
41
1
41
1
41
1
41
1
41
1
41
1
41
1
41
1
41
1
41
1
41
1
41
1
10
-5.8435246183123812
20
6.6638593918187805
30
0
10
-5.9151436048175876
20
6.7100731947429857
30
0
10
-6.0570809070706115
20
6.8013223002650474
30
0
10
-6.2660846431825057
20
6.9346605670311927
30
0
10
-6.5369529853600961
20
7.1053726037454421
30
0
10
-6.8635995528207525
20
7.3064523763184486
30
0
10
-7.1815471211932742
20
7.493640692307018
30
0
10
-7.4972217793273233
20
7.6638108341868652
30
0
10
-7.8214909212499508
20
7.8116748471140527
30
0
10
-8.1665537453607495
20
7.9313775732524894
30
0
10
-8.5427049303251241
20
8.0181192665421506
30
0
10
-8.9548975235090076
20
8.0699625160735131
30
0
10
-9.4000858685107538
20
8.089017448351921
30
0
10
-9.8702112111729843
20
8.0784347261776777
30
0
10
-10.354714344050958
20
8.0396225777865986
30
0
10
-10.843007234652191
20
7.9697978622317187
30
0
10
-11.327498613840259
20
7.858376760625565
30
0
10
-11.804272544859174
20
7.6878538655669617
30
0
10
-12.271353318544776
20
7.4391990731130564
30
0
10
-12.727603713153373
20
7.0961159935987848
30
0
10
-13.171413582728391
20
6.6495807351206313
30
0
10
-13.599362769246737
20
6.1027010989336725
30
0
10
-14.005236759206527
20
5.474142422716092
30
0
10
-14.381426798444171
20
4.7925382039950417
30
0
10
-14.720048120000115
20
4.0919573942716241
30
0
10
-15.014161239498108
20
3.406983200357204
30
0
10
-15.258963280100215
20
2.7679169621324808
30
0
10
-15.452961045871094
20
2.1960224902406993
30
0
10
-15.599228331967938
20
1.6985244661635914
30
0
10
-15.706419302392367
20
1.264339093965775
30
0
10
-15.786087293238658
20
0.87132934650022931
30
0
10
-15.850056824197171
20
0.49327086184781238
30
0
10
-15.908050613339279
20
0.10631349076455701
30
0
10
-15.964538901495382
20
-0.30285425923254289
30
0
10
-16.018798440350494
20
-0.73596213183366854
30
0
10
-16.067510787996508
20
-1.1877193347814152
30
0
10
-16.106576307158317
20
-1.6487099342958533
30
0
10
-16.133361399941254
20
-2.1090690826407203
30
0
10
-16.148444006716264
20
-2.5615429728109573
30
0
10
-16.154120440800988
20
-3.0015187614101273
30
0
10
-16.153101912767831
20
-3.4273159038633825
30
0
10
-16.147269788753754
20
-3.8402829132080178
30
0
10
-16.136088196702492
20
-4.2452186495382884
30
0
10
-16.116571810140464
20
-4.6495805453276482
30
0
10
-16.084415660775026
20
-5.0617941504992068
30
0
10
-16.034741403130976
20
-5.4898956464093409
30
0
10
-15.963094623233747
20
-5.9398785578535946
30
0
10
-15.86602812023779
20
-6.4146892637343811
30
0
10
-15.740949685665573
20
-6.9145120753866589
30
0
10
-15.586115901229601
20
-7.4367793074080843
30
0
10
-15.400569039772591
20
-7.9763158637432987
30
0
10
-15.184096871173427
20
-8.5253639798694998
30
0
10
-14.937188274518018
20
-9.0738452777104435
30
0
10
-14.661029952084546
20
-9.6106316911232383
30
0
10
-14.357490403676163
20
-10.124659287484869
30
0
10
-14.029121377871132
20
-10.606143446961283
30
0
10
-13.679124261355437
20
-11.047658726623643
30
0
10
-13.311398827377037
20
-11.445500253011563
30
0
10
-12.930342985872525
20
-11.800211669869253
30
0
10
-12.540013142041015
20
-12.114926902740901
30
0
10
-12.143381777056629
20
-12.394102849071549
30
0
10
-11.741602527213423
20
-12.642134746643112
30
0
10
-11.333162785566604
20
-12.861935044998194
30
0
10
-10.913402683040744
20
-13.053783741077558
30
0
10
-10.476268997991429
20
-13.216050367422676
30
0
10
-10.015867760508117
20
-13.345700850593341
30
0
10
-9.5279877574925269
20
-13.43888624998854
30
0
10
-9.0118909510469827
20
-13.491498213766706
30
0
10
-8.4711243102321188
20
-13.499733113045412
30
0
10
-7.9125113586900078
20
-13.460648768967866
30
0
10
-7.3455394948754416
20
-13.37271157214175
30
0
10
-6.7816095965918262
20
-13.236375193435158
30
0
10
-6.233298521896824
20
-13.054582933778619
30
0
10
-5.7137380849423822
20
-12.833470817424883
30
0
10
-5.2348537330004934
20
-12.581385773651894
30
0
10
-4.8054945417227337
20
-12.307649778111486
30
0
10
-4.4294289794856594
20
-12.021353918373215
30
0
10
-4.1037832109257693
20
-11.730273779933709
30
0
10
-3.8163179800631037
20
-11.439398420645169
30
0
10
-3.5476147280192407
20
-11.151128526049819
30
0
10
-3.2770250330681328
20
-10.866694759432939
30
0
10
-2.9869990482388289
20
-10.587145216931852
30
0
10
-2.6692542266412871
20
-10.314670954240736
30
0
10
-2.3260381058599524
20
-10.053223721574284
30
0
10
-1.9642265149111717
20
-9.8081838336312828
30
0
10
-1.5911553572580328
20
-9.5862376802679901
30
0
10
-1.2096479039455867
20
-9.3951947124077151
30
0
10
-0.81366806181397089
20
-9.2437709877949477
30
0
10
-0.39352543199122453
20
-9.1398292628065718
30
0
10
0.058742107183660033
20
-9.088513717103563
30
0
10
0.54479113264504408
20
-9.090722587848326
30
0
10
1.0532626329495711
20
-9.1407078903263219
30
0
10
1.5617339534706101
20
-9.2271935328850674
30
0
10
2.0448458398423006
20
-9.3369627229446426
30
0
10
2.4810123198432783
20
-9.4579376070161008
30
0
10
2.858863635012356
20
-9.5819973364143998
30
0
10
3.1859489397018717
20
-9.7090942435411982
30
0
10
3.4853085694705954
20
-9.8446365927484738
30
0
10
3.785957295434847
20
-9.9935026591401126
30
0
10
4.1153531765952192
20
-10.155164631431152
30
0
10
4.4908877682337511
20
-10.318223032182514
30
0
10
4.9209772738467414
20
-10.464876702185769
30
0
10
5.406167244858092
20
-10.575724067355271
30
0
10
5.9402866784155473
20
-10.634024377798577
30
0
10
6.5114633029445521
20
-10.631197013595724
30
0
10
7.1036331215260535
20
-10.567992276577183
30
0
10
7.6986720342927759
20
-10.45049688439504
30
0
10
8.2783185540078037
20
-10.287541840843037
30
0
10
8.8262838298610884
20
-10.087393933486325
30
0
10
9.3300442772233119
20
-9.8550954169142919
30
0
10
9.7833717058256973
20
-9.58866243742529
30
0
10
10.185580763183763
20
-9.2800390067189404
30
0
10
10.539063351006293
20
-8.9185121878941906
30
0
10
10.847267014433751
20
-8.4934704014387421
30
0
10
11.112683873692038
20
-7.9972025304610099
30
0
10
11.334363952307145
20
-7.4282416373225448
30
0
10
11.507325971645843
20
-6.7924558470607916
30
0
10
11.624715754992284
20
-6.1008448145896699
30
0
10
11.679315685982575
20
-5.3681338970439771
30
0
10
11.665266047605973
20
-4.6110690582076561
30
0
10
11.579812074435321
20
-3.8467897843811993
30
0
10
11.424769857060557
20
-3.091287768917268
30
0
10
11.208788260142562
20
-2.3575326062434647
30
0
10
10.946470827332046
20
-1.6549726443633919
30
0
10
10.654850362267839
20
-0.99021849277879614
30
0
10
10.35056230362677
20
-0.36739141839622907
30
0
10
10.046841912075578
20
0.21139309164913089
30
0
10
9.7503417220152393
20
0.74559705938142895
30
0
10
9.4586192006324143
20
1.2358165446583405
30
0
10
9.155841362137906
20
1.6833252643518155
30
0
10
8.8160178640964091
20
2.0897130858559225
30
0
10
8.4114180834580434
20
2.4565895908504864
30
0
10
7.9193427830667922
20
2.7852750844503471
30
0
10
7.3298038492350859
20
3.0764814018102249
30
0
10
6.6522850387690626
20
3.3300328537326349
30
0
10
5.9243366119504683
20
3.5444726277098164
30
0
10
5.2005699927544482
20
3.7180299556560197
30
0
10
4.5389803962679913
20
3.8497994416313297
30
0
10
4.0534967948968816
20
3.930072157987035
30
0
10
3.7583500652291857
20
3.9707941419558335
30
0
10
3.5883655988257059
20
3.9907790376944896
30
0
10
3.5000235623476521
20
4.0000383916243623
30
0
10
3.4751029898651802
20
4.0025508643338599
30
0
0
ENDSEC
0
SECTION
2
OBJECTS
0
DICTIONARY
5
C
100
AcDbDictionary
3
ACAD_GROUP
350
D
3
ACAD_MLINESTYLE
350
17
0
DICTIONARY
5
D
100
AcDbDictionary
0
DICTIONARY
5
1A
330
C
100
AcDbDictionary
0
DICTIONARY
5
17
100
AcDbDictionary
0
ENDSEC
0
EOF
