0
SECTION
2
HEADER
9
$INSUNITS
70
4
9
$ACADVER
1
AC1014
9
$HANDSEED
5
FFFF
0
ENDSEC
0
SECTION
2
TABLES
0
TABLE
2
VPORT
5
8
100
AcDbSymbolTable
0
ENDTAB
0
TABLE
2
LTYPE
5
5
100
AcDbSymbolTable
0
LTYPE
5
14
100
AcDbSymbolTableRecord
100
AcDbLinetypeTableRecord
2
BYBLOCK
70
0
0
LTYPE
5
15
100
AcDbSymbolTableRecord
100
AcDbLinetypeTableRecord
2
BYLAYER
70
0
0
ENDTAB
0
TABLE
2
LAYER
5
2
100
AcDbSymbolTable
70
2
0
LAYER
5
50
100
AcDbSymbolTableRecord
100
AcDbLayerTableRecord
2
0
70
0
6
CONTINUOUS
0
ENDTAB
0
TABLE
2
STYLE
5
3
100
AcDbSymbolTable
70
1
0
STYLE
5
11
100
AcDbSymbolTableRecord
100
AcDbTextStyleTableRecord
2
STANDARD
70
0
0
ENDTAB
0
TABLE
2
VIEW
5
6
100
AcDbSymbolTable
70
0
0
ENDTAB
0
TABLE
2
UCS
5
7
100
AcDbSymbolTable
70
0
0
ENDTAB
0
TABLE
2
APPID
5
9
100
AcDbSymbolTable
70
2
0
APPID
5
12
100
AcDbSymbolTableRecord
100
AcDbRegAppTableRecord
2
ACAD
70
0
0
ENDTAB
0
TABLE
2
DIMSTYLE
5
A
100
AcDbSymbolTable
70
1
0
ENDTAB
0
TABLE
2
BLOCK_RECORD
5
1
100
AcDbSymbolTable
70
1
0
BLOCK_RECORD
5
1F
100
AcDbSymbolTableRecord
100
AcDbBlockTableRecord
2
*MODEL_SPACE
0
BLOCK_RECORD
5
1B
100
AcDbSymbolTableRecord
100
AcDbBlockTableRecord
2
*PAPER_SPACE
0
ENDTAB
0
ENDSEC
0
SECTION
2
BLOCKS
0
BLOCK
5
20
100
AcDbEntity
100
AcDbBlockBegin
2
*MODEL_SPACE
0
ENDBLK
5
21
100
AcDbEntity
100
AcDbBlockEnd
0
BLOCK
5
1C
100
AcDbEntity
100
AcDbBlockBegin
2
*PAPER_SPACE
0
ENDBLK
5
1D
100
AcDbEntity
100
AcDbBlockEnd
0
ENDSEC
0
SECTION
2
ENTITIES
0
SPLINE
5
100
100
AcDbEntity
8
0
100
AcDbSpline
70
6
71
5
72
121
73
115
74
0
42
0.000000001
43
0.0000000001
44
0.0000000001
40
0
40
0
40
0
40
0
40
0
40
0
40
0.0090909090909090905
40
0.018181818181818181
40
0.027272727272727271
40
0.036363636363636362
40
0.045454545454545456
40
0.05454545454545455
40
0.063636363636363644
40
0.072727272727272738
40
0.081818181818181832
40
0.090909090909090925
40
0.10000000000000002
40
0.10909090909090911
40
0.11818181818181821
40
0.12727272727272729
40
0.13636363636363638
40
0.14545454545454548
40
0.15454545454545457
40
0.16363636363636366
40
0.17272727272727276
40
0.18181818181818185
40
0.19090909090909094
40
0.20000000000000004
40
0.20909090909090913
40
0.21818181818181823
40
0.22727272727272732
40
0.23636363636363641
40
0.24545454545454551
40
0.25454545454545457
40
0.26363636363636367
40
0.27272727272727276
40
0.28181818181818186
40
0.29090909090909095
40
0.30000000000000004
40
0.30909090909090914
40
0.31818181818181823
40
0.32727272727272733
40
0.33636363636363642
40
0.34545454545454551
40
0.35454545454545461
40
0.3636363636363637
40
0.3727272727272728
40
0.38181818181818189
40
0.39090909090909098
40
0.40000000000000008
40
0.40909090909090917
40
0.41818181818181827
40
0.42727272727272736
40
0.43636363636363645
40
0.44545454545454555
40
0.45454545454545464
40
0.46363636363636374
40
0.47272727272727283
40
0.48181818181818192
40
0.49090909090909102
40
0.50000000000000011
40
0.50909090909090915
40
0.51818181818181819
40
0.52727272727272723
40
0.53636363636363626
40
0.5454545454545453
40
0.55454545454545434
40
0.56363636363636338
40
0.57272727272727242
40
0.58181818181818146
40
0.5909090909090905
40
0.59999999999999953
40
0.60909090909090857
40
0.61818181818181761
40
0.62727272727272665
40
0.63636363636363569
40
0.64545454545454473
40
0.65454545454545376
40
0.6636363636363628
40
0.67272727272727184
40
0.68181818181818088
40
0.69090909090908992
40
0.69999999999999896
40
0.70909090909090799
40
0.71818181818181703
40
0.72727272727272607
40
0.73636363636363511
40
0.74545454545454415
40
0.75454545454545319
40
0.76363636363636223
40
0.77272727272727126
40
0.7818181818181803
40
0.79090909090908934
40
0.79999999999999838
40
0.80909090909090742
40
0.81818181818181646
40
0.82727272727272549
40
0.83636363636363453
40
0.84545454545454357
40
0.85454545454545261
40
0.86363636363636165
40
0.87272727272727069
40
0.88181818181817972
40
0.89090909090908876
40
0.8999999999999978
40
0.90909090909090684
40
0.91818181818181588
40
0.92727272727272492
40
0.93636363636363396
40
0.94545454545454299
40
0.95454545454545203
40
0.96363636363636107
40
0.97272727272727011
40
0.98181818181817915
40
0.99090909090908819
40
1
40
1
40
1
40
1
40
1
40
1
41
1
41
1
41
1
41
1
41
1
41
1
41
1
41
1
41
1
41
1
41
1
41
1
41
1
41
1
41
1
41
1
41
1
41
1
41
1
41
1
41
1
41
1
41
1
41
1
41
1
41
1
41
1
41
1
41
1
41
1
41
1
41
1
41
1
41
1
41
1
41
1
41
1
41
1
41
1
41
1
41
1
41
1
41
1
41
1
41
1
41
1
41
1
41
1
41
1
41
1
41
1
41
1
41
1
41
1
41
1
41
1
41
1
41
1
41
1
41
1
41
1
41
1
41
1
41
1
41
1
41
1
41
1
41
1
41
1
41
1
41
1
41
1
41
1
41
1
41
1
41
1
41
1
41
1
41
1
41
1
41
1
41
1
41
1
41
1
41
1
41
1
41
1
41
1
41
1
41
1
41
1
41
1
41
1
41
1
41
1
41
1
41
1
41
1
41
1
41
1
41
1
41
1
41
1
41
1
41
1
41
1
41
1
41
1
41
1
41
1
41
1
41
1
41
1
41
1
41
1
10
-13.799999691545963
20
0.010000000474974513
30
0
10
-13.813154432422785
20
-0.045650214468914048
30
0
10
-13.83756500445919
20
-0.15272507238642419
30
0
10
-13.868770036198772
20
-0.30251099925012104
30
0
10
-13.901472762116423
20
-0.4910051516386329
30
0
10
-13.933994946937876
20
-0.73978743021218651
30
0
10
-13.964356512296119
20
-1.0309324065435779
30
0
10
-13.996005139715182
20
-1.3802999524443367
30
0
10
-14.028895756137974
20
-1.7876581675347381
30
0
10
-14.060673682213135
20
-2.2428313323865057
30
0
10
-14.087354458296851
20
-2.7295313751905015
30
0
10
-14.104201341710802
20
-3.2300836954029406
30
0
10
-14.106532348917968
20
-3.7298739833301173
30
0
10
-14.090515678158377
20
-4.2216168327379533
30
0
10
-14.053096888492924
20
-4.7034697161773416
30
0
10
-13.991976545886292
20
-5.1774855705550893
30
0
10
-13.905568455788991
20
-5.6479424784538557
30
0
10
-13.792967614258673
20
-6.1197177396865099
30
0
10
-13.653912011967694
20
-6.5966657417740437
30
0
10
-13.488754164180021
20
-7.0799331373532279
30
0
10
-13.298195765528753
20
-7.568226805777166
30
0
10
-13.083008292426419
20
-8.0581619682306265
30
0
10
-12.843768057786908
20
-8.5445817077642499
30
0
10
-12.580564309329727
20
-9.0208829460349875
30
0
10
-12.292767104921424
20
-9.4793493777803768
30
0
10
-11.978651195856923
20
-9.9114548369664703
30
0
10
-11.635492915554863
20
-10.308269293102519
30
0
10
-11.260443773112614
20
-10.66103644497508
30
0
10
-10.851223129118146
20
-10.961710601498321
30
0
10
-10.406887343165486
20
-11.203512662504124
30
0
10
-9.9285591145132539
20
-11.381473253158008
30
0
10
-9.4201934944210475
20
-11.49299512576331
30
0
10
-8.8892781102257228
20
-11.538373068868268
30
0
10
-8.3457996757927706
20
-11.520120902443661
30
0
10
-7.8012559293701447
20
-11.442329799368601
30
0
10
-7.2676692802322052
20
-11.310029350716563
30
0
10
-6.7565601883214903
20
-11.128517788564928
30
0
10
-6.2780309321645884
20
-10.902776612732001
30
0
10
-5.8395721161357823
20
-10.636674831693236
30
0
10
-5.4458473095302775
20
-10.332917061464936
30
0
10
-5.0996808707418495
20
-9.9939082658037499
30
0
10
-4.8027156146907712
20
-9.6223652573384726
30
0
10
-4.5562488659894198
20
-9.2220705873903555
30
0
10
-4.3618877471859125
20
-8.7984751474250658
30
0
10
-4.2225369106251973
20
-8.359589251686554
30
0
10
-4.1423107466996321
20
-7.9159356311508589
30
0
10
-4.1250491675387986
20
-7.4792809401466611
30
0
10
-4.1731740896300975
20
-7.0616680198499724
30
0
10
-4.2864213560938929
20
-6.6743350326145903
30
0
10
-4.4605912427224563
20
-6.32666295221164
30
0
10
-4.6863830559935451
20
-6.0251645357145778
30
0
10
-4.9508562291833798
20
-5.7738202733220687
30
0
10
-5.238773082859435
20
-5.5743896844523881
30
0
10
-5.5340050488853931
20
-5.4266656382649057
30
0
10
-5.8208617344010074
20
-5.328907994277964
30
0
10
-6.0856591091320746
20
-5.2776074008154836
30
0
10
-6.3187207420204778
20
-5.2663677210093862
30
0
10
-6.5160595753741131
20
-5.2850922705752135
30
0
10
-6.6817209584893957
20
-5.3188827634388911
30
0
10
-6.8241561584608492
20
-5.346858832734009
30
0
10
-6.9509659624335285
20
-5.3391905595007847
30
0
10
-7.0657573315309694
20
-5.2592784285783747
30
0
10
-7.1698484657352566
20
-5.0826459128609365
30
0
10
-7.2630687835065793
20
-4.810084458241608
30
0
10
-7.3443292111219964
20
-4.4580009198690682
30
0
10
-7.4120943454092387
20
-4.050724518975148
30
0
10
-7.4649196341979369
20
-3.6116712992179205
30
0
10
-7.501899828809881
20
-3.1562050685804683
30
0
10
-7.5226464983887498
20
-2.6941408832961065
30
0
10
-7.527308312448441
20
-2.231231903093291
30
0
10
-7.5165845620191254
20
-1.7711215051388065
30
0
10
-7.4917208045693435
20
-1.3169154431257188
30
0
10
-7.4545637732493226
20
-0.87335643412352226
30
0
10
-7.4074121403092388
20
-0.44718914754285322
30
0
10
-7.3525750599679416
20
-0.0448751075462656
30
0
10
-7.2919717838640228
20
0.32913775865405215
30
0
10
-7.2267752887818855
20
0.67421832443442176
30
0
10
-7.1568930817892396
20
0.9956854567696094
30
0
10
-7.0809523112179455
20
1.305710156080429
30
0
10
-6.9982705738882887
20
1.6191033766969334
30
0
10
-6.9106042866601154
20
1.9497807406856895
30
0
10
-6.8238356509036571
20
2.3071425031789543
30
0
10
-6.7500773912859504
20
2.6920177021309213
30
0
10
-6.7051264153965038
20
3.0982503674235353
30
0
10
-6.705340041384849
20
3.5150468761523279
30
0
10
-6.7646163789902687
20
3.9290880964829764
30
0
10
-6.8915607275756852
20
4.3266505749556829
30
0
10
-7.085967757402857
20
4.6959539104667609
30
0
10
-7.3405613797460676
20
5.0274819814158693
30
0
10
-7.6438173697734291
20
5.3138470753048139
30
0
10
-7.982506712344061
20
5.5498305893127942
30
0
10
-8.3441362041547755
20
5.7323121016439949
30
0
10
-8.7199867093720975
20
5.8603456382448291
30
0
10
-9.1049001450102907
20
5.9346488660993195
30
0
10
-9.4956246581481079
20
5.9568603946658305
30
0
10
-9.889562048055863
20
5.9288385571350988
30
0
10
-10.283483154290034
20
5.852015988973899
30
0
10
-10.671913747208022
20
5.7265450179559183
30
0
10
-11.047690116351507
20
5.5516314211050544
30
0
10
-11.403319751049212
20
5.3263064509081133
30
0
10
-11.732135254998223
20
5.0500727329219508
30
0
10
-12.029405156135109
20
4.7235641496768039
30
0
10
-12.293783167010112
20
4.3492957081035062
30
0
10
-12.527345257539826
20
3.9320007582028942
30
0
10
-12.73418587535472
20
3.4785645894348152
30
0
10
-12.919430146370585
20
2.9980407452924931
30
0
10
-13.088029792075348
20
2.5016974811703871
30
0
10
-13.243760220285344
20
2.0029077465379728
30
0
10
-13.387867344899844
20
1.5174595563038349
30
0
10
-13.518761655656707
20
1.0624863047424451
30
0
10
-13.6336128966836
20
0.65283841220682848
30
0
10
-13.710341339929341
20
0.3689922918727111
30
0
10
-13.758636559198241
20
0.18117621727694205
30
0
10
-13.786844950669144
20
0.065650215418879748
30
0
10
-13.799999691545963
20
0.010000000474974513
30
0
0
ENDSEC
0
SECTION
2
OBJECTS
0
DICTIONARY
5
C
100
AcDbDictionary
3
ACAD_GROUP
350
D
3
ACAD_MLINESTYLE
350
17
0
DICTIONARY
5
D
100
AcDbDictionary
0
DICTIONARY
5
1A
330
C
100
AcDbDictionary
0
DICTIONARY
5
17
100
AcDbDictionary
0
ENDSEC
0
EOF
