0
SECTION
2
HEADER
9
$INSUNITS
70
4
9
$ACADVER
1
AC1014
9
$HANDSEED
5
FFFF
0
ENDSEC
0
SECTION
2
TABLES
0
TABLE
2
VPORT
5
8
100
AcDbSymbolTable
0
ENDTAB
0
TABLE
2
LTYPE
5
5
100
AcDbSymbolTable
0
LTYPE
5
14
100
AcDbSymbolTableRecord
100
AcDbLinetypeTableRecord
2
BYBLOCK
70
0
0
LTYPE
5
15
100
AcDbSymbolTableRecord
100
AcDbLinetypeTableRecord
2
BYLAYER
70
0
0
ENDTAB
0
TABLE
2
LAYER
5
2
100
AcDbSymbolTable
70
2
0
LAYER
5
50
100
AcDbSymbolTableRecord
100
AcDbLayerTableRecord
2
0
70
0
6
CONTINUOUS
0
ENDTAB
0
TABLE
2
STYLE
5
3
100
AcDbSymbolTable
70
1
0
STYLE
5
11
100
AcDbSymbolTableRecord
100
AcDbTextStyleTableRecord
2
STANDARD
70
0
0
ENDTAB
0
TABLE
2
VIEW
5
6
100
AcDbSymbolTable
70
0
0
ENDTAB
0
TABLE
2
UCS
5
7
100
AcDbSymbolTable
70
0
0
ENDTAB
0
TABLE
2
APPID
5
9
100
AcDbSymbolTable
70
2
0
APPID
5
12
100
AcDbSymbolTableRecord
100
AcDbRegAppTableRecord
2
ACAD
70
0
0
ENDTAB
0
TABLE
2
DIMSTYLE
5
A
100
AcDbSymbolTable
70
1
0
ENDTAB
0
TABLE
2
BLOCK_RECORD
5
1
100
AcDbSymbolTable
70
1
0
BLOCK_RECORD
5
1F
100
AcDbSymbolTableRecord
100
AcDbBlockTableRecord
2
*MODEL_SPACE
0
BLOCK_RECORD
5
1B
100
AcDbSymbolTableRecord
100
AcDbBlockTableRecord
2
*PAPER_SPACE
0
ENDTAB
0
ENDSEC
0
SECTION
2
BLOCKS
0
BLOCK
5
20
100
AcDbEntity
100
AcDbBlockBegin
2
*MODEL_SPACE
0
ENDBLK
5
21
100
AcDbEntity
100
AcDbBlockEnd
0
BLOCK
5
1C
100
AcDbEntity
100
AcDbBlockBegin
2
*PAPER_SPACE
0
ENDBLK
5
1D
100
AcDbEntity
100
AcDbBlockEnd
0
ENDSEC
0
SECTION
2
ENTITIES
0
SPLINE
5
100
100
AcDbEntity
8
0
100
AcDbSpline
70
6
71
5
72
101
73
95
74
0
42
0.000000001
43
0.0000000001
44
0.0000000001
40
0
40
0
40
0
40
0
40
0
40
0
40
0.011111111111111112
40
0.022222222222222223
40
0.033333333333333333
40
0.044444444444444446
40
0.055555555555555559
40
0.066666666666666666
40
0.077777777777777779
40
0.088888888888888892
40
0.10000000000000001
40
0.11111111111111112
40
0.12222222222222223
40
0.13333333333333333
40
0.14444444444444443
40
0.15555555555555553
40
0.16666666666666663
40
0.17777777777777773
40
0.18888888888888883
40
0.19999999999999993
40
0.21111111111111103
40
0.22222222222222213
40
0.23333333333333323
40
0.24444444444444433
40
0.25555555555555542
40
0.26666666666666655
40
0.27777777777777768
40
0.28888888888888881
40
0.29999999999999993
40
0.31111111111111106
40
0.32222222222222219
40
0.33333333333333331
40
0.34444444444444444
40
0.35555555555555557
40
0.3666666666666667
40
0.37777777777777782
40
0.38888888888888895
40
0.40000000000000008
40
0.4111111111111112
40
0.42222222222222233
40
0.43333333333333346
40
0.44444444444444459
40
0.45555555555555571
40
0.46666666666666684
40
0.47777777777777797
40
0.48888888888888909
40
0.50000000000000022
40
0.51111111111111129
40
0.52222222222222237
40
0.53333333333333344
40
0.54444444444444451
40
0.55555555555555558
40
0.56666666666666665
40
0.57777777777777772
40
0.5888888888888888
40
0.59999999999999987
40
0.61111111111111094
40
0.62222222222222201
40
0.63333333333333308
40
0.64444444444444415
40
0.65555555555555522
40
0.6666666666666663
40
0.67777777777777737
40
0.68888888888888844
40
0.69999999999999951
40
0.71111111111111058
40
0.72222222222222165
40
0.73333333333333273
40
0.7444444444444438
40
0.75555555555555487
40
0.76666666666666594
40
0.77777777777777701
40
0.78888888888888808
40
0.79999999999999916
40
0.81111111111111023
40
0.8222222222222213
40
0.83333333333333237
40
0.84444444444444344
40
0.85555555555555451
40
0.86666666666666559
40
0.87777777777777666
40
0.88888888888888773
40
0.8999999999999988
40
0.91111111111110987
40
0.92222222222222094
40
0.93333333333333202
40
0.94444444444444309
40
0.95555555555555416
40
0.96666666666666523
40
0.9777777777777763
40
0.98888888888888737
40
1
40
1
40
1
40
1
40
1
40
1
41
1
41
1
41
1
41
1
41
1
41
1
41
1
41
1
41
1
41
1
41
1
41
1
41
1
41
1
41
1
41
1
41
1
41
1
41
1
41
1
41
1
41
1
41
1
41
1
41
1
41
1
41
1
41
1
41
1
41
1
41
1
41
1
41
1
41
1
41
1
41
1
41
1
41
1
41
1
41
1
41
1
41
1
41
1
41
1
41
1
41
1
41
1
41
1
41
1
41
1
41
1
41
1
41
1
41
1
41
1
41
1
41
1
41
1
41
1
41
1
41
1
41
1
41
1
41
1
41
1
41
1
41
1
41
1
41
1
41
1
41
1
41
1
41
1
41
1
41
1
41
1
41
1
41
1
41
1
41
1
41
1
41
1
41
1
41
1
41
1
41
1
41
1
41
1
41
1
41
1
41
1
41
1
41
1
41
1
41
1
10
2.9836488512317585
20
-2.7301494350152931
30
0
10
3.0108729263686196
20
-2.780183184605777
30
0
10
3.0652695145264914
20
-2.8824776267514398
30
0
10
3.1464254154837463
20
-3.0435920240289818
30
0
10
3.2525128148046409
20
-3.276286902765722
30
0
10
3.3783361168659374
20
-3.5974408779359202
30
0
10
3.4943605040964476
20
-3.9449238522048393
30
0
10
3.598208941539986
20
-4.3117198021273815
30
0
10
3.6884997801564587
20
-4.6890844994223766
30
0
10
3.7653039516324949
20
-5.0680298289863845
30
0
10
3.8302401719158006
20
-5.4402264084065566
30
0
10
3.8862168283793159
20
-5.7983437094252013
30
0
10
3.9372684790372361
20
-6.1365309534576991
30
0
10
3.9883606298559431
20
-6.4508705046118218
30
0
10
4.0451951103448947
20
-6.7397773000620589
30
0
10
4.1140526094840855
20
-7.0046009502037538
30
0
10
4.2012923027996845
20
-7.2486076881893293
30
0
10
4.3127519451479941
20
-7.4755529441182915
30
0
10
4.4532263286347487
20
-7.6885077063887604
30
0
10
4.62580789429812
20
-7.888315238345287
30
0
10
4.8316540458814234
20
-8.0731360947397661
30
0
10
5.0703722552836252
20
-8.2395481259354391
30
0
10
5.3402633858353639
20
-8.3832944696509042
30
0
10
5.6386056643720934
20
-8.5001296025810866
30
0
10
5.9619598216021856
20
-8.5867350313036326
30
0
10
6.3061382980840941
20
-8.6406707132096887
30
0
10
6.6661044132476643
20
-8.6601116003617644
30
0
10
7.035880271617442
20
-8.643649231523284
30
0
10
7.4084839946791359
20
-8.5900903997944535
30
0
10
7.7757721219016531
20
-8.4981998507334158
30
0
10
8.1285856509019325
20
-8.3666538745709005
30
0
10
8.4577006067943508
20
-8.1945660731198178
30
0
10
8.7546049278866303
20
-7.9818891575045576
30
0
10
9.0123873911269268
20
-7.7298978830576459
30
0
10
9.2264816656838669
20
-7.441566583276817
30
0
10
9.3957194973461871
20
-7.1221726547166053
30
0
10
9.5221920865821588
20
-6.7790280919579873
30
0
10
9.6102060427268441
20
-6.4205478978962738
30
0
10
9.6655099132619888
20
-6.0555169778135642
30
0
10
9.6943968363607169
20
-5.6922640691384103
30
0
10
9.7028939266050109
20
-5.3379030132113154
30
0
10
9.6958273975936322
20
-4.9974706610486166
30
0
10
9.676866712597187
20
-4.6739082154840936
30
0
10
9.648705303845075
20
-4.3681750823251217
30
0
10
9.6132016592865774
20
-4.0792948578525197
30
0
10
9.5715161146235932
20
-3.8044729223325109
30
0
10
9.5243006644282406
20
-3.5390673458818562
30
0
10
9.4715605756352712
20
-3.277285423516767
30
0
10
9.4123619178070435
20
-3.0131901696385195
30
0
10
9.3446201154950792
20
-2.7415704636829035
30
0
10
9.2647814829503847
20
-2.4589503752949349
30
0
10
9.1677677926404986
20
-2.1642930022149951
30
0
10
9.0480641691213428
20
-1.8584231140622212
30
0
10
8.9006404856970018
20
-1.5436296053406631
30
0
10
8.7219527453748462
20
-1.223196501182473
30
0
10
8.510876820399039
20
-0.90097210535280658
30
0
10
8.2697670957035321
20
-0.58090425350126518
30
0
10
8.0035748881963809
20
-0.26694782877719153
30
0
10
7.7188251355971937
20
0.037005169378701214
30
0
10
7.4226654167539703
20
0.32720229082673441
30
0
10
7.1218410661424336
20
0.60010754570702063
30
0
10
6.8218050609113954
20
0.85247151418869305
30
0
10
6.5255107737886373
20
1.0814219245578898
30
0
10
6.2335102401966545
20
1.2844678885079255
30
0
10
5.9449255641796093
20
1.4594475728138423
30
0
10
5.6581649911423746
20
1.6044902523051117
30
0
10
5.371731265163989
20
1.7179788793391226
30
0
10
5.0850193350040316
20
1.7984983447167313
30
0
10
4.7990345838607853
20
1.8448304757691831
30
0
10
4.5160645247691917
20
1.8563480867570605
30
0
10
4.2394584163564009
20
1.8334100149011121
30
0
10
3.9733238041890955
20
1.7776911275000173
30
0
10
3.7223625137092409
20
1.6926987128890501
30
0
10
3.4912370797814187
20
1.58361097096935
30
0
10
3.2833020483056723
20
1.456342955012859
30
0
10
3.0996542287988933
20
1.3168140142607518
30
0
10
2.9377044247109074
20
1.1701373178160419
30
0
10
2.7910795569678322
20
1.0198086541195233
30
0
10
2.6534007117285698
20
0.86644605457059631
30
0
10
2.5209179771996131
20
0.7069553033853172
30
0
10
2.3965535580452015
20
0.53275166600443713
30
0
10
2.2890554088734274
20
0.33190329222866155
30
0
10
2.2087664800897908
20
0.094275379815112387
30
0
10
2.164692334460427
20
-0.18476032054832667
30
0
10
2.1603168466133011
20
-0.49871333220165986
30
0
10
2.193792424470459
20
-0.83214884087919883
30
0
10
2.2599094268361322
20
-1.1660855705577113
30
0
10
2.3515591979633692
20
-1.4826065599983655
30
0
10
2.4612808869706089
20
-1.7692677724965176
30
0
10
2.5830803142248544
20
-2.0249106830370613
30
0
10
2.7127695608738582
20
-2.2590801581520918
30
0
10
2.8203051036981752
20
-2.4412032186066943
30
0
10
2.9019250637053142
20
-2.5822751292085262
30
0
10
2.9564247760948916
20
-2.6801156854248029
30
0
10
2.9836488512317585
20
-2.7301494350152931
30
0
0
ENDSEC
0
SECTION
2
OBJECTS
0
DICTIONARY
5
C
100
AcDbDictionary
3
ACAD_GROUP
350
D
3
ACAD_MLINESTYLE
350
17
0
DICTIONARY
5
D
100
AcDbDictionary
0
DICTIONARY
5
1A
330
C
100
AcDbDictionary
0
DICTIONARY
5
17
100
AcDbDictionary
0
ENDSEC
0
EOF
